<?xml version="1.0" encoding="UTF-8"?>
<!DOCTYPE svg PUBLIC "-//W3C//DTD SVG 1.1//EN" "http://www.w3.org/Graphics/SVG/1.1/DTD/svg11.dtd">
<!-- Creator: CorelDRAW -->
<svg xmlns="http://www.w3.org/2000/svg" xml:space="preserve" width="4.95675in" height="0.562567in" style="shape-rendering:geometricPrecision; text-rendering:geometricPrecision; image-rendering:optimizeQuality; fill-rule:evenodd; clip-rule:evenodd"
viewBox="0 0 4.47859 0.508298"
 xmlns:xlink="http://www.w3.org/1999/xlink">
 <defs>
  <style type="text/css">
   <![CDATA[
    .str1 {stroke:#E14D2A;stroke-width:0.0027106}
    .str0 {stroke:#0008C2;stroke-width:0.00627137}
    .str2 {stroke:#E14D2A;stroke-width:0.037646}
    .fil3 {fill:none}
    .fil1 {fill:none;fill-rule:nonzero}
    .fil2 {fill:#E14D2A}
    .fil0 {fill:#0008C2;fill-rule:nonzero}
   ]]>
  </style>
 </defs>
 <g id="Layer_x0020_1">
  <metadata id="CorelCorpID_0Corel-Layer"/>
  <path class="fil0" d="M1.05421 0.449213c-0.0502884,0 -0.0964468,-0.00711444 -0.138482,-0.0214429l-0.0189564 0.0214429 0 -0.13198c0.00669113,0.0215425 0.0178394,0.0414274 0.0334521,0.0597506 0.0156091,0.0182272 0.0341208,0.033043 0.0555282,0.0443514 0.0215176,0.0114044 0.0441522,0.0170569 0.0681243,0.0170569 0.0146059,0 0.0274297,-0.00272839 0.0383539,-0.00799307 0.0110416,-0.00536073 0.0196252,-0.0122795 0.0256475,-0.0207599 0.00613264,-0.00848041 0.00914205,-0.0174482 0.00914205,-0.0269993 0,-0.0128665 -0.00457102,-0.0246622 -0.0137166,-0.0351916 -0.00914205,-0.0106219 -0.0209591,-0.0205643 -0.0355651,-0.0299233 -0.0146059,-0.00925944 -0.0305529,-0.0186185 -0.0477236,-0.027974 -0.0156091,-0.00858001 -0.0312181,-0.0175478 -0.0464928,-0.0270989 -0.0153885,-0.00955113 -0.029436,-0.0199809 -0.0420356,-0.0312893 -0.0125997,-0.0113084 -0.0227484,-0.0238796 -0.0305529,-0.0378203 -0.00769426,-0.0139372 -0.0115965,-0.0297277 -0.0115965,-0.0473715 0,-0.0213469 0.00747016,-0.0399653 0.0223038,-0.0558519 0.0147162,-0.0158901 0.0342275,-0.0282692 0.0581996,-0.0371374 0.0240824,-0.0088717 0.0501746,-0.0132578 0.078273,-0.0132578 0.0221864,0 0.0417013,0.00175371 0.0585376,0.00526468 0.016726,0.00350742 0.0345655,0.00886814 0.0535183,0.0161782l0.018622 -0.0214429 0 0.116773c-0.0109278,-0.0333347 -0.0285431,-0.0592632 -0.0530737,-0.0779778 -0.024527,-0.0186185 -0.050733,-0.027974 -0.0786074,-0.027974 -0.0224105,0 -0.0403637,0.00516508 -0.0540768,0.0155948 -0.0136028,0.0103302 -0.0204078,0.0231966 -0.0204078,0.0384037 0,0.0125748 0.00457458,0.0239792 0.0137166,0.0342133 0.00914561,0.0103337 0.0210765,0.0201765 0.0357927,0.0296316 0.0147198,0.00935904 0.0307735,0.0188141 0.0481647,0.0283653 0.0161711,0.0087721 0.0321146,0.0181311 0.0480616,0.0279775 0.0159434,0.00994242 0.0304356,0.0207599 0.0435937,0.0324561 0.0131581,0.0116997 0.023748,0.0247582 0.0318905,0.0392824 0.00802864,0.0144281 0.0120412,0.0307059 0.0120412,0.048837 0,0.0188106 -0.00691523,0.0360631 -0.0207421,0.0517575 -0.0138198,0.0156944 -0.03289,0.0283653 -0.0571965,0.0379164 -0.0241962,0.00945508 -0.0521808,0.0142324 -0.0837369,0.0142324z"/>
  <path id="1" class="fil0" d="M1.52162 0.449504c-0.0347896,0 -0.0561969,-0.00994242 -0.0640015,-0.0297277 -0.00457102,0.00379911 -0.0105934,0.00799307 -0.0179533,0.0125712 -0.00735633,0.0045817 -0.0165019,0.00858001 -0.0274261,0.0118953 -0.0109313,0.00331177 -0.0240859,0.00496943 -0.0395847,0.00496943 -0.0286534,0 -0.0524049,-0.00370306 -0.0710234,-0.0110131 -0.018622,-0.00731364 -0.0324489,-0.0173521 -0.041591,-0.0299269 -0.00914205,-0.0126708 -0.0137131,-0.0269032 -0.0137131,-0.0426937 0,-0.0201765 0.00579826,-0.0365504 0.0173912,-0.0490291 0.0117104,-0.0124752 0.0268712,-0.0216386 0.0454933,-0.0273906 0.0186185,-0.00584807 0.0383575,-0.00867605 0.0592063,-0.00867605 0.0185082,0 0.0336726,0.00175727 0.0454933,0.00526468 0.0117068,0.00351097 0.020518,0.00711444 0.026423,0.0107215 0.00590854,0.00360702 0.00903178,0.00584807 0.00947999,0.00682274 -0.000892862,-0.0343094 -0.00468486,-0.0622833 -0.0114827,-0.0839254 -0.00914561,-0.0297277 -0.0249788,-0.0445435 -0.0476134,-0.0445435 -0.0148265,0 -0.0277641,0.00399476 -0.0389124,0.0120874 -0.0111483,0.00808911 -0.0208489,0.0180315 -0.0291016,0.0297277 -0.00825274,0.0116961 -0.0156091,0.0232962 -0.0221899,0.0347007l-0.00747016 0.0122831 -0.0363477 -0.0788564c0.054525,-0.0138411 0.100794,-0.0208595 0.138927,-0.0208595 0.0352342,0 0.0641153,0.00594411 0.0865258,0.0177398 0.0224069,0.0117957 0.0390227,0.0283653 0.0498366,0.0497121 0.0107072,0.0212508 0.0161676,0.0463007 0.0161676,0.0750537l0 0.0665769c0,0.0205678 0.00245448,0.0354797 0.00735988,0.0446431 0.00490896,0.00925944 0.0129376,0.0138411 0.02431,0.0138411 -0.0169501,0.0119878 -0.0363477,0.0180315 -0.0582032,0.0180315zm-0.118861 -0.0183232c0.00914205,0 0.016726,-0.00126993 0.0227448,-0.00380267 0.0059121,-0.00253274 0.0107072,-0.00555637 0.0142751,-0.0088717 0.00367816,-0.00331177 0.00623936,-0.0062358 0.00769426,-0.0086725l0.00234065 -0.00399831 0 -0.0874329 -0.000334378 -0.000291692c-0.000448209,-0.000878633 -0.0021201,-0.00292759 -0.00513307,-0.00614331 -0.00289558,-0.00311968 -0.00735633,-0.00613976 -0.013489,-0.00906379 -0.00612909,-0.00302364 -0.0140475,-0.00448565 -0.0238583,-0.00448565 -0.0089215,0 -0.0177292,0.0025363 -0.0263163,0.00740968 -0.00858712,0.00496943 -0.0156091,0.0122831 -0.0211832,0.0218342 -0.00557772,0.00965073 -0.00836658,0.0217382 -0.00836658,0.0361627 0,0.0207635 0.00523978,0.0371374 0.0157229,0.0492248 0.0103693,0.0120874 0.022414,0.0181311 0.035903,0.0181311z"/>
  <path id="12" class="fil0" d="M2.18771 0.449504l-0.184865 0c0.00802864,-0.00175371 0.0152747,-0.00438605 0.0216314,-0.00818872 0.00646346,-0.00370306 0.0115965,-0.00915984 0.0154988,-0.0163739 0.00401254,-0.00721404 0.00590854,-0.0170569 0.00590854,-0.029436l0 -0.0922138c-0.00111697,-0.0383041 -0.00724961,-0.067548 -0.0183979,-0.0879202 -0.0112622,-0.0203722 -0.0272056,-0.0306063 -0.0479442,-0.0306063 -0.0188461,0 -0.0379128,0.00857645 -0.0570898,0.0257329 0.0130443,0.0188106 0.0205145,0.0452265 0.0225207,0.079052l0 0.105955c0,0.0123791 0.00200983,0.0222219 0.0059121,0.029436 0.00390227,0.00721404 0.00914561,0.0126708 0.0156091,0.0163739 0.00658085,0.00380267 0.0137131,0.00643501 0.0216314,0.00818872l-0.184979 0c0.00813891,-0.00175371 0.0153885,-0.00438605 0.0217453,-0.00818872 0.00646702,-0.00370306 0.011593,-0.00915984 0.0154952,-0.0163739 0.0040161,-0.00721404 0.0059121,-0.0170569 0.0059121,-0.029436l0 -0.105955c-0.000448209,-0.0224211 -0.00245448,-0.041719 -0.00602237,-0.0579008 -0.00356789,-0.0161818 -0.00936615,-0.028753 -0.017281,-0.0376247 -0.00802864,-0.0087721 -0.019177,-0.0132578 -0.0335623,-0.0132578 -0.0142751,0 -0.0296601,0.0067267 -0.0460482,0.0202761l0.00200627 0.194462c0,0.0123791 0.001896,0.0222219 0.00590854,0.029436 0.00390227,0.00721404 0.00914205,0.0126708 0.0156126,0.0163739 0.00657374,0.00380267 0.0137131,0.00643501 0.0216314,0.00818872l-0.184982 0c0.00791481,-0.00175371 0.0150541,-0.00438605 0.0216314,-0.00818872 0.00646702,-0.00370306 0.0117068,-0.00915984 0.0156091,-0.0163739 0.0040161,-0.00721404 0.00590854,-0.0170569 0.00590854,-0.029436l-0.00189244 -0.166488c0,-0.0123791 -0.00200983,-0.0221259 -0.0059121,-0.029436 -0.00390227,-0.00721404 -0.00914205,-0.0126708 -0.0157193,-0.0163774 -0.00646702,-0.00370306 -0.0137166,-0.00643145 -0.0215212,-0.00818516 0.0315561,0 0.0580929,-0.000586941 0.0795038,-0.00185331 0.0215176,-0.00117032 0.0422562,-0.0041904 0.0622157,-0.00896775l0 0.0220298c0.00546033,-0.00321572 0.0118171,-0.0066271 0.019177,-0.010042 0.00724605,-0.00341137 0.0157229,-0.0062358 0.0254234,-0.00857645 0.00969698,-0.00224105 0.020735,-0.00341137 0.0332244,-0.00341137 0.0187323,0 0.0357892,0.00282799 0.0513982,0.00848041 0.0156162,0.00555637 0.0288846,0.0142324 0.0400329,0.025829 0.00914205,-0.00613976 0.0186185,-0.0116961 0.0285431,-0.0168612 0.00992108,-0.00516508 0.0208524,-0.00935904 0.03289,-0.0125748 0.0119309,-0.00321572 0.0255337,-0.00487339 0.040812,-0.00487339 0.0395812,0 0.0707993,0.0121835 0.0935477,0.0364544 0.0227448,0.0242709 0.0347896,0.0584842 0.0361271,0.10264l0 0.0922138c0,0.0123791 0.00200627,0.0222219 0.00590854,0.029436 0.00390227,0.00721404 0.00914205,0.0126708 0.0156091,0.0163739 0.00658085,0.00380267 0.0137166,0.00643501 0.0216314,0.00818872z"/>
  <path id="123" class="fil0" d="M2.49345 0.449504c-0.0347896,0 -0.0561969,-0.00994242 -0.0640015,-0.0297277 -0.00457102,0.00379911 -0.0105934,0.00799307 -0.0179533,0.0125712 -0.00735633,0.0045817 -0.0165019,0.00858001 -0.0274261,0.0118953 -0.0109313,0.00331177 -0.0240859,0.00496943 -0.0395847,0.00496943 -0.0286534,0 -0.0524049,-0.00370306 -0.0710234,-0.0110131 -0.018622,-0.00731364 -0.0324489,-0.0173521 -0.041591,-0.0299269 -0.00914205,-0.0126708 -0.0137131,-0.0269032 -0.0137131,-0.0426937 0,-0.0201765 0.00579826,-0.0365504 0.0173912,-0.0490291 0.0117104,-0.0124752 0.0268712,-0.0216386 0.0454933,-0.0273906 0.0186185,-0.00584807 0.0383575,-0.00867605 0.0592063,-0.00867605 0.0185082,0 0.0336726,0.00175727 0.0454933,0.00526468 0.0117068,0.00351097 0.020518,0.00711444 0.026423,0.0107215 0.00590854,0.00360702 0.00903178,0.00584807 0.00947999,0.00682274 -0.000892862,-0.0343094 -0.00468486,-0.0622833 -0.0114827,-0.0839254 -0.00914561,-0.0297277 -0.0249788,-0.0445435 -0.0476134,-0.0445435 -0.0148265,0 -0.0277641,0.00399476 -0.0389124,0.0120874 -0.0111483,0.00808911 -0.0208489,0.0180315 -0.0291016,0.0297277 -0.00825274,0.0116961 -0.0156091,0.0232962 -0.0221899,0.0347007l-0.00747016 0.0122831 -0.0363477 -0.0788564c0.054525,-0.0138411 0.100794,-0.0208595 0.138927,-0.0208595 0.0352342,0 0.0641153,0.00594411 0.0865258,0.0177398 0.0224069,0.0117957 0.0390227,0.0283653 0.0498366,0.0497121 0.0107072,0.0212508 0.0161676,0.0463007 0.0161676,0.0750537l0 0.0665769c0,0.0205678 0.00245448,0.0354797 0.00735988,0.0446431 0.00490896,0.00925944 0.0129376,0.0138411 0.02431,0.0138411 -0.0169501,0.0119878 -0.0363477,0.0180315 -0.0582032,0.0180315zm-0.118861 -0.0183232c0.00914205,0 0.016726,-0.00126993 0.0227448,-0.00380267 0.0059121,-0.00253274 0.0107072,-0.00555637 0.0142751,-0.0088717 0.00367816,-0.00331177 0.00623936,-0.0062358 0.00769426,-0.0086725l0.00234065 -0.00399831 0 -0.0874329 -0.000334378 -0.000291692c-0.000448209,-0.000878633 -0.0021201,-0.00292759 -0.00513307,-0.00614331 -0.00289558,-0.00311968 -0.00735633,-0.00613976 -0.013489,-0.00906379 -0.00612909,-0.00302364 -0.0140475,-0.00448565 -0.0238583,-0.00448565 -0.0089215,0 -0.0177292,0.0025363 -0.0263163,0.00740968 -0.00858712,0.00496943 -0.0156091,0.0122831 -0.0211832,0.0218342 -0.00557772,0.00965073 -0.00836658,0.0217382 -0.00836658,0.0361627 0,0.0207635 0.00523978,0.0371374 0.0157229,0.0492248 0.0103693,0.0120874 0.022414,0.0181311 0.035903,0.0181311z"/>
  <path id="1234" class="fil0" d="M2.96152 0.449504l-0.184865 0c0.00780454,-0.00175371 0.0150541,-0.00448209 0.0215212,-0.00828476 0.0065773,-0.00380267 0.0118171,-0.00945508 0.0157193,-0.0169608 0.00390227,-0.00760177 0.0059121,-0.0178359 0.0059121,-0.0309976l0 -0.0742747c0,-0.0439601 -0.00512951,-0.0779778 -0.0151644,-0.101957 -0.0101487,-0.0239792 -0.0258681,-0.035967 -0.0472754,-0.035967 -0.0158332,0 -0.0312217,0.0063354 -0.0460482,0.0191023l0 0.193096c0,0.0235915 0.00724605,0.039574 0.0216314,0.0479584 0.00646346,0.00380267 0.0137131,0.00653105 0.0215176,0.00828476l-0.184869 0c0.00780454,-0.00175371 0.0149439,-0.00448209 0.0215212,-0.00828476 0.0065773,-0.00380267 0.0118171,-0.00945508 0.0157193,-0.0169608 0.00390227,-0.00760177 0.00579826,-0.0178359 0.00579826,-0.0309976l0 -0.164244c0,-0.0123791 -0.001896,-0.0221259 -0.00579826,-0.0292403 -0.00390227,-0.00711799 -0.00914205,-0.0125748 -0.0157193,-0.0162778 -0.0065773,-0.00370662 -0.0137166,-0.00643501 -0.0215212,-0.00818872 0.0315561,0 0.0580929,-0.000586941 0.0795003,-0.00185331 0.0214109,-0.00117032 0.0421459,-0.0041904 0.0622193,-0.00896775l0 0.0220298c0.00914205,-0.00613976 0.0197354,-0.0113084 0.0316664,-0.0155948 0.0120376,-0.00429 0.0273159,-0.00643501 0.0460482,-0.00643501 0.0244167,0 0.0463826,0.00575202 0.0658939,0.0172525 0.0195149,0.0116001 0.0348999,0.0277819 0.0463826,0.0487374 0.0113724,0.0209591 0.0171742,0.0456178 0.0171742,0.073983l0 0.0887988c0,0.0131617 0.001896,0.0233958 0.00579826,0.0309976 0.00390227,0.00750573 0.00914205,0.0131581 0.0154988,0.0169608 0.00646346,0.00380267 0.0137131,0.00653105 0.0217382,0.00828476z"/>
  <path id="12345" class="fil0" d="M3.13167 0.449504c-0.0295462,0 -0.0555282,-0.00555637 -0.0778248,-0.0166691 -0.0223038,-0.0112088 -0.0396985,-0.0271949 -0.0521844,-0.0481505 -0.0123756,-0.0209556 -0.018622,-0.0460091 -0.018622,-0.0751533 0,-0.03236 0.00658085,-0.0593628 0.0195149,-0.0809018 0.0129305,-0.0216421 0.0299945,-0.0378203 0.0512915,-0.0485418 0.0211832,-0.0108211 0.0442625,-0.0161818 0.0690136,-0.0161818 0.0278779,0 0.0527393,0.00731008 0.0744846,0.0220298l0 -0.0973788c0,-0.0123791 -0.001896,-0.0221259 -0.00579826,-0.0292403 -0.0040161,-0.00721404 -0.00914205,-0.0126744 -0.0157229,-0.0164735 -0.0065773,-0.00380267 -0.0138269,-0.00653105 -0.0218555,-0.00828476 0.0317802,0 0.0583206,-0.000586941 0.0797279,-0.00165766 0.0212935,-0.00117032 0.0419218,-0.00409436 0.0619916,-0.0088717l0.000334378 0.4246 -0.0865258 -0.0359706 -0.00390227 0.00575202c-0.00245092,0.00360702 -0.00669113,0.00779742 -0.0125997,0.0126708 -0.00601881,0.00487339 -0.0139336,0.00916339 -0.0238583,0.0128665 -0.00992464,0.00370662 -0.022414,0.00555637 -0.0374646,0.00555637zm0.0183944 -0.0125748c0.00802864,0 0.0156162,-0.00165411 0.0228622,-0.00487339 0.00713222,-0.00321572 0.0130443,-0.00799307 0.0176153,-0.0144245 0.00457102,-0.0063354 0.0068014,-0.0144281 0.0068014,-0.0240752l0 -0.193096c-0.00735988,-0.00663065 -0.0154988,-0.0116001 -0.0243065,-0.0150115 -0.00881123,-0.00331533 -0.0177292,-0.00497299 -0.0266507,-0.00497299 -0.0108139,0 -0.0207386,0.00467774 -0.0295427,0.0140368 -0.00881123,0.00925944 -0.0158367,0.0234919 -0.0210765,0.0424981 -0.00523978,0.0191058 -0.00780809,0.0432807 -0.00780809,0.072521 0,0.0421103 0.00546744,0.073887 0.0162814,0.0952338 0.0109278,0.0214429 0.026206,0.0321644 0.0458241,0.0321644z"/>
  <path id="123456" class="fil1 str0" d="M1.05421 0.449213c-0.0502884,0 -0.0964468,-0.00711444 -0.138482,-0.0214429l-0.0189564 0.0214429 0 -0.13198c0.00669113,0.0215425 0.0178394,0.0414274 0.0334521,0.0597506 0.0156091,0.0182272 0.0341208,0.033043 0.0555282,0.0443514 0.0215176,0.0114044 0.0441522,0.0170569 0.0681243,0.0170569 0.0146059,0 0.0274297,-0.00272839 0.0383539,-0.00799307 0.0110416,-0.00536073 0.0196252,-0.0122795 0.0256475,-0.0207599 0.00613264,-0.00848041 0.00914205,-0.0174482 0.00914205,-0.0269993 0,-0.0128665 -0.00457102,-0.0246622 -0.0137166,-0.0351916 -0.00914205,-0.0106219 -0.0209591,-0.0205643 -0.0355651,-0.0299233 -0.0146059,-0.00925944 -0.0305529,-0.0186185 -0.0477236,-0.027974 -0.0156091,-0.00858001 -0.0312181,-0.0175478 -0.0464928,-0.0270989 -0.0153885,-0.00955113 -0.029436,-0.0199809 -0.0420356,-0.0312893 -0.0125997,-0.0113084 -0.0227484,-0.0238796 -0.0305529,-0.0378203 -0.00769426,-0.0139372 -0.0115965,-0.0297277 -0.0115965,-0.0473715 0,-0.0213469 0.00747016,-0.0399653 0.0223038,-0.0558519 0.0147162,-0.0158901 0.0342275,-0.0282692 0.0581996,-0.0371374 0.0240824,-0.0088717 0.0501746,-0.0132578 0.078273,-0.0132578 0.0221864,0 0.0417013,0.00175371 0.0585376,0.00526468 0.016726,0.00350742 0.0345655,0.00886814 0.0535183,0.0161782l0.018622 -0.0214429 0 0.116773c-0.0109278,-0.0333347 -0.0285431,-0.0592632 -0.0530737,-0.0779778 -0.024527,-0.0186185 -0.050733,-0.027974 -0.0786074,-0.027974 -0.0224105,0 -0.0403637,0.00516508 -0.0540768,0.0155948 -0.0136028,0.0103302 -0.0204078,0.0231966 -0.0204078,0.0384037 0,0.0125748 0.00457458,0.0239792 0.0137166,0.0342133 0.00914561,0.0103337 0.0210765,0.0201765 0.0357927,0.0296316 0.0147198,0.00935904 0.0307735,0.0188141 0.0481647,0.0283653 0.0161711,0.0087721 0.0321146,0.0181311 0.0480616,0.0279775 0.0159434,0.00994242 0.0304356,0.0207599 0.0435937,0.0324561 0.0131581,0.0116997 0.023748,0.0247582 0.0318905,0.0392824 0.00802864,0.0144281 0.0120412,0.0307059 0.0120412,0.048837 0,0.0188106 -0.00691523,0.0360631 -0.0207421,0.0517575 -0.0138198,0.0156944 -0.03289,0.0283653 -0.0571965,0.0379164 -0.0241962,0.00945508 -0.0521808,0.0142324 -0.0837369,0.0142324z"/>
  <path id="1234567" class="fil1 str0" d="M1.52162 0.449504c-0.0347896,0 -0.0561969,-0.00994242 -0.0640015,-0.0297277 -0.00457102,0.00379911 -0.0105934,0.00799307 -0.0179533,0.0125712 -0.00735633,0.0045817 -0.0165019,0.00858001 -0.0274261,0.0118953 -0.0109313,0.00331177 -0.0240859,0.00496943 -0.0395847,0.00496943 -0.0286534,0 -0.0524049,-0.00370306 -0.0710234,-0.0110131 -0.018622,-0.00731364 -0.0324489,-0.0173521 -0.041591,-0.0299269 -0.00914205,-0.0126708 -0.0137131,-0.0269032 -0.0137131,-0.0426937 0,-0.0201765 0.00579826,-0.0365504 0.0173912,-0.0490291 0.0117104,-0.0124752 0.0268712,-0.0216386 0.0454933,-0.0273906 0.0186185,-0.00584807 0.0383575,-0.00867605 0.0592063,-0.00867605 0.0185082,0 0.0336726,0.00175727 0.0454933,0.00526468 0.0117068,0.00351097 0.020518,0.00711444 0.026423,0.0107215 0.00590854,0.00360702 0.00903178,0.00584807 0.00947999,0.00682274 -0.000892862,-0.0343094 -0.00468486,-0.0622833 -0.0114827,-0.0839254 -0.00914561,-0.0297277 -0.0249788,-0.0445435 -0.0476134,-0.0445435 -0.0148265,0 -0.0277641,0.00399476 -0.0389124,0.0120874 -0.0111483,0.00808911 -0.0208489,0.0180315 -0.0291016,0.0297277 -0.00825274,0.0116961 -0.0156091,0.0232962 -0.0221899,0.0347007l-0.00747016 0.0122831 -0.0363477 -0.0788564c0.054525,-0.0138411 0.100794,-0.0208595 0.138927,-0.0208595 0.0352342,0 0.0641153,0.00594411 0.0865258,0.0177398 0.0224069,0.0117957 0.0390227,0.0283653 0.0498366,0.0497121 0.0107072,0.0212508 0.0161676,0.0463007 0.0161676,0.0750537l0 0.0665769c0,0.0205678 0.00245448,0.0354797 0.00735988,0.0446431 0.00490896,0.00925944 0.0129376,0.0138411 0.02431,0.0138411 -0.0169501,0.0119878 -0.0363477,0.0180315 -0.0582032,0.0180315zm-0.118861 -0.0183232c0.00914205,0 0.016726,-0.00126993 0.0227448,-0.00380267 0.0059121,-0.00253274 0.0107072,-0.00555637 0.0142751,-0.0088717 0.00367816,-0.00331177 0.00623936,-0.0062358 0.00769426,-0.0086725l0.00234065 -0.00399831 0 -0.0874329 -0.000334378 -0.000291692c-0.000448209,-0.000878633 -0.0021201,-0.00292759 -0.00513307,-0.00614331 -0.00289558,-0.00311968 -0.00735633,-0.00613976 -0.013489,-0.00906379 -0.00612909,-0.00302364 -0.0140475,-0.00448565 -0.0238583,-0.00448565 -0.0089215,0 -0.0177292,0.0025363 -0.0263163,0.00740968 -0.00858712,0.00496943 -0.0156091,0.0122831 -0.0211832,0.0218342 -0.00557772,0.00965073 -0.00836658,0.0217382 -0.00836658,0.0361627 0,0.0207635 0.00523978,0.0371374 0.0157229,0.0492248 0.0103693,0.0120874 0.022414,0.0181311 0.035903,0.0181311z"/>
  <path id="12345678" class="fil1 str0" d="M2.18771 0.449504l-0.184865 0c0.00802864,-0.00175371 0.0152747,-0.00438605 0.0216314,-0.00818872 0.00646346,-0.00370306 0.0115965,-0.00915984 0.0154988,-0.0163739 0.00401254,-0.00721404 0.00590854,-0.0170569 0.00590854,-0.029436l0 -0.0922138c-0.00111697,-0.0383041 -0.00724961,-0.067548 -0.0183979,-0.0879202 -0.0112622,-0.0203722 -0.0272056,-0.0306063 -0.0479442,-0.0306063 -0.0188461,0 -0.0379128,0.00857645 -0.0570898,0.0257329 0.0130443,0.0188106 0.0205145,0.0452265 0.0225207,0.079052l0 0.105955c0,0.0123791 0.00200983,0.0222219 0.0059121,0.029436 0.00390227,0.00721404 0.00914561,0.0126708 0.0156091,0.0163739 0.00658085,0.00380267 0.0137131,0.00643501 0.0216314,0.00818872l-0.184979 0c0.00813891,-0.00175371 0.0153885,-0.00438605 0.0217453,-0.00818872 0.00646702,-0.00370306 0.011593,-0.00915984 0.0154952,-0.0163739 0.0040161,-0.00721404 0.0059121,-0.0170569 0.0059121,-0.029436l0 -0.105955c-0.000448209,-0.0224211 -0.00245448,-0.041719 -0.00602237,-0.0579008 -0.00356789,-0.0161818 -0.00936615,-0.028753 -0.017281,-0.0376247 -0.00802864,-0.0087721 -0.019177,-0.0132578 -0.0335623,-0.0132578 -0.0142751,0 -0.0296601,0.0067267 -0.0460482,0.0202761l0.00200627 0.194462c0,0.0123791 0.001896,0.0222219 0.00590854,0.029436 0.00390227,0.00721404 0.00914205,0.0126708 0.0156126,0.0163739 0.00657374,0.00380267 0.0137131,0.00643501 0.0216314,0.00818872l-0.184982 0c0.00791481,-0.00175371 0.0150541,-0.00438605 0.0216314,-0.00818872 0.00646702,-0.00370306 0.0117068,-0.00915984 0.0156091,-0.0163739 0.0040161,-0.00721404 0.00590854,-0.0170569 0.00590854,-0.029436l-0.00189244 -0.166488c0,-0.0123791 -0.00200983,-0.0221259 -0.0059121,-0.029436 -0.00390227,-0.00721404 -0.00914205,-0.0126708 -0.0157193,-0.0163774 -0.00646702,-0.00370306 -0.0137166,-0.00643145 -0.0215212,-0.00818516 0.0315561,0 0.0580929,-0.000586941 0.0795038,-0.00185331 0.0215176,-0.00117032 0.0422562,-0.0041904 0.0622157,-0.00896775l0 0.0220298c0.00546033,-0.00321572 0.0118171,-0.0066271 0.019177,-0.010042 0.00724605,-0.00341137 0.0157229,-0.0062358 0.0254234,-0.00857645 0.00969698,-0.00224105 0.020735,-0.00341137 0.0332244,-0.00341137 0.0187323,0 0.0357892,0.00282799 0.0513982,0.00848041 0.0156162,0.00555637 0.0288846,0.0142324 0.0400329,0.025829 0.00914205,-0.00613976 0.0186185,-0.0116961 0.0285431,-0.0168612 0.00992108,-0.00516508 0.0208524,-0.00935904 0.03289,-0.0125748 0.0119309,-0.00321572 0.0255337,-0.00487339 0.040812,-0.00487339 0.0395812,0 0.0707993,0.0121835 0.0935477,0.0364544 0.0227448,0.0242709 0.0347896,0.0584842 0.0361271,0.10264l0 0.0922138c0,0.0123791 0.00200627,0.0222219 0.00590854,0.029436 0.00390227,0.00721404 0.00914205,0.0126708 0.0156091,0.0163739 0.00658085,0.00380267 0.0137166,0.00643501 0.0216314,0.00818872z"/>
  <path id="123456789" class="fil1 str0" d="M2.49345 0.449504c-0.0347896,0 -0.0561969,-0.00994242 -0.0640015,-0.0297277 -0.00457102,0.00379911 -0.0105934,0.00799307 -0.0179533,0.0125712 -0.00735633,0.0045817 -0.0165019,0.00858001 -0.0274261,0.0118953 -0.0109313,0.00331177 -0.0240859,0.00496943 -0.0395847,0.00496943 -0.0286534,0 -0.0524049,-0.00370306 -0.0710234,-0.0110131 -0.018622,-0.00731364 -0.0324489,-0.0173521 -0.041591,-0.0299269 -0.00914205,-0.0126708 -0.0137131,-0.0269032 -0.0137131,-0.0426937 0,-0.0201765 0.00579826,-0.0365504 0.0173912,-0.0490291 0.0117104,-0.0124752 0.0268712,-0.0216386 0.0454933,-0.0273906 0.0186185,-0.00584807 0.0383575,-0.00867605 0.0592063,-0.00867605 0.0185082,0 0.0336726,0.00175727 0.0454933,0.00526468 0.0117068,0.00351097 0.020518,0.00711444 0.026423,0.0107215 0.00590854,0.00360702 0.00903178,0.00584807 0.00947999,0.00682274 -0.000892862,-0.0343094 -0.00468486,-0.0622833 -0.0114827,-0.0839254 -0.00914561,-0.0297277 -0.0249788,-0.0445435 -0.0476134,-0.0445435 -0.0148265,0 -0.0277641,0.00399476 -0.0389124,0.0120874 -0.0111483,0.00808911 -0.0208489,0.0180315 -0.0291016,0.0297277 -0.00825274,0.0116961 -0.0156091,0.0232962 -0.0221899,0.0347007l-0.00747016 0.0122831 -0.0363477 -0.0788564c0.054525,-0.0138411 0.100794,-0.0208595 0.138927,-0.0208595 0.0352342,0 0.0641153,0.00594411 0.0865258,0.0177398 0.0224069,0.0117957 0.0390227,0.0283653 0.0498366,0.0497121 0.0107072,0.0212508 0.0161676,0.0463007 0.0161676,0.0750537l0 0.0665769c0,0.0205678 0.00245448,0.0354797 0.00735988,0.0446431 0.00490896,0.00925944 0.0129376,0.0138411 0.02431,0.0138411 -0.0169501,0.0119878 -0.0363477,0.0180315 -0.0582032,0.0180315zm-0.118861 -0.0183232c0.00914205,0 0.016726,-0.00126993 0.0227448,-0.00380267 0.0059121,-0.00253274 0.0107072,-0.00555637 0.0142751,-0.0088717 0.00367816,-0.00331177 0.00623936,-0.0062358 0.00769426,-0.0086725l0.00234065 -0.00399831 0 -0.0874329 -0.000334378 -0.000291692c-0.000448209,-0.000878633 -0.0021201,-0.00292759 -0.00513307,-0.00614331 -0.00289558,-0.00311968 -0.00735633,-0.00613976 -0.013489,-0.00906379 -0.00612909,-0.00302364 -0.0140475,-0.00448565 -0.0238583,-0.00448565 -0.0089215,0 -0.0177292,0.0025363 -0.0263163,0.00740968 -0.00858712,0.00496943 -0.0156091,0.0122831 -0.0211832,0.0218342 -0.00557772,0.00965073 -0.00836658,0.0217382 -0.00836658,0.0361627 0,0.0207635 0.00523978,0.0371374 0.0157229,0.0492248 0.0103693,0.0120874 0.022414,0.0181311 0.035903,0.0181311z"/>
  <path id="12345678910" class="fil1 str0" d="M2.96152 0.449504l-0.184865 0c0.00780454,-0.00175371 0.0150541,-0.00448209 0.0215212,-0.00828476 0.0065773,-0.00380267 0.0118171,-0.00945508 0.0157193,-0.0169608 0.00390227,-0.00760177 0.0059121,-0.0178359 0.0059121,-0.0309976l0 -0.0742747c0,-0.0439601 -0.00512951,-0.0779778 -0.0151644,-0.101957 -0.0101487,-0.0239792 -0.0258681,-0.035967 -0.0472754,-0.035967 -0.0158332,0 -0.0312217,0.0063354 -0.0460482,0.0191023l0 0.193096c0,0.0235915 0.00724605,0.039574 0.0216314,0.0479584 0.00646346,0.00380267 0.0137131,0.00653105 0.0215176,0.00828476l-0.184869 0c0.00780454,-0.00175371 0.0149439,-0.00448209 0.0215212,-0.00828476 0.0065773,-0.00380267 0.0118171,-0.00945508 0.0157193,-0.0169608 0.00390227,-0.00760177 0.00579826,-0.0178359 0.00579826,-0.0309976l0 -0.164244c0,-0.0123791 -0.001896,-0.0221259 -0.00579826,-0.0292403 -0.00390227,-0.00711799 -0.00914205,-0.0125748 -0.0157193,-0.0162778 -0.0065773,-0.00370662 -0.0137166,-0.00643501 -0.0215212,-0.00818872 0.0315561,0 0.0580929,-0.000586941 0.0795003,-0.00185331 0.0214109,-0.00117032 0.0421459,-0.0041904 0.0622193,-0.00896775l0 0.0220298c0.00914205,-0.00613976 0.0197354,-0.0113084 0.0316664,-0.0155948 0.0120376,-0.00429 0.0273159,-0.00643501 0.0460482,-0.00643501 0.0244167,0 0.0463826,0.00575202 0.0658939,0.0172525 0.0195149,0.0116001 0.0348999,0.0277819 0.0463826,0.0487374 0.0113724,0.0209591 0.0171742,0.0456178 0.0171742,0.073983l0 0.0887988c0,0.0131617 0.001896,0.0233958 0.00579826,0.0309976 0.00390227,0.00750573 0.00914205,0.0131581 0.0154988,0.0169608 0.00646346,0.00380267 0.0137131,0.00653105 0.0217382,0.00828476z"/>
  <path id="1234567891011" class="fil1 str0" d="M3.13167 0.449504c-0.0295462,0 -0.0555282,-0.00555637 -0.0778248,-0.0166691 -0.0223038,-0.0112088 -0.0396985,-0.0271949 -0.0521844,-0.0481505 -0.0123756,-0.0209556 -0.018622,-0.0460091 -0.018622,-0.0751533 0,-0.03236 0.00658085,-0.0593628 0.0195149,-0.0809018 0.0129305,-0.0216421 0.0299945,-0.0378203 0.0512915,-0.0485418 0.0211832,-0.0108211 0.0442625,-0.0161818 0.0690136,-0.0161818 0.0278779,0 0.0527393,0.00731008 0.0744846,0.0220298l0 -0.0973788c0,-0.0123791 -0.001896,-0.0221259 -0.00579826,-0.0292403 -0.0040161,-0.00721404 -0.00914205,-0.0126744 -0.0157229,-0.0164735 -0.0065773,-0.00380267 -0.0138269,-0.00653105 -0.0218555,-0.00828476 0.0317802,0 0.0583206,-0.000586941 0.0797279,-0.00165766 0.0212935,-0.00117032 0.0419218,-0.00409436 0.0619916,-0.0088717l0.000334378 0.4246 -0.0865258 -0.0359706 -0.00390227 0.00575202c-0.00245092,0.00360702 -0.00669113,0.00779742 -0.0125997,0.0126708 -0.00601881,0.00487339 -0.0139336,0.00916339 -0.0238583,0.0128665 -0.00992464,0.00370662 -0.022414,0.00555637 -0.0374646,0.00555637zm0.0183944 -0.0125748c0.00802864,0 0.0156162,-0.00165411 0.0228622,-0.00487339 0.00713222,-0.00321572 0.0130443,-0.00799307 0.0176153,-0.0144245 0.00457102,-0.0063354 0.0068014,-0.0144281 0.0068014,-0.0240752l0 -0.193096c-0.00735988,-0.00663065 -0.0154988,-0.0116001 -0.0243065,-0.0150115 -0.00881123,-0.00331533 -0.0177292,-0.00497299 -0.0266507,-0.00497299 -0.0108139,0 -0.0207386,0.00467774 -0.0295427,0.0140368 -0.00881123,0.00925944 -0.0158367,0.0234919 -0.0210765,0.0424981 -0.00523978,0.0191058 -0.00780809,0.0432807 -0.00780809,0.072521 0,0.0421103 0.00546744,0.073887 0.0162814,0.0952338 0.0109278,0.0214429 0.026206,0.0321644 0.0458241,0.0321644z"/>
  <path class="fil0" d="M3.61836 0.363267c0,0.00974678 -0.00292403,0.0200805 -0.0087721,0.0311932 -0.00575202,0.0110131 -0.0146237,0.0215425 -0.0265155,0.031581 -0.0118918,0.00994242 -0.0269032,0.0180315 -0.0450308,0.0240752 -0.0180351,0.00613976 -0.0384073,0.00916339 -0.0610205,0.00916339 -0.0482501,0 -0.0857752,-0.0140368 -0.112874,-0.0421103 -0.0269993,-0.02807 -0.0405487,-0.0656983 -0.0405487,-0.11297 0,-0.0319723 0.00613976,-0.0602415 0.0185189,-0.0848041 0.0123791,-0.0245626 0.0303146,-0.0435724 0.0537069,-0.0569262 0.0234919,-0.0134498 0.0514694,-0.0201765 0.084025,-0.0201765 0.0201765,0 0.0386954,0.00292403 0.0555602,0.0088717 0.0167652,0.00584807 0.0310936,0.0134498 0.0427898,0.0228089 0.0116961,0.00935548 0.0206639,0.0192979 0.0268072,0.0298273 0.0062358,0.0106254 0.00935548,0.0204682 0.00935548,0.029532 0,0.00935904 -0.00350742,0.0172561 -0.0104298,0.0237871 -0.00701839,0.00643145 -0.0153992,0.00964717 -0.0253416,0.00964717 -0.00643501,0 -0.0117957,-0.00165766 -0.0160822,-0.00496943 -0.00429,-0.00331533 -0.00906735,-0.0087721 -0.0144281,-0.0161818 -0.00955113,-0.0144245 -0.0194936,-0.0252456 -0.0298273,-0.0325557 -0.0104298,-0.00721404 -0.0235879,-0.0108211 -0.039574,-0.0108211 -0.0230045,0 -0.041623,0.00896775 -0.0556562,0.0270028 -0.0141364,0.0179355 -0.0211548,0.0425941 -0.0211548,0.0737874 0,0.0147162 0.00185331,0.0281696 0.00546033,0.0404527 0.00360702,0.0122795 0.0087721,0.0227093 0.0156944,0.0313853 0.00682274,0.00867605 0.0151075,0.0152071 0.0248543,0.0196892 0.00965073,0.00448565 0.0203722,0.0067267 0.0319723,0.0067267 0.0155948,0 0.0289486,-0.00360702 0.0400614,-0.0108211 0.0112088,-0.00731008 0.0210552,-0.0183232 0.0296316,-0.033139 0.00467774,-0.00877566 0.00984638,-0.0155984 0.0154028,-0.0205678 0.00545677,-0.00497299 0.0122795,-0.00740968 0.0202726,-0.00740968 0.00955469,0 0.0174482,0.00360702 0.0236875,0.0108211 0.00623936,0.00721404 0.00945508,0.0149119 0.00945508,0.0231006z"/>
  <path id="1" class="fil0" d="M3.88329 0.415903c-0.0189066,0.0146202 -0.0371374,0.0256369 -0.0546815,0.0329469 -0.0176438,0.00731008 -0.037429,0.0110131 -0.0592632,0.0110131 -0.0200805,0 -0.0376247,-0.00399476 -0.0527358,-0.0118918 -0.0151075,-0.00789347 -0.0268036,-0.0185189 -0.0349924,-0.0320683 -0.00818872,-0.0135494 -0.0122831,-0.0281696 -0.0122831,-0.0439601 0,-0.0213469 0.0067267,-0.039478 0.0202761,-0.0545855 0.0135494,-0.0150115 0.0320683,-0.0251495 0.0557558,-0.0302186 0.00487339,-0.00117032 0.0171565,-0.00370306 0.0368457,-0.00769782 0.0195932,-0.00409436 0.0363583,-0.00770138 0.0503951,-0.0110167 0.0139372,-0.00341137 0.0291443,-0.00740613 0.0455182,-0.0121835 -0.000974678,-0.0205678 -0.00506904,-0.0356753 -0.0123791,-0.04523 -0.00740613,-0.00964717 -0.0225172,-0.0144245 -0.0456178,-0.0144245 -0.0197852,0 -0.0347007,0.00272839 -0.0446431,0.00828476 -0.0100385,0.00555637 -0.0186185,0.0137451 -0.0257329,0.0248578 -0.00711444,0.0110131 -0.0121835,0.0183232 -0.0151075,0.0218342 -0.00302364,0.00350742 -0.00935904,0.00526112 -0.0190098,0.00526112 -0.0087721,0 -0.0163739,-0.00282443 -0.0227093,-0.00848041 -0.00643501,-0.00555637 -0.00955469,-0.0127669 -0.00955469,-0.021539 0,-0.013649 0.00477734,-0.0270028 0.0145241,-0.0399653 0.00974678,-0.0129661 0.0248578,-0.0235879 0.0454221,-0.0319723 0.0205678,-0.00838436 0.0461051,-0.0125748 0.076811,-0.0125748 0.0343129,0 0.0612126,0.00409436 0.0808058,0.0121835 0.0195932,0.00809267 0.0334343,0.0208595 0.0415234,0.0384073 0.00809267,0.0174482 0.012187,0.0407444 0.012187,0.069693 0,0.0182272 -9.96021e-005,0.033822 -0.000195647,0.0464964 -9.96021e-005,0.0127669 -0.000195647,0.0269993 -0.000391294,0.0425941 0,0.0146237 0.00243669,0.0299269 0.00731008,0.0458134 0.00487339,0.0158901 0.00721404,0.0261242 0.00721404,0.0307059 0,0.00799307 -0.00370306,0.0153032 -0.0112088,0.0218342 -0.00750573,0.00653105 -0.0160822,0.00984282 -0.0255373,0.00984282 -0.00799307,0 -0.0158901,-0.00379911 -0.0236875,-0.0113048 -0.00789702,-0.00750573 -0.0160822,-0.0183268 -0.0248578,-0.0326553zm-0.00516508 -0.112778c-0.0114044,0.0041904 -0.0280736,0.00858001 -0.0498082,0.0132578 -0.0218342,0.00467774 -0.0369417,0.00808911 -0.0453261,0.0103302 -0.00838436,0.002145 -0.0163774,0.00643501 -0.0239792,0.0128665 -0.00760177,0.00633896 -0.0114044,0.0152071 -0.0114044,0.0266115 0,0.0118918 0.00448565,0.0219338 0.0134534,0.0302186 0.00896775,0.00828476 0.0206639,0.0123791 0.0350884,0.0123791 0.0154028,0 0.0296316,-0.00341137 0.0426937,-0.0101381 0.0130621,-0.0067267 0.0226132,-0.0154988 0.0287565,-0.0261242 0.00701839,-0.0117922 0.0105258,-0.0311897 0.0105258,-0.0582886l0 -0.0111127z"/>
  <path id="12" class="fil0" d="M4.11109 0.34728l0 0.0652109c0,0.0157905 -0.00370306,0.0275862 -0.0111127,0.0354797 -0.00740613,0.00789702 -0.0168612,0.0118918 -0.0282657,0.0118918 -0.0113084,0 -0.0204718,-0.00399476 -0.0277819,-0.0119878 -0.00721404,-0.00799307 -0.0108175,-0.0197888 -0.0108175,-0.0353836l0 -0.217076c0,-0.0349924 0.0126708,-0.0525365 0.0380124,-0.0525365 0.0129661,0 0.0222255,0.0040908 0.0279775,0.0122795 0.00574846,0.00818872 0.00886814,0.0202761 0.00945508,0.0362623 0.00925944,-0.0159861 0.0188106,-0.0280736 0.0286569,-0.0362623 0.00984282,-0.00818872 0.0229049,-0.0122795 0.0392824,-0.0122795 0.0163739,0 0.032264,0.0040908 0.0476632,0.0122795 0.0154028,0.00818872 0.0231006,0.0190098 0.0231006,0.0325557 0,0.00945508 -0.00321572,0.0173521 -0.00984282,0.0234919 -0.00653105,0.00623936 -0.0136455,0.00925944 -0.0212508,0.00925944 -0.00282443,0 -0.00974678,-0.00175371 -0.0206639,-0.00526112 -0.0110131,-0.00351097 -0.0206639,-0.00526468 -0.0290482,-0.00526468 -0.0114044,0 -0.0207599,0.00302008 -0.027974,0.00896775 -0.00721404,0.00604371 -0.0128665,0.0149119 -0.0168648,0.0267076 -0.00399476,0.0117957 -0.00672314,0.0258325 -0.00828476,0.0422064 -0.00146202,0.0162778 -0.00224105,0.0360666 -0.00224105,0.0594589z"/>
  <path id="123" class="fil0" d="M4.30126 0.149798l0.00857645 0 0 -0.0468841c0,-0.0125748 0.000291692,-0.0224211 0.000974678,-0.0295356 0.000682986,-0.00721404 0.00253274,-0.0133538 0.00555637,-0.0184228 0.00311968,-0.00536073 0.00750573,-0.00965073 0.0131581,-0.0130621 0.00575202,-0.00331177 0.0120874,-0.00496943 0.0192019,-0.00496943 0.00984638,0 0.0188141,0.00370306 0.0268072,0.0111127 0.00536073,0.00496943 0.00867605,0.0110131 0.0101381,0.0181276 0.00146202,0.00721404 0.00214145,0.0173521 0.00214145,0.0305103l0 0.0531235 0.0285609 0c0.0110167,0 0.0194971,0.00263234 0.0252456,0.00789702 0.00584807,0.00516508 0.0087721,0.0118918 0.0087721,0.0200769 0,0.0104298 -0.0041904,0.0178394 -0.0124752,0.0220298 -0.00828476,0.00419396 -0.0200805,0.00623936 -0.0355793,0.00623936l-0.0145241 0 0 0.143288c0,0.0121835 0.000391294,0.0216386 0.00126993,0.0281696 0.000875076,0.00653105 0.00311968,0.0118918 0.00682274,0.0159861 0.00379911,0.00409436 0.00984282,0.00613976 0.0182272,0.00613976 0.00448209,0 0.0107215,-0.000779031 0.0185189,-0.00243669 0.00779742,-0.00165766 0.0139407,-0.00243669 0.0182272,-0.00243669 0.00633896,0 0.0119914,0.00253274 0.0170604,0.00760177 0.00506904,0.00506904 0.00750573,0.0112088 0.00750573,0.0187145 0,0.0125748 -0.00682274,0.0221295 -0.0205678,0.0287565 -0.0136455,0.0067267 -0.0333347,0.0100385 -0.0590712,0.0100385 -0.0243669,0 -0.0428858,-0.00409436 -0.0553645,-0.0122795 -0.0125748,-0.00818872 -0.0208595,-0.0194971 -0.0247582,-0.0340212 -0.00389871,-0.0144245 -0.00584807,-0.033726 -0.00584807,-0.0578973l0 -0.149624 -0.0102341 0c-0.0113084,0 -0.0198848,-0.00263234 -0.0257329,-0.00799307 -0.00594767,-0.00536073 -0.0088717,-0.0120874 -0.0088717,-0.0202761 0,-0.00818516 0.00311968,-0.0149119 0.00925944,-0.0200769 0.00623936,-0.00526468 0.0152071,-0.00789702 0.0270028,-0.00789702z"/>
  <path id="1234" class="fil1 str0" d="M3.61836 0.363267c0,0.00974678 -0.00292403,0.0200805 -0.0087721,0.0311932 -0.00575202,0.0110131 -0.0146237,0.0215425 -0.0265155,0.031581 -0.0118918,0.00994242 -0.0269032,0.0180315 -0.0450308,0.0240752 -0.0180351,0.00613976 -0.0384073,0.00916339 -0.0610205,0.00916339 -0.0482501,0 -0.0857752,-0.0140368 -0.112874,-0.0421103 -0.0269993,-0.02807 -0.0405487,-0.0656983 -0.0405487,-0.11297 0,-0.0319723 0.00613976,-0.0602415 0.0185189,-0.0848041 0.0123791,-0.0245626 0.0303146,-0.0435724 0.0537069,-0.0569262 0.0234919,-0.0134498 0.0514694,-0.0201765 0.084025,-0.0201765 0.0201765,0 0.0386954,0.00292403 0.0555602,0.0088717 0.0167652,0.00584807 0.0310936,0.0134498 0.0427898,0.0228089 0.0116961,0.00935548 0.0206639,0.0192979 0.0268072,0.0298273 0.0062358,0.0106254 0.00935548,0.0204682 0.00935548,0.029532 0,0.00935904 -0.00350742,0.0172561 -0.0104298,0.0237871 -0.00701839,0.00643145 -0.0153992,0.00964717 -0.0253416,0.00964717 -0.00643501,0 -0.0117957,-0.00165766 -0.0160822,-0.00496943 -0.00429,-0.00331533 -0.00906735,-0.0087721 -0.0144281,-0.0161818 -0.00955113,-0.0144245 -0.0194936,-0.0252456 -0.0298273,-0.0325557 -0.0104298,-0.00721404 -0.0235879,-0.0108211 -0.039574,-0.0108211 -0.0230045,0 -0.041623,0.00896775 -0.0556562,0.0270028 -0.0141364,0.0179355 -0.0211548,0.0425941 -0.0211548,0.0737874 0,0.0147162 0.00185331,0.0281696 0.00546033,0.0404527 0.00360702,0.0122795 0.0087721,0.0227093 0.0156944,0.0313853 0.00682274,0.00867605 0.0151075,0.0152071 0.0248543,0.0196892 0.00965073,0.00448565 0.0203722,0.0067267 0.0319723,0.0067267 0.0155948,0 0.0289486,-0.00360702 0.0400614,-0.0108211 0.0112088,-0.00731008 0.0210552,-0.0183232 0.0296316,-0.033139 0.00467774,-0.00877566 0.00984638,-0.0155984 0.0154028,-0.0205678 0.00545677,-0.00497299 0.0122795,-0.00740968 0.0202726,-0.00740968 0.00955469,0 0.0174482,0.00360702 0.0236875,0.0108211 0.00623936,0.00721404 0.00945508,0.0149119 0.00945508,0.0231006z"/>
  <path id="12345" class="fil1 str0" d="M3.88329 0.415903c-0.0189066,0.0146202 -0.0371374,0.0256369 -0.0546815,0.0329469 -0.0176438,0.00731008 -0.037429,0.0110131 -0.0592632,0.0110131 -0.0200805,0 -0.0376247,-0.00399476 -0.0527358,-0.0118918 -0.0151075,-0.00789347 -0.0268036,-0.0185189 -0.0349924,-0.0320683 -0.00818872,-0.0135494 -0.0122831,-0.0281696 -0.0122831,-0.0439601 0,-0.0213469 0.0067267,-0.039478 0.0202761,-0.0545855 0.0135494,-0.0150115 0.0320683,-0.0251495 0.0557558,-0.0302186 0.00487339,-0.00117032 0.0171565,-0.00370306 0.0368457,-0.00769782 0.0195932,-0.00409436 0.0363583,-0.00770138 0.0503951,-0.0110167 0.0139372,-0.00341137 0.0291443,-0.00740613 0.0455182,-0.0121835 -0.000974678,-0.0205678 -0.00506904,-0.0356753 -0.0123791,-0.04523 -0.00740613,-0.00964717 -0.0225172,-0.0144245 -0.0456178,-0.0144245 -0.0197852,0 -0.0347007,0.00272839 -0.0446431,0.00828476 -0.0100385,0.00555637 -0.0186185,0.0137451 -0.0257329,0.0248578 -0.00711444,0.0110131 -0.0121835,0.0183232 -0.0151075,0.0218342 -0.00302364,0.00350742 -0.00935904,0.00526112 -0.0190098,0.00526112 -0.0087721,0 -0.0163739,-0.00282443 -0.0227093,-0.00848041 -0.00643501,-0.00555637 -0.00955469,-0.0127669 -0.00955469,-0.021539 0,-0.013649 0.00477734,-0.0270028 0.0145241,-0.0399653 0.00974678,-0.0129661 0.0248578,-0.0235879 0.0454221,-0.0319723 0.0205678,-0.00838436 0.0461051,-0.0125748 0.076811,-0.0125748 0.0343129,0 0.0612126,0.00409436 0.0808058,0.0121835 0.0195932,0.00809267 0.0334343,0.0208595 0.0415234,0.0384073 0.00809267,0.0174482 0.012187,0.0407444 0.012187,0.069693 0,0.0182272 -9.96021e-005,0.033822 -0.000195647,0.0464964 -9.96021e-005,0.0127669 -0.000195647,0.0269993 -0.000391294,0.0425941 0,0.0146237 0.00243669,0.0299269 0.00731008,0.0458134 0.00487339,0.0158901 0.00721404,0.0261242 0.00721404,0.0307059 0,0.00799307 -0.00370306,0.0153032 -0.0112088,0.0218342 -0.00750573,0.00653105 -0.0160822,0.00984282 -0.0255373,0.00984282 -0.00799307,0 -0.0158901,-0.00379911 -0.0236875,-0.0113048 -0.00789702,-0.00750573 -0.0160822,-0.0183268 -0.0248578,-0.0326553zm-0.00516508 -0.112778c-0.0114044,0.0041904 -0.0280736,0.00858001 -0.0498082,0.0132578 -0.0218342,0.00467774 -0.0369417,0.00808911 -0.0453261,0.0103302 -0.00838436,0.002145 -0.0163774,0.00643501 -0.0239792,0.0128665 -0.00760177,0.00633896 -0.0114044,0.0152071 -0.0114044,0.0266115 0,0.0118918 0.00448565,0.0219338 0.0134534,0.0302186 0.00896775,0.00828476 0.0206639,0.0123791 0.0350884,0.0123791 0.0154028,0 0.0296316,-0.00341137 0.0426937,-0.0101381 0.0130621,-0.0067267 0.0226132,-0.0154988 0.0287565,-0.0261242 0.00701839,-0.0117922 0.0105258,-0.0311897 0.0105258,-0.0582886l0 -0.0111127z"/>
  <path id="123456" class="fil1 str0" d="M4.11109 0.34728l0 0.0652109c0,0.0157905 -0.00370306,0.0275862 -0.0111127,0.0354797 -0.00740613,0.00789702 -0.0168612,0.0118918 -0.0282657,0.0118918 -0.0113084,0 -0.0204718,-0.00399476 -0.0277819,-0.0119878 -0.00721404,-0.00799307 -0.0108175,-0.0197888 -0.0108175,-0.0353836l0 -0.217076c0,-0.0349924 0.0126708,-0.0525365 0.0380124,-0.0525365 0.0129661,0 0.0222255,0.0040908 0.0279775,0.0122795 0.00574846,0.00818872 0.00886814,0.0202761 0.00945508,0.0362623 0.00925944,-0.0159861 0.0188106,-0.0280736 0.0286569,-0.0362623 0.00984282,-0.00818872 0.0229049,-0.0122795 0.0392824,-0.0122795 0.0163739,0 0.032264,0.0040908 0.0476632,0.0122795 0.0154028,0.00818872 0.0231006,0.0190098 0.0231006,0.0325557 0,0.00945508 -0.00321572,0.0173521 -0.00984282,0.0234919 -0.00653105,0.00623936 -0.0136455,0.00925944 -0.0212508,0.00925944 -0.00282443,0 -0.00974678,-0.00175371 -0.0206639,-0.00526112 -0.0110131,-0.00351097 -0.0206639,-0.00526468 -0.0290482,-0.00526468 -0.0114044,0 -0.0207599,0.00302008 -0.027974,0.00896775 -0.00721404,0.00604371 -0.0128665,0.0149119 -0.0168648,0.0267076 -0.00399476,0.0117957 -0.00672314,0.0258325 -0.00828476,0.0422064 -0.00146202,0.0162778 -0.00224105,0.0360666 -0.00224105,0.0594589z"/>
  <path id="1234567" class="fil1 str0" d="M4.30126 0.149798l0.00857645 0 0 -0.0468841c0,-0.0125748 0.000291692,-0.0224211 0.000974678,-0.0295356 0.000682986,-0.00721404 0.00253274,-0.0133538 0.00555637,-0.0184228 0.00311968,-0.00536073 0.00750573,-0.00965073 0.0131581,-0.0130621 0.00575202,-0.00331177 0.0120874,-0.00496943 0.0192019,-0.00496943 0.00984638,0 0.0188141,0.00370306 0.0268072,0.0111127 0.00536073,0.00496943 0.00867605,0.0110131 0.0101381,0.0181276 0.00146202,0.00721404 0.00214145,0.0173521 0.00214145,0.0305103l0 0.0531235 0.0285609 0c0.0110167,0 0.0194971,0.00263234 0.0252456,0.00789702 0.00584807,0.00516508 0.0087721,0.0118918 0.0087721,0.0200769 0,0.0104298 -0.0041904,0.0178394 -0.0124752,0.0220298 -0.00828476,0.00419396 -0.0200805,0.00623936 -0.0355793,0.00623936l-0.0145241 0 0 0.143288c0,0.0121835 0.000391294,0.0216386 0.00126993,0.0281696 0.000875076,0.00653105 0.00311968,0.0118918 0.00682274,0.0159861 0.00379911,0.00409436 0.00984282,0.00613976 0.0182272,0.00613976 0.00448209,0 0.0107215,-0.000779031 0.0185189,-0.00243669 0.00779742,-0.00165766 0.0139407,-0.00243669 0.0182272,-0.00243669 0.00633896,0 0.0119914,0.00253274 0.0170604,0.00760177 0.00506904,0.00506904 0.00750573,0.0112088 0.00750573,0.0187145 0,0.0125748 -0.00682274,0.0221295 -0.0205678,0.0287565 -0.0136455,0.0067267 -0.0333347,0.0100385 -0.0590712,0.0100385 -0.0243669,0 -0.0428858,-0.00409436 -0.0553645,-0.0122795 -0.0125748,-0.00818872 -0.0208595,-0.0194971 -0.0247582,-0.0340212 -0.00389871,-0.0144245 -0.00584807,-0.033726 -0.00584807,-0.0578973l0 -0.149624 -0.0102341 0c-0.0113084,0 -0.0198848,-0.00263234 -0.0257329,-0.00799307 -0.00594767,-0.00536073 -0.0088717,-0.0120874 -0.0088717,-0.0202761 0,-0.00818516 0.00311968,-0.0149119 0.00925944,-0.0200769 0.00623936,-0.00526468 0.0152071,-0.00789702 0.0270028,-0.00789702z"/>
  <path class="fil2 str1" d="M0.479694 0.452812c0.00525401,0.00748794 0.00550302,-0.000423309 0.00443229,-0.007616 -0.000832389,-0.0055955 -0.00470264,-0.0100242 0.00677294,-0.011159 0.00105294,-0.000103159 0.00211299,-0.00021699 0.0031766,-0.000337936 0.0330252,-0.00374575 0.0712902,-0.0152996 0.0966745,-0.0242104 0.0144067,-0.00505481 0.0279384,-0.00761245 0.0401645,-0.00798595 0.00112052,-3.55722e-005 0.00223038,-4.9801e-005 0.003326,-4.9801e-005 0.0014798,3.55722e-006 0.00283155,2.13433e-005 0.00406234,5.69155e-005 0.00808556,0.000231219 -0.00748794,0.00870807 -0.00726028,0.0106254 0.000288135,0.00246871 0.0145917,-0.000992464 0.0109882,0.00519709 -0.00299518,0.00514374 -0.00556705,0.0117566 -0.00477734,0.0201374 -0.00453545,-0.00861914 -0.000750573,-0.0107926 0.000711444,-0.0102732 0.000661642,0.000238334 0.00802153,0.00104938 0.00129127,0.00203117 -0.00143712,0.000209876 -0.00310189,0.000426866 -0.00502279,0.000650971 -0.00125214,0.000145846 -0.00251495,0.000305921 -0.00379199,0.000487339 -0.0109064,0.0015296 -0.0228302,0.00432558 -0.0355081,0.00853732 -0.0326232,0.010846 -0.0693159,0.0218449 -0.100306,0.0207493 -0.00262523,-9.24877e-005 -0.00521132,-0.000273906 -0.00775118,-0.000547812 -0.00137664,-0.000149403 -0.00258254,-0.00021699 -0.00363192,-0.00021699 -0.00315525,-3.55722e-006 0.00163632,0.00453545 0.00079326,0.00536428 -0.00371729,0.00364971 0.00385958,0.00782232 -0.00434336,-0.01144z"/>
  <path class="fil2 str1" d="M0.013898 0.130582c0.238369,-0.0530132 0.286797,0.0333276 0.428253,-0.00243669 0.138707,-0.0350671 0.280693,-0.0426546 0.329068,0.0669397 -0.0333418,-0.0736486 -0.189504,-0.0489473 -0.306451,-0.0190525 -0.0455431,0.0116428 -0.118526,0.0366073 -0.161829,0.0218306 -0.0531946,-0.0181454 -0.117082,-0.102238 -0.273675,-0.0273123 -0.000974678,0.000465996 -0.00188177,0.00152605 -0.00294182,0.00141933 -0.0344019,-0.000156518 -0.0278672,-0.0395136 -0.0124254,-0.0413882z"/>
  <path class="fil2 str1" d="M0.189411 0.20232c0.0416515,0.0773873 0.179202,0.055923 0.285051,0.0237444 0.128277,-0.0389978 0.278601,-0.0471865 0.319143,0.06615 -0.0407835,-0.0718843 -0.181859,-0.0548132 -0.296444,-0.0179853 -0.211665,0.0680211 -0.277125,0.0167296 -0.307749,-0.0719092z"/>
  <path class="fil2 str1" d="M0.279192 0.323497c0.0449526,0.0554819 0.143978,0.028383 0.231593,0.00379911 0.105781,-0.0296779 0.210079,-0.0512808 0.257404,0.0402499 -0.0216563,-0.0372156 -0.15227,-0.0334129 -0.24612,-0.00269637 -0.165514,0.0541729 -0.216716,0.0199418 -0.242876,-0.0413527z"/>
  <path class="fil2 str1" d="M0.375713 0.0424554c0.0252136,0.0323316 0.0808627,0.020301 0.131834,0.00833812 0.0615363,-0.0144459 0.134651,-0.0321893 0.14697,0.0196607 -0.0145917,-0.0279562 -0.082965,-0.00832745 -0.13807,0.00541409 -0.0955433,0.0238227 -0.129625,0.00640299 -0.140734,-0.0334129z"/>
  <path class="fil2" d="M3.71003 0c0.0454684,0.0680923 0.158072,0.0522911 0.261345,0.0359421 0.12468,-0.019739 0.27291,-0.0443478 0.289839,0.0607217 -0.024961,-0.057819 -0.164023,-0.028753 -0.275791,-0.00947287 -0.19379,0.0334343 -0.259111,-0.0062607 -0.275393,-0.087191z"/>
  <ellipse class="fil3 str2" cx="0.448008" cy="0.453515" rx="0.038147" ry="0.0359583"/>
  <ellipse class="fil3 str2" cx="0.67124" cy="0.421687" rx="0.0399017" ry="0.0376123"/>
 </g>
</svg>
