<?xml version="1.0" encoding="UTF-8"?>
<!DOCTYPE svg PUBLIC "-//W3C//DTD SVG 1.1//EN" "http://www.w3.org/Graphics/SVG/1.1/DTD/svg11.dtd">
<!-- Creator: CorelDRAW -->
<svg xmlns="http://www.w3.org/2000/svg" xml:space="preserve" width="3.9987in" height="0.435264in" style="shape-rendering:geometricPrecision; text-rendering:geometricPrecision; image-rendering:optimizeQuality; fill-rule:evenodd; clip-rule:evenodd"
viewBox="0 0 3.77095 0.410473"
 xmlns:xlink="http://www.w3.org/1999/xlink">
 <defs>
  <style type="text/css">
   <![CDATA[
    .str1 {stroke:#E14D2A;stroke-width:0.00282914}
    .str0 {stroke:#0008C2;stroke-width:0.00654562}
    .str2 {stroke:#E14D2A;stroke-width:0.0261936}
    .fil3 {fill:none}
    .fil1 {fill:none;fill-rule:nonzero}
    .fil2 {fill:#E14D2A}
    .fil0 {fill:#0008C2;fill-rule:nonzero}
   ]]>
  </style>
 </defs>
 <g id="Layer_x0020_1">
  <metadata id="CorelCorpID_0Corel-Layer"/>
  <path class="fil0" d="M0.847794 0.382962c-0.0428677,0 -0.0822194,-0.00606668 -0.118055,-0.0182817l-0.0161617 0.0182817 0 -0.112516c0.00570282,0.0183671 0.0152075,0.0353196 0.0285178,0.0509393 0.0133066,0.0155417 0.0290896,0.0281725 0.0473379,0.0378109 0.0183448,0.00972376 0.0376401,0.0145429 0.058079,0.0145429 0.0124527,0 0.0233831,-0.00232791 0.0326984,-0.00681666 0.00940817,-0.00457043 0.0167261,-0.01047 0.0218608,-0.0176988 0.00522759,-0.00722877 0.00779312,-0.0148734 0.00779312,-0.0230192 0,-0.0109675 -0.0038947,-0.0210217 -0.0116915,-0.0299955 -0.00779312,-0.00905917 -0.0178659,-0.0175354 -0.0303185,-0.0255105 -0.0124527,-0.00789707 -0.0260488,-0.0158721 -0.0406846,-0.0238509 -0.0133066,-0.00731046 -0.0266169,-0.0149588 -0.0396376,-0.0231009 -0.0131172,-0.00814212 -0.0250984,-0.0170342 -0.0358394,-0.0266726 -0.0107373,-0.00964208 -0.0193844,-0.0203609 -0.0260414,-0.0322417 -0.00656048,-0.0118846 -0.00988712,-0.0253471 -0.00988712,-0.0403876 0,-0.0181963 0.00637112,-0.0340684 0.0190094,-0.0476126 0.0125492,-0.0135479 0.0291861,-0.0240996 0.0496213,-0.0316626 0.0205317,-0.00756292 0.0427749,-0.0113017 0.066726,-0.0113017 0.0189166,0 0.0355535,0.00149625 0.0499071,0.00448875 0.0142571,0.0029925 0.0294646,0.00756292 0.0456263,0.013793l0.0158758 -0.0182817 0 0.0995507c-0.00931907,-0.0284176 -0.0243372,-0.0505235 -0.0452476,-0.0664773 -0.0209141,-0.0158721 -0.0432538,-0.0238472 -0.0670156,-0.0238472 -0.0191059,0 -0.03441,0.00440335 -0.0461015,0.0132955 -0.0115987,0.0088067 -0.0173944,0.019778 -0.0173944,0.0327393 0,0.0107188 0.00389841,0.0204425 0.0116915,0.0291676 0.00779312,0.0088067 0.0179661,0.0172013 0.0305116,0.0252617 0.0125492,0.00797876 0.0262382,0.0160392 0.0410633,0.0241813 0.0137855,0.00747753 0.0273743,0.0154563 0.0409705,0.0238472 0.0135888,0.00847627 0.0259486,0.0177025 0.0371649,0.0276713 0.0112163,0.00997252 0.0202458,0.0211071 0.0271849,0.0334892 0.00684265,0.0123004 0.0102658,0.0261751 0.0102658,0.0416314 0,0.0160392 -0.00589218,0.0307455 -0.0176802,0.0441263 -0.0117844,0.0133771 -0.0280389,0.0241813 -0.0487599,0.0323234 -0.0206282,0.00806044 -0.0444865,0.0121334 -0.0713893,0.0121334z"/>
  <path id="1" class="fil0" d="M1.24626 0.38321c-0.0296539,0 -0.0479097,-0.00847627 -0.0545592,-0.0253434 -0.00389841,0.00324125 -0.00903318,0.00681294 -0.0153078,0.0107188 -0.00627088,0.00390584 -0.014064,0.00731417 -0.0233831,0.0101396 -0.00931164,0.00282542 -0.0205317,0.00423628 -0.0337417,0.00423628 -0.0244301,0 -0.0446758,-0.00315586 -0.0605517,-0.00938961 -0.0158721,-0.00623375 -0.0276602,-0.0147917 -0.0354533,-0.0255105 -0.00779683,-0.0108042 -0.0116915,-0.0229375 -0.0116915,-0.0363963 0,-0.0172013 0.00494542,-0.0311613 0.0148251,-0.0417984 0.00998365,-0.0106371 0.0229115,-0.0184488 0.0387837,-0.0233496 0.0158758,-0.00498626 0.0326984,-0.00739585 0.0504789,-0.00739585 0.0157756,0 0.0287035,0.00149254 0.0387762,0.00448503 0.00998365,0.0029925 0.0174909,0.00606668 0.0225328,0.00914085 0.00503452,0.00307418 0.00769287,0.00498626 0.00807529,0.00581792 -0.000757406,-0.0292492 -0.00399123,-0.0531001 -0.00978688,-0.0715489 -0.00779683,-0.0253434 -0.0212965,-0.0379743 -0.0405881,-0.0379743 -0.0126457,0 -0.0236689,0.00340833 -0.0331737,0.010303 -0.00950471,0.00689834 -0.0177805,0.0153746 -0.0248125,0.0253471 -0.007032,0.00997252 -0.0133066,0.0198596 -0.0189166,0.0295834l-0.0063637 0.01047 -0.0309905 -0.0672272c0.0464802,-0.0117992 0.0859285,-0.0177842 0.118438,-0.0177842 0.0300364,0 0.0546558,0.00507165 0.0737617,0.0151258 0.0191059,0.0100542 0.0332665,0.0241813 0.042489,0.0423776 0.009126,0.0181183 0.0137855,0.0394742 0.0137855,0.063986l0 0.0567572c0,0.0175317 0.00209029,0.030248 0.00627088,0.038056 0.00418059,0.00789707 0.0110269,0.0118029 0.020721,0.0118029 -0.0144464,0.0102176 -0.0309868,0.0153709 -0.0496175,0.0153709zm-0.101329 -0.0156234c0.00779312,0 0.0142571,-0.00108042 0.0193918,-0.00323754 0.00503824,-0.00216084 0.00912229,-0.0047375 0.0121705,-0.00756292 0.00313358,-0.00282542 0.00532041,-0.00532041 0.00655676,-0.00739585l0.00199376 -0.00340833 0 -0.0745377 -0.000282171 -0.000248756c-0.000382416,-0.000749981 -0.00180441,-0.00249499 -0.00437365,-0.00523501 -0.00247271,-0.00265835 -0.00627459,-0.00523501 -0.0115022,-0.00773 -0.00522759,-0.00257295 -0.0119774,-0.00382045 -0.0203386,-0.00382045 -0.00760748,0 -0.0151147,0.00216084 -0.0224363,0.00631543 -0.00731788,0.00423628 -0.0133066,0.01047 -0.0180589,0.0186121 -0.00475235,0.00822751 -0.00713224,0.0185305 -0.00713224,0.0308309 0,0.0176988 0.00447018,0.0316588 0.0134031,0.0419618 0.00884383,0.0103067 0.0191097,0.0154563 0.0306081,0.0154563z"/>
  <path id="12" class="fil0" d="M1.81412 0.38321l-0.157604 0c0.00684265,-0.00149625 0.0130207,-0.00373877 0.0184414,-0.00698002 0.00551347,-0.00315586 0.00988712,-0.00781168 0.0132138,-0.01396 0.00342318,-0.00614836 0.00503452,-0.0145429 0.00503452,-0.0250947l0 -0.0786106c-0.000950471,-0.0326576 -0.00617806,-0.0575852 -0.0156828,-0.0749535 -0.00959753,-0.0173684 -0.0231937,-0.0260934 -0.040874,-0.0260934 -0.0160615,0 -0.032316,0.00731417 -0.0486671,0.0219388 0.0111235,0.0160355 0.0174909,0.0385572 0.0192025,0.0673906l0 0.0903281c0,0.0105517 0.00171159,0.0189463 0.00503824,0.0250947 0.00332665,0.00614836 0.00779312,0.0108042 0.0133066,0.01396 0.00560629,0.00324125 0.0116952,0.00548377 0.0184414,0.00698002l-0.157693 0c0.00693918,-0.00149625 0.0131135,-0.00373877 0.0185305,-0.00698002 0.00551347,-0.00315586 0.00988712,-0.00781168 0.0132138,-0.01396 0.00342318,-0.00614836 0.00503824,-0.0145429 0.00503824,-0.0250947l0 -0.0903281c-0.000378703,-0.0191134 -0.00209029,-0.0355647 -0.00513106,-0.0493614 -0.00304076,-0.013793 -0.00798618,-0.0245117 -0.0147323,-0.0320747 -0.00684636,-0.00747753 -0.0163511,-0.0113017 -0.0286144,-0.0113017 -0.0121668,0 -0.025284,0.00573624 -0.0392589,0.0172867l0.00171159 0.165779c0,0.0105517 0.00161877,0.0189463 0.00503824,0.0250947 0.00333036,0.00614836 0.00779683,0.0108042 0.0133103,0.01396 0.00560629,0.00324125 0.0116915,0.00548377 0.0184414,0.00698002l-0.157696 0c0.00674983,-0.00149625 0.0128314,-0.00373877 0.0184414,-0.00698002 0.00550976,-0.00315586 0.00997994,-0.00781168 0.0133029,-0.01396 0.00342318,-0.00614836 0.00503824,-0.0145429 0.00503824,-0.0250947l-0.00161506 -0.141932c0,-0.0105517 -0.00171159,-0.0188609 -0.00503452,-0.0250947 -0.00333036,-0.00614836 -0.00779683,-0.0108042 -0.0134031,-0.01396 -0.00551347,-0.00315957 -0.0116915,-0.00548377 -0.0183485,-0.00698002 0.0268991,0 0.0495247,-0.000497512 0.067773,-0.00157793 0.0183485,-0.000998737 0.0360288,-0.0035754 0.0530407,-0.00764832l0 0.0187829c0.00465953,-0.00274374 0.0100802,-0.00565085 0.0163511,-0.00856166 0.00618177,-0.0029071 0.0134031,-0.0053167 0.0216752,-0.00731046 0.00826835,-0.00191208 0.0176802,-0.00291082 0.0283248,-0.00291082 0.0159686,0 0.0305116,0.0024133 0.0438182,0.00723249 0.0133103,0.00473379 0.0246194,0.0121296 0.0341241,0.0220205 0.00779683,-0.00523501 0.0158758,-0.00997252 0.0243335,-0.0143759 0.00846142,-0.00440335 0.0177768,-0.00797876 0.0280426,-0.0107188 0.0101693,-0.00274374 0.021768,-0.00415831 0.0347887,-0.00415831 0.0337454,0 0.0603586,0.0103883 0.0797504,0.0310796 0.0193918,0.0206913 0.0296577,0.0498589 0.0308012,0.0875027l0 0.0786106c0,0.0105517 0.00171159,0.0189463 0.00503452,0.0250947 0.00332665,0.00614836 0.00779312,0.0108042 0.0133103,0.01396 0.00560629,0.00324125 0.0116878,0.00548377 0.0184414,0.00698002z"/>
  <path id="123" class="fil0" d="M2.07476 0.38321c-0.0296539,0 -0.0479097,-0.00847627 -0.0545592,-0.0253434 -0.00389841,0.00324125 -0.00903318,0.00681294 -0.0153078,0.0107188 -0.00627088,0.00390584 -0.014064,0.00731417 -0.0233831,0.0101396 -0.00931164,0.00282542 -0.0205317,0.00423628 -0.0337417,0.00423628 -0.0244301,0 -0.0446758,-0.00315586 -0.0605517,-0.00938961 -0.0158721,-0.00623375 -0.0276602,-0.0147917 -0.0354533,-0.0255105 -0.00779683,-0.0108042 -0.0116915,-0.0229375 -0.0116915,-0.0363963 0,-0.0172013 0.00494542,-0.0311613 0.0148251,-0.0417984 0.00998365,-0.0106371 0.0229115,-0.0184488 0.0387837,-0.0233496 0.0158758,-0.00498626 0.0326984,-0.00739585 0.0504789,-0.00739585 0.0157756,0 0.0287035,0.00149254 0.0387762,0.00448503 0.00998365,0.0029925 0.0174909,0.00606668 0.0225328,0.00914085 0.00503452,0.00307418 0.00769287,0.00498626 0.00807529,0.00581792 -0.000757406,-0.0292492 -0.00399123,-0.0531001 -0.00978688,-0.0715489 -0.00779683,-0.0253434 -0.0212965,-0.0379743 -0.0405881,-0.0379743 -0.0126457,0 -0.0236689,0.00340833 -0.0331737,0.010303 -0.00950471,0.00689834 -0.0177805,0.0153746 -0.0248125,0.0253471 -0.007032,0.00997252 -0.0133066,0.0198596 -0.0189166,0.0295834l-0.0063637 0.01047 -0.0309905 -0.0672272c0.0464802,-0.0117992 0.0859285,-0.0177842 0.118438,-0.0177842 0.0300364,0 0.0546558,0.00507165 0.0737617,0.0151258 0.0191059,0.0100542 0.0332665,0.0241813 0.042489,0.0423776 0.009126,0.0181183 0.0137855,0.0394742 0.0137855,0.063986l0 0.0567572c0,0.0175317 0.00209029,0.030248 0.00627088,0.038056 0.00418059,0.00789707 0.0110269,0.0118029 0.020721,0.0118029 -0.0144464,0.0102176 -0.0309868,0.0153709 -0.0496175,0.0153709zm-0.101329 -0.0156234c0.00779312,0 0.0142571,-0.00108042 0.0193918,-0.00323754 0.00503824,-0.00216084 0.00912229,-0.0047375 0.0121705,-0.00756292 0.00313358,-0.00282542 0.00532041,-0.00532041 0.00655676,-0.00739585l0.00199376 -0.00340833 0 -0.0745377 -0.000282171 -0.000248756c-0.000382416,-0.000749981 -0.00180441,-0.00249499 -0.00437365,-0.00523501 -0.00247271,-0.00265835 -0.00627459,-0.00523501 -0.0115022,-0.00773 -0.00522759,-0.00257295 -0.0119774,-0.00382045 -0.0203386,-0.00382045 -0.00760748,0 -0.0151147,0.00216084 -0.0224363,0.00631543 -0.00731788,0.00423628 -0.0133066,0.01047 -0.0180589,0.0186121 -0.00475235,0.00822751 -0.00713224,0.0185305 -0.00713224,0.0308309 0,0.0176988 0.00447018,0.0316588 0.0134031,0.0419618 0.00884383,0.0103067 0.0191097,0.0154563 0.0306081,0.0154563z"/>
  <path id="1234" class="fil0" d="M2.47379 0.38321l-0.1576 0c0.00665329,-0.00149625 0.0128351,-0.00382045 0.0183448,-0.0070617 0.00561,-0.00324125 0.0100802,-0.00806044 0.0134031,-0.0144613 0.00332665,-0.00647879 0.00503824,-0.0152038 0.00503824,-0.0264238l0 -0.0633214c0,-0.0374768 -0.00436994,-0.0664773 -0.0129279,-0.0869198 -0.00865077,-0.0204425 -0.0220502,-0.0306638 -0.0403022,-0.0306638 -0.0134997,0 -0.0266132,0.00540209 -0.0392552,0.0162879l0 0.164617c0,0.0201084 0.00617806,0.033738 0.0184376,0.0408851 0.00551347,0.00324125 0.0116915,0.00556545 0.0183485,0.0070617l-0.157604 0c0.00665701,-0.00149625 0.0127385,-0.00382045 0.0183485,-0.0070617 0.00560629,-0.00324125 0.0100728,-0.00806044 0.0133994,-0.0144613 0.00333036,-0.00647879 0.0049417,-0.0152038 0.0049417,-0.0264238l0 -0.14002c0,-0.0105517 -0.00161134,-0.0188609 -0.0049417,-0.0249276 -0.00332665,-0.00606668 -0.00779312,-0.0107188 -0.0133994,-0.0138784 -0.00561,-0.00315586 -0.0116915,-0.00548377 -0.0183485,-0.00698002 0.0269028,0 0.0495247,-0.000497512 0.0677767,-0.00157793 0.0182483,-0.000998737 0.0359285,-0.0035754 0.0530407,-0.00764461l0 0.0187792c0.00779312,-0.00523501 0.0168226,-0.00963837 0.0269919,-0.0132955 0.0102658,-0.00365708 0.0232902,-0.00548377 0.0392589,-0.00548377 0.0208138,0 0.0395411,0.00490086 0.0561743,0.0147063 0.0166369,0.00989084 0.0297579,0.0236838 0.0395448,0.0415497 0.00969777,0.0178659 0.0146395,0.0388876 0.0146395,0.0630689l0 0.0757035c0,0.01122 0.00161506,0.019945 0.00494542,0.0264238 0.00332293,0.00640083 0.00779312,0.01122 0.0132101,0.0144613 0.00551347,0.00324125 0.0116915,0.00556545 0.0185342,0.0070617z"/>
  <path id="12345" class="fil0" d="M2.61885 0.38321c-0.0251912,0 -0.0473379,-0.0047375 -0.0663473,-0.0142088 -0.0190131,-0.00955669 -0.033842,-0.0231863 -0.0444865,-0.0410522 -0.0105517,-0.0178659 -0.0158758,-0.0392218 -0.0158758,-0.0640677 0,-0.0275859 0.00561,-0.0506051 0.0166332,-0.0689685 0.0110307,-0.0184488 0.0255736,-0.0322417 0.0437291,-0.0413826 0.0180589,-0.00922625 0.0377329,-0.0137967 0.0588364,-0.0137967 0.0237618,0 0.0449617,0.00623375 0.0634996,0.0187829l0 -0.0830177c0,-0.0105517 -0.00161877,-0.0188609 -0.00494542,-0.0249276 -0.00342318,-0.00614836 -0.00779312,-0.0108042 -0.0134031,-0.0140417 -0.00560629,-0.00324125 -0.0117844,-0.00556916 -0.0186307,-0.00706541 0.0270921,0 0.0497141,-0.000497512 0.0679624,-0.00141085 0.0181592,-0.000998737 0.0357429,-0.00349001 0.0528514,-0.00756292l0.000285884 0.361973 -0.0737617 -0.0306638 -0.00332665 0.00490086c-0.00209029,0.00307789 -0.00570282,0.00664958 -0.0107411,0.0108042 -0.00513477,0.0041546 -0.0118846,0.00781168 -0.0203423,0.0109675 -0.00846142,0.00315957 -0.0191022,0.0047375 -0.0319373,0.0047375zm0.0156828 -0.0107188c0.00684265,0 0.0133066,-0.00141457 0.0194846,-0.0041546 0.00608524,-0.00274374 0.0111235,-0.00681294 0.0150182,-0.0123004 0.00389841,-0.00539838 0.00580307,-0.0122967 0.00580307,-0.0205242l0 -0.164617c-0.00627459,-0.00565085 -0.0132138,-0.00988712 -0.020721,-0.0127942 -0.00751466,-0.00282542 -0.0151147,-0.00423999 -0.0227222,-0.00423999 -0.00922254,0 -0.0176802,0.00399123 -0.0251912,0.0119663 -0.00750723,0.00789336 -0.0134959,0.0200267 -0.0179624,0.0362293 -0.00447018,0.0162879 -0.00665701,0.0368976 -0.00665701,0.0618251 0,0.0358988 0.00465953,0.0629872 0.0138784,0.0811873 0.00931907,0.0182817 0.0223398,0.0274226 0.0390695,0.0274226z"/>
  <path id="123456" class="fil1 str0" d="M0.847794 0.382962c-0.0428677,0 -0.0822194,-0.00606668 -0.118055,-0.0182817l-0.0161617 0.0182817 0 -0.112516c0.00570282,0.0183671 0.0152075,0.0353196 0.0285178,0.0509393 0.0133066,0.0155417 0.0290896,0.0281725 0.0473379,0.0378109 0.0183448,0.00972376 0.0376401,0.0145429 0.058079,0.0145429 0.0124527,0 0.0233831,-0.00232791 0.0326984,-0.00681666 0.00940817,-0.00457043 0.0167261,-0.01047 0.0218608,-0.0176988 0.00522759,-0.00722877 0.00779312,-0.0148734 0.00779312,-0.0230192 0,-0.0109675 -0.0038947,-0.0210217 -0.0116915,-0.0299955 -0.00779312,-0.00905917 -0.0178659,-0.0175354 -0.0303185,-0.0255105 -0.0124527,-0.00789707 -0.0260488,-0.0158721 -0.0406846,-0.0238509 -0.0133066,-0.00731046 -0.0266169,-0.0149588 -0.0396376,-0.0231009 -0.0131172,-0.00814212 -0.0250984,-0.0170342 -0.0358394,-0.0266726 -0.0107373,-0.00964208 -0.0193844,-0.0203609 -0.0260414,-0.0322417 -0.00656048,-0.0118846 -0.00988712,-0.0253471 -0.00988712,-0.0403876 0,-0.0181963 0.00637112,-0.0340684 0.0190094,-0.0476126 0.0125492,-0.0135479 0.0291861,-0.0240996 0.0496213,-0.0316626 0.0205317,-0.00756292 0.0427749,-0.0113017 0.066726,-0.0113017 0.0189166,0 0.0355535,0.00149625 0.0499071,0.00448875 0.0142571,0.0029925 0.0294646,0.00756292 0.0456263,0.013793l0.0158758 -0.0182817 0 0.0995507c-0.00931907,-0.0284176 -0.0243372,-0.0505235 -0.0452476,-0.0664773 -0.0209141,-0.0158721 -0.0432538,-0.0238472 -0.0670156,-0.0238472 -0.0191059,0 -0.03441,0.00440335 -0.0461015,0.0132955 -0.0115987,0.0088067 -0.0173944,0.019778 -0.0173944,0.0327393 0,0.0107188 0.00389841,0.0204425 0.0116915,0.0291676 0.00779312,0.0088067 0.0179661,0.0172013 0.0305116,0.0252617 0.0125492,0.00797876 0.0262382,0.0160392 0.0410633,0.0241813 0.0137855,0.00747753 0.0273743,0.0154563 0.0409705,0.0238472 0.0135888,0.00847627 0.0259486,0.0177025 0.0371649,0.0276713 0.0112163,0.00997252 0.0202458,0.0211071 0.0271849,0.0334892 0.00684265,0.0123004 0.0102658,0.0261751 0.0102658,0.0416314 0,0.0160392 -0.00589218,0.0307455 -0.0176802,0.0441263 -0.0117844,0.0133771 -0.0280389,0.0241813 -0.0487599,0.0323234 -0.0206282,0.00806044 -0.0444865,0.0121334 -0.0713893,0.0121334z"/>
  <path id="1234567" class="fil1 str0" d="M1.24626 0.38321c-0.0296539,0 -0.0479097,-0.00847627 -0.0545592,-0.0253434 -0.00389841,0.00324125 -0.00903318,0.00681294 -0.0153078,0.0107188 -0.00627088,0.00390584 -0.014064,0.00731417 -0.0233831,0.0101396 -0.00931164,0.00282542 -0.0205317,0.00423628 -0.0337417,0.00423628 -0.0244301,0 -0.0446758,-0.00315586 -0.0605517,-0.00938961 -0.0158721,-0.00623375 -0.0276602,-0.0147917 -0.0354533,-0.0255105 -0.00779683,-0.0108042 -0.0116915,-0.0229375 -0.0116915,-0.0363963 0,-0.0172013 0.00494542,-0.0311613 0.0148251,-0.0417984 0.00998365,-0.0106371 0.0229115,-0.0184488 0.0387837,-0.0233496 0.0158758,-0.00498626 0.0326984,-0.00739585 0.0504789,-0.00739585 0.0157756,0 0.0287035,0.00149254 0.0387762,0.00448503 0.00998365,0.0029925 0.0174909,0.00606668 0.0225328,0.00914085 0.00503452,0.00307418 0.00769287,0.00498626 0.00807529,0.00581792 -0.000757406,-0.0292492 -0.00399123,-0.0531001 -0.00978688,-0.0715489 -0.00779683,-0.0253434 -0.0212965,-0.0379743 -0.0405881,-0.0379743 -0.0126457,0 -0.0236689,0.00340833 -0.0331737,0.010303 -0.00950471,0.00689834 -0.0177805,0.0153746 -0.0248125,0.0253471 -0.007032,0.00997252 -0.0133066,0.0198596 -0.0189166,0.0295834l-0.0063637 0.01047 -0.0309905 -0.0672272c0.0464802,-0.0117992 0.0859285,-0.0177842 0.118438,-0.0177842 0.0300364,0 0.0546558,0.00507165 0.0737617,0.0151258 0.0191059,0.0100542 0.0332665,0.0241813 0.042489,0.0423776 0.009126,0.0181183 0.0137855,0.0394742 0.0137855,0.063986l0 0.0567572c0,0.0175317 0.00209029,0.030248 0.00627088,0.038056 0.00418059,0.00789707 0.0110269,0.0118029 0.020721,0.0118029 -0.0144464,0.0102176 -0.0309868,0.0153709 -0.0496175,0.0153709zm-0.101329 -0.0156234c0.00779312,0 0.0142571,-0.00108042 0.0193918,-0.00323754 0.00503824,-0.00216084 0.00912229,-0.0047375 0.0121705,-0.00756292 0.00313358,-0.00282542 0.00532041,-0.00532041 0.00655676,-0.00739585l0.00199376 -0.00340833 0 -0.0745377 -0.000282171 -0.000248756c-0.000382416,-0.000749981 -0.00180441,-0.00249499 -0.00437365,-0.00523501 -0.00247271,-0.00265835 -0.00627459,-0.00523501 -0.0115022,-0.00773 -0.00522759,-0.00257295 -0.0119774,-0.00382045 -0.0203386,-0.00382045 -0.00760748,0 -0.0151147,0.00216084 -0.0224363,0.00631543 -0.00731788,0.00423628 -0.0133066,0.01047 -0.0180589,0.0186121 -0.00475235,0.00822751 -0.00713224,0.0185305 -0.00713224,0.0308309 0,0.0176988 0.00447018,0.0316588 0.0134031,0.0419618 0.00884383,0.0103067 0.0191097,0.0154563 0.0306081,0.0154563z"/>
  <path id="12345678" class="fil1 str0" d="M1.81412 0.38321l-0.157604 0c0.00684265,-0.00149625 0.0130207,-0.00373877 0.0184414,-0.00698002 0.00551347,-0.00315586 0.00988712,-0.00781168 0.0132138,-0.01396 0.00342318,-0.00614836 0.00503452,-0.0145429 0.00503452,-0.0250947l0 -0.0786106c-0.000950471,-0.0326576 -0.00617806,-0.0575852 -0.0156828,-0.0749535 -0.00959753,-0.0173684 -0.0231937,-0.0260934 -0.040874,-0.0260934 -0.0160615,0 -0.032316,0.00731417 -0.0486671,0.0219388 0.0111235,0.0160355 0.0174909,0.0385572 0.0192025,0.0673906l0 0.0903281c0,0.0105517 0.00171159,0.0189463 0.00503824,0.0250947 0.00332665,0.00614836 0.00779312,0.0108042 0.0133066,0.01396 0.00560629,0.00324125 0.0116952,0.00548377 0.0184414,0.00698002l-0.157693 0c0.00693918,-0.00149625 0.0131135,-0.00373877 0.0185305,-0.00698002 0.00551347,-0.00315586 0.00988712,-0.00781168 0.0132138,-0.01396 0.00342318,-0.00614836 0.00503824,-0.0145429 0.00503824,-0.0250947l0 -0.0903281c-0.000378703,-0.0191134 -0.00209029,-0.0355647 -0.00513106,-0.0493614 -0.00304076,-0.013793 -0.00798618,-0.0245117 -0.0147323,-0.0320747 -0.00684636,-0.00747753 -0.0163511,-0.0113017 -0.0286144,-0.0113017 -0.0121668,0 -0.025284,0.00573624 -0.0392589,0.0172867l0.00171159 0.165779c0,0.0105517 0.00161877,0.0189463 0.00503824,0.0250947 0.00333036,0.00614836 0.00779683,0.0108042 0.0133103,0.01396 0.00560629,0.00324125 0.0116915,0.00548377 0.0184414,0.00698002l-0.157696 0c0.00674983,-0.00149625 0.0128314,-0.00373877 0.0184414,-0.00698002 0.00550976,-0.00315586 0.00997994,-0.00781168 0.0133029,-0.01396 0.00342318,-0.00614836 0.00503824,-0.0145429 0.00503824,-0.0250947l-0.00161506 -0.141932c0,-0.0105517 -0.00171159,-0.0188609 -0.00503452,-0.0250947 -0.00333036,-0.00614836 -0.00779683,-0.0108042 -0.0134031,-0.01396 -0.00551347,-0.00315957 -0.0116915,-0.00548377 -0.0183485,-0.00698002 0.0268991,0 0.0495247,-0.000497512 0.067773,-0.00157793 0.0183485,-0.000998737 0.0360288,-0.0035754 0.0530407,-0.00764832l0 0.0187829c0.00465953,-0.00274374 0.0100802,-0.00565085 0.0163511,-0.00856166 0.00618177,-0.0029071 0.0134031,-0.0053167 0.0216752,-0.00731046 0.00826835,-0.00191208 0.0176802,-0.00291082 0.0283248,-0.00291082 0.0159686,0 0.0305116,0.0024133 0.0438182,0.00723249 0.0133103,0.00473379 0.0246194,0.0121296 0.0341241,0.0220205 0.00779683,-0.00523501 0.0158758,-0.00997252 0.0243335,-0.0143759 0.00846142,-0.00440335 0.0177768,-0.00797876 0.0280426,-0.0107188 0.0101693,-0.00274374 0.021768,-0.00415831 0.0347887,-0.00415831 0.0337454,0 0.0603586,0.0103883 0.0797504,0.0310796 0.0193918,0.0206913 0.0296577,0.0498589 0.0308012,0.0875027l0 0.0786106c0,0.0105517 0.00171159,0.0189463 0.00503452,0.0250947 0.00332665,0.00614836 0.00779312,0.0108042 0.0133103,0.01396 0.00560629,0.00324125 0.0116878,0.00548377 0.0184414,0.00698002z"/>
  <path id="123456789" class="fil1 str0" d="M2.07476 0.38321c-0.0296539,0 -0.0479097,-0.00847627 -0.0545592,-0.0253434 -0.00389841,0.00324125 -0.00903318,0.00681294 -0.0153078,0.0107188 -0.00627088,0.00390584 -0.014064,0.00731417 -0.0233831,0.0101396 -0.00931164,0.00282542 -0.0205317,0.00423628 -0.0337417,0.00423628 -0.0244301,0 -0.0446758,-0.00315586 -0.0605517,-0.00938961 -0.0158721,-0.00623375 -0.0276602,-0.0147917 -0.0354533,-0.0255105 -0.00779683,-0.0108042 -0.0116915,-0.0229375 -0.0116915,-0.0363963 0,-0.0172013 0.00494542,-0.0311613 0.0148251,-0.0417984 0.00998365,-0.0106371 0.0229115,-0.0184488 0.0387837,-0.0233496 0.0158758,-0.00498626 0.0326984,-0.00739585 0.0504789,-0.00739585 0.0157756,0 0.0287035,0.00149254 0.0387762,0.00448503 0.00998365,0.0029925 0.0174909,0.00606668 0.0225328,0.00914085 0.00503452,0.00307418 0.00769287,0.00498626 0.00807529,0.00581792 -0.000757406,-0.0292492 -0.00399123,-0.0531001 -0.00978688,-0.0715489 -0.00779683,-0.0253434 -0.0212965,-0.0379743 -0.0405881,-0.0379743 -0.0126457,0 -0.0236689,0.00340833 -0.0331737,0.010303 -0.00950471,0.00689834 -0.0177805,0.0153746 -0.0248125,0.0253471 -0.007032,0.00997252 -0.0133066,0.0198596 -0.0189166,0.0295834l-0.0063637 0.01047 -0.0309905 -0.0672272c0.0464802,-0.0117992 0.0859285,-0.0177842 0.118438,-0.0177842 0.0300364,0 0.0546558,0.00507165 0.0737617,0.0151258 0.0191059,0.0100542 0.0332665,0.0241813 0.042489,0.0423776 0.009126,0.0181183 0.0137855,0.0394742 0.0137855,0.063986l0 0.0567572c0,0.0175317 0.00209029,0.030248 0.00627088,0.038056 0.00418059,0.00789707 0.0110269,0.0118029 0.020721,0.0118029 -0.0144464,0.0102176 -0.0309868,0.0153709 -0.0496175,0.0153709zm-0.101329 -0.0156234c0.00779312,0 0.0142571,-0.00108042 0.0193918,-0.00323754 0.00503824,-0.00216084 0.00912229,-0.0047375 0.0121705,-0.00756292 0.00313358,-0.00282542 0.00532041,-0.00532041 0.00655676,-0.00739585l0.00199376 -0.00340833 0 -0.0745377 -0.000282171 -0.000248756c-0.000382416,-0.000749981 -0.00180441,-0.00249499 -0.00437365,-0.00523501 -0.00247271,-0.00265835 -0.00627459,-0.00523501 -0.0115022,-0.00773 -0.00522759,-0.00257295 -0.0119774,-0.00382045 -0.0203386,-0.00382045 -0.00760748,0 -0.0151147,0.00216084 -0.0224363,0.00631543 -0.00731788,0.00423628 -0.0133066,0.01047 -0.0180589,0.0186121 -0.00475235,0.00822751 -0.00713224,0.0185305 -0.00713224,0.0308309 0,0.0176988 0.00447018,0.0316588 0.0134031,0.0419618 0.00884383,0.0103067 0.0191097,0.0154563 0.0306081,0.0154563z"/>
  <path id="12345678910" class="fil1 str0" d="M2.47379 0.38321l-0.1576 0c0.00665329,-0.00149625 0.0128351,-0.00382045 0.0183448,-0.0070617 0.00561,-0.00324125 0.0100802,-0.00806044 0.0134031,-0.0144613 0.00332665,-0.00647879 0.00503824,-0.0152038 0.00503824,-0.0264238l0 -0.0633214c0,-0.0374768 -0.00436994,-0.0664773 -0.0129279,-0.0869198 -0.00865077,-0.0204425 -0.0220502,-0.0306638 -0.0403022,-0.0306638 -0.0134997,0 -0.0266132,0.00540209 -0.0392552,0.0162879l0 0.164617c0,0.0201084 0.00617806,0.033738 0.0184376,0.0408851 0.00551347,0.00324125 0.0116915,0.00556545 0.0183485,0.0070617l-0.157604 0c0.00665701,-0.00149625 0.0127385,-0.00382045 0.0183485,-0.0070617 0.00560629,-0.00324125 0.0100728,-0.00806044 0.0133994,-0.0144613 0.00333036,-0.00647879 0.0049417,-0.0152038 0.0049417,-0.0264238l0 -0.14002c0,-0.0105517 -0.00161134,-0.0188609 -0.0049417,-0.0249276 -0.00332665,-0.00606668 -0.00779312,-0.0107188 -0.0133994,-0.0138784 -0.00561,-0.00315586 -0.0116915,-0.00548377 -0.0183485,-0.00698002 0.0269028,0 0.0495247,-0.000497512 0.0677767,-0.00157793 0.0182483,-0.000998737 0.0359285,-0.0035754 0.0530407,-0.00764461l0 0.0187792c0.00779312,-0.00523501 0.0168226,-0.00963837 0.0269919,-0.0132955 0.0102658,-0.00365708 0.0232902,-0.00548377 0.0392589,-0.00548377 0.0208138,0 0.0395411,0.00490086 0.0561743,0.0147063 0.0166369,0.00989084 0.0297579,0.0236838 0.0395448,0.0415497 0.00969777,0.0178659 0.0146395,0.0388876 0.0146395,0.0630689l0 0.0757035c0,0.01122 0.00161506,0.019945 0.00494542,0.0264238 0.00332293,0.00640083 0.00779312,0.01122 0.0132101,0.0144613 0.00551347,0.00324125 0.0116915,0.00556545 0.0185342,0.0070617z"/>
  <path id="1234567891011" class="fil1 str0" d="M2.61885 0.38321c-0.0251912,0 -0.0473379,-0.0047375 -0.0663473,-0.0142088 -0.0190131,-0.00955669 -0.033842,-0.0231863 -0.0444865,-0.0410522 -0.0105517,-0.0178659 -0.0158758,-0.0392218 -0.0158758,-0.0640677 0,-0.0275859 0.00561,-0.0506051 0.0166332,-0.0689685 0.0110307,-0.0184488 0.0255736,-0.0322417 0.0437291,-0.0413826 0.0180589,-0.00922625 0.0377329,-0.0137967 0.0588364,-0.0137967 0.0237618,0 0.0449617,0.00623375 0.0634996,0.0187829l0 -0.0830177c0,-0.0105517 -0.00161877,-0.0188609 -0.00494542,-0.0249276 -0.00342318,-0.00614836 -0.00779312,-0.0108042 -0.0134031,-0.0140417 -0.00560629,-0.00324125 -0.0117844,-0.00556916 -0.0186307,-0.00706541 0.0270921,0 0.0497141,-0.000497512 0.0679624,-0.00141085 0.0181592,-0.000998737 0.0357429,-0.00349001 0.0528514,-0.00756292l0.000285884 0.361973 -0.0737617 -0.0306638 -0.00332665 0.00490086c-0.00209029,0.00307789 -0.00570282,0.00664958 -0.0107411,0.0108042 -0.00513477,0.0041546 -0.0118846,0.00781168 -0.0203423,0.0109675 -0.00846142,0.00315957 -0.0191022,0.0047375 -0.0319373,0.0047375zm0.0156828 -0.0107188c0.00684265,0 0.0133066,-0.00141457 0.0194846,-0.0041546 0.00608524,-0.00274374 0.0111235,-0.00681294 0.0150182,-0.0123004 0.00389841,-0.00539838 0.00580307,-0.0122967 0.00580307,-0.0205242l0 -0.164617c-0.00627459,-0.00565085 -0.0132138,-0.00988712 -0.020721,-0.0127942 -0.00751466,-0.00282542 -0.0151147,-0.00423999 -0.0227222,-0.00423999 -0.00922254,0 -0.0176802,0.00399123 -0.0251912,0.0119663 -0.00750723,0.00789336 -0.0134959,0.0200267 -0.0179624,0.0362293 -0.00447018,0.0162879 -0.00665701,0.0368976 -0.00665701,0.0618251 0,0.0358988 0.00465953,0.0629872 0.0138784,0.0811873 0.00931907,0.0182817 0.0223398,0.0274226 0.0390695,0.0274226z"/>
  <path class="fil0" d="M3.03373 0.30969c0,0.00830919 -0.00249127,0.0171159 -0.00747753,0.0265909 -0.00490458,0.00938961 -0.0124638,0.0183634 -0.0226034,0.0269213 -0.0101396,0.00847627 -0.0229338,0.0153746 -0.0383901,0.0205279 -0.0153746,0.00523501 -0.032743,0.00781168 -0.0520197,0.00781168 -0.0411338,0 -0.0731268,-0.0119663 -0.0962277,-0.0358988 -0.0230192,-0.0239326 -0.0345697,-0.0560072 -0.0345697,-0.0963094 0,-0.0272592 0.00523501,-0.0513551 0.0157904,-0.0722952 0.0105517,-0.0209401 0.0258446,-0.0371463 0.045786,-0.0485297 0.0200267,-0.0114688 0.0438776,-0.0172013 0.0716306,-0.0172013 0.0172013,0 0.032988,0.00249127 0.0473639,0.00756292 0.0142942,0.00498626 0.0265092,0.0114651 0.0364817,0.0194438 0.00997252,0.00797876 0.0176171,0.0164513 0.0228521,0.0254288 0.0053167,0.00905546 0.00797504,0.01745 0.00797504,0.0251763 0,0.00797876 -0.00298878,0.01471 -0.00888839,0.0202755 -0.00598499,0.00548748 -0.0131321,0.00822751 -0.0216084,0.00822751 -0.00548377,0 -0.0100542,-0.00141085 -0.0137113,-0.00423628 -0.00365337,-0.00282542 -0.00772629,-0.00748124 -0.0122967,-0.0137967 -0.00814212,-0.0122967 -0.0166184,-0.0215192 -0.0254288,-0.027753 -0.0088921,-0.00614836 -0.0201084,-0.00922254 -0.033738,-0.00922254 -0.0196109,0 -0.035483,0.00764461 -0.0474456,0.0230155 -0.0120517,0.0152892 -0.018033,0.0363147 -0.018033,0.0629056 0,0.0125492 0.00157793,0.0240142 0.00465211,0.0344843 0.00307418,0.01047 0.00747753,0.0193621 0.0133808,0.026758 0.00581421,0.00739585 0.0128796,0.012965 0.0211888,0.0167855 0.00822751,0.00382416 0.0173684,0.00573624 0.0272555,0.00573624 0.0132955,0 0.0246788,-0.00307789 0.0341538,-0.00922625 0.00955669,-0.00623004 0.0179476,-0.0156234 0.0252617,-0.0282505 0.00398752,-0.00748124 0.00839087,-0.0132992 0.0131284,-0.0175354 0.00465211,-0.00423628 0.01047,-0.00631543 0.017283,-0.00631543 0.00814583,0 0.0148771,0.00307418 0.0201938,0.00922254 0.0053167,0.00615207 0.00806044,0.0127163 0.00806044,0.0196963z"/>
  <path id="1" class="fil0" d="M3.25959 0.354563c-0.0161209,0.0124638 -0.0316588,0.0218534 -0.0466176,0.0280872 -0.0150405,0.00623004 -0.0319113,0.00938961 -0.0505235,0.00938961 -0.0171196,0 -0.0320747,-0.00340833 -0.0449543,-0.0101396 -0.0128833,-0.00673126 -0.0228521,-0.0157867 -0.0298322,-0.0273372 -0.00698002,-0.0115504 -0.01047,-0.0240142 -0.01047,-0.0374768 0,-0.0182 0.00573253,-0.0336563 0.017283,-0.0465359 0.0115504,-0.0127979 0.0273372,-0.0214376 0.047531,-0.0257592 0.0041546,-0.000998737 0.0146246,-0.00315957 0.0314101,-0.00656419 0.0167038,-0.00349001 0.030998,-0.00656419 0.0429642,-0.00938961 0.0118809,-0.00291082 0.0248459,-0.00631543 0.0388059,-0.0103883 -0.000831662,-0.0175354 -0.00432167,-0.0304151 -0.0105554,-0.0385572 -0.00631543,-0.00822751 -0.0191951,-0.0123004 -0.0388876,-0.0123004 -0.0168709,0 -0.0295834,0.00232791 -0.0380597,0.00706541 -0.00855795,0.0047375 -0.0158721,0.0117175 -0.0219388,0.0211888 -0.00606668,0.00938961 -0.0103846,0.0156234 -0.0128796,0.0186159 -0.00257667,0.00298878 -0.00797504,0.00448503 -0.0162026,0.00448503 -0.00748124,0 -0.01396,-0.00240959 -0.0193621,-0.00722877 -0.00548377,-0.0047375 -0.00814583,-0.0108859 -0.00814583,-0.0183634 0,-0.0116358 0.00407292,-0.0230192 0.0123821,-0.0340721 0.00830919,-0.0110492 0.0211925,-0.0201084 0.0387243,-0.0272555 0.0175354,-0.00714709 0.0393072,-0.0107188 0.0654822,-0.0107188 0.0292492,0 0.0521831,0.00349001 0.0688868,0.0103883 0.0167038,0.00689462 0.028503,0.0177805 0.0354013,0.0327393 0.00689462,0.0148734 0.0103846,0.034733 0.0103846,0.0594156 0,0.015538 -8.16811e-005,0.0288334 -0.000167075,0.0396376 -8.16811e-005,0.0108859 -0.000163362,0.0230155 -0.000330437,0.0363109 0,0.0124675 0.00207544,0.0255142 0.00623375,0.0390584 0.0041546,0.0135442 0.00614836,0.0222692 0.00614836,0.0261751 0,0.00681294 -0.00315957,0.0130467 -0.00955669,0.0186121 -0.00639711,0.00556916 -0.0137113,0.00839459 -0.0217717,0.00839459 -0.00681294,0 -0.0135442,-0.00324125 -0.0201938,-0.00963837 -0.00673126,-0.00640083 -0.0137113,-0.0156234 -0.0211888,-0.0278384zm-0.00440335 -0.096146c-0.00972376,0.0035754 -0.0239326,0.00731417 -0.042463,0.0113017 -0.0186159,0.00399123 -0.0314955,0.00689834 -0.0386426,0.00881042 -0.00714338,0.00182669 -0.01396,0.00548377 -0.0204388,0.0109675 -0.00648251,0.00540209 -0.00972376,0.012965 -0.00972376,0.0226851 0,0.0101396 0.00382045,0.0186975 0.0114688,0.0257592 0.00764461,0.00706541 0.0176134,0.0105554 0.0299138,0.0105554 0.0131284,0 0.0252617,-0.0029071 0.0363963,-0.00864334 0.0111346,-0.00573253 0.0192767,-0.0132101 0.0245155,-0.0222692 0.00598128,-0.0100542 0.00897378,-0.0265909 0.00897378,-0.0496918l0 -0.009475z"/>
  <path id="12" class="fil0" d="M3.45378 0.29606l0 0.0555914c0,0.0134625 -0.00315586,0.0235167 -0.00947129,0.030248 -0.00631543,0.00673126 -0.0143759,0.0101396 -0.0240996,0.0101396 -0.00963837,0 -0.01745,-0.00340833 -0.0236801,-0.0102213 -0.00615207,-0.00681294 -0.00922625,-0.0168709 -0.00922625,-0.0301663l0 -0.185056c0,-0.0298322 0.0108042,-0.0447909 0.0324088,-0.0447909 0.0110529,0 0.0189463,0.00349001 0.0238509,0.01047 0.00490086,0.00698002 0.00755921,0.0172867 0.00806044,0.0309126 0.00789336,-0.0136259 0.0160355,-0.0239326 0.0244301,-0.0309126 0.00839087,-0.00698002 0.0195255,-0.01047 0.0334855,-0.01047 0.0139638,0 0.027508,0.00349001 0.0406363,0.01047 0.0131284,0.00698002 0.0196926,0.0162063 0.0196926,0.0277567 0,0.00806044 -0.00274003,0.0147917 -0.00839087,0.0200267 -0.00556916,0.0053167 -0.0116358,0.00789336 -0.0181146,0.00789336 -0.00240959,0 -0.00830919,-0.00149625 -0.0176171,-0.00448875 -0.00938961,-0.00298878 -0.0176171,-0.00448503 -0.0247642,-0.00448503 -0.00972005,0 -0.0176988,0.00257667 -0.0238472,0.00764461 -0.00615207,0.00514962 -0.0109713,0.0127125 -0.0143759,0.0227667 -0.00340833,0.0100542 -0.00573624,0.0220205 -0.00706541,0.0359842 -0.00124378,0.0138746 -0.00191208,0.0307455 -0.00191208,0.0506868z"/>
  <path id="123" class="fil0" d="M3.61591 0.127705l0.00731417 0 0 -0.039968c0,-0.0107188 0.000248756,-0.0191134 0.000831662,-0.02518 0.000579193,-0.00614836 0.00216084,-0.0113834 0.00473379,-0.015705 0.00266206,-0.00457043 0.00640083,-0.00822751 0.01122,-0.0111346 0.00490086,-0.00282542 0.010303,-0.00423628 0.0163696,-0.00423628 0.00839459,0 0.0160392,0.00315586 0.0228521,0.00947129 0.00457043,0.00423628 0.00739585,0.00938961 0.00864334,0.0154563 0.00124378,0.00614836 0.00182669,0.0147917 0.00182669,0.026008l0 0.0452884 0.0243484 0c0.00938961,0 0.0166184,0.00224623 0.021523,0.00673126 0.00498626,0.00440335 0.00747753,0.0101396 0.00747753,0.0171196 0,0.0088921 -0.00357169,0.0152075 -0.0106371,0.0187792 -0.0070617,0.00357169 -0.0171159,0.0053167 -0.0303297,0.0053167l-0.0123821 0 0 0.122154c0,0.0103883 0.00033415,0.0184488 0.00108042,0.0240142 0.000749981,0.00556916 0.00265835,0.0101396 0.00581792,0.0136296 0.00324125,0.00349001 0.00839087,0.00523501 0.015538,0.00523501 0.00382416,0 0.00914085,-0.000664587 0.0157904,-0.00207544 0.00664587,-0.00141457 0.0118809,-0.00207915 0.015538,-0.00207915 0.00540209,0 0.0102213,0.00216084 0.0145429,0.00648251 0.00432167,0.00432167 0.00639711,0.00955669 0.00639711,0.0159538 0,0.0107188 -0.00581792,0.0188646 -0.0175317,0.0245155 -0.0116358,0.00573253 -0.0284213,0.00855795 -0.0503601,0.00855795 -0.020773,0 -0.0365597,-0.00349001 -0.0471968,-0.01047 -0.0107225,-0.00698002 -0.0177842,-0.0166221 -0.0211071,-0.0290005 -0.00332293,-0.0123004 -0.00498626,-0.0287517 -0.00498626,-0.0493614l0 -0.127556 -0.00872502 0c-0.00963837,0 -0.0169525,-0.00224252 -0.0219388,-0.00681294 -0.00506794,-0.00457043 -0.00756292,-0.010303 -0.00756292,-0.017283 0,-0.00698002 0.00266206,-0.0127163 0.00789707,-0.0171196 0.0053167,-0.00448503 0.0129613,-0.00673126 0.0230155,-0.00673126z"/>
  <path id="1234" class="fil1 str0" d="M3.03373 0.30969c0,0.00830919 -0.00249127,0.0171159 -0.00747753,0.0265909 -0.00490458,0.00938961 -0.0124638,0.0183634 -0.0226034,0.0269213 -0.0101396,0.00847627 -0.0229338,0.0153746 -0.0383901,0.0205279 -0.0153746,0.00523501 -0.032743,0.00781168 -0.0520197,0.00781168 -0.0411338,0 -0.0731268,-0.0119663 -0.0962277,-0.0358988 -0.0230192,-0.0239326 -0.0345697,-0.0560072 -0.0345697,-0.0963094 0,-0.0272592 0.00523501,-0.0513551 0.0157904,-0.0722952 0.0105517,-0.0209401 0.0258446,-0.0371463 0.045786,-0.0485297 0.0200267,-0.0114688 0.0438776,-0.0172013 0.0716306,-0.0172013 0.0172013,0 0.032988,0.00249127 0.0473639,0.00756292 0.0142942,0.00498626 0.0265092,0.0114651 0.0364817,0.0194438 0.00997252,0.00797876 0.0176171,0.0164513 0.0228521,0.0254288 0.0053167,0.00905546 0.00797504,0.01745 0.00797504,0.0251763 0,0.00797876 -0.00298878,0.01471 -0.00888839,0.0202755 -0.00598499,0.00548748 -0.0131321,0.00822751 -0.0216084,0.00822751 -0.00548377,0 -0.0100542,-0.00141085 -0.0137113,-0.00423628 -0.00365337,-0.00282542 -0.00772629,-0.00748124 -0.0122967,-0.0137967 -0.00814212,-0.0122967 -0.0166184,-0.0215192 -0.0254288,-0.027753 -0.0088921,-0.00614836 -0.0201084,-0.00922254 -0.033738,-0.00922254 -0.0196109,0 -0.035483,0.00764461 -0.0474456,0.0230155 -0.0120517,0.0152892 -0.018033,0.0363147 -0.018033,0.0629056 0,0.0125492 0.00157793,0.0240142 0.00465211,0.0344843 0.00307418,0.01047 0.00747753,0.0193621 0.0133808,0.026758 0.00581421,0.00739585 0.0128796,0.012965 0.0211888,0.0167855 0.00822751,0.00382416 0.0173684,0.00573624 0.0272555,0.00573624 0.0132955,0 0.0246788,-0.00307789 0.0341538,-0.00922625 0.00955669,-0.00623004 0.0179476,-0.0156234 0.0252617,-0.0282505 0.00398752,-0.00748124 0.00839087,-0.0132992 0.0131284,-0.0175354 0.00465211,-0.00423628 0.01047,-0.00631543 0.017283,-0.00631543 0.00814583,0 0.0148771,0.00307418 0.0201938,0.00922254 0.0053167,0.00615207 0.00806044,0.0127163 0.00806044,0.0196963z"/>
  <path id="12345" class="fil1 str0" d="M3.25959 0.354563c-0.0161209,0.0124638 -0.0316588,0.0218534 -0.0466176,0.0280872 -0.0150405,0.00623004 -0.0319113,0.00938961 -0.0505235,0.00938961 -0.0171196,0 -0.0320747,-0.00340833 -0.0449543,-0.0101396 -0.0128833,-0.00673126 -0.0228521,-0.0157867 -0.0298322,-0.0273372 -0.00698002,-0.0115504 -0.01047,-0.0240142 -0.01047,-0.0374768 0,-0.0182 0.00573253,-0.0336563 0.017283,-0.0465359 0.0115504,-0.0127979 0.0273372,-0.0214376 0.047531,-0.0257592 0.0041546,-0.000998737 0.0146246,-0.00315957 0.0314101,-0.00656419 0.0167038,-0.00349001 0.030998,-0.00656419 0.0429642,-0.00938961 0.0118809,-0.00291082 0.0248459,-0.00631543 0.0388059,-0.0103883 -0.000831662,-0.0175354 -0.00432167,-0.0304151 -0.0105554,-0.0385572 -0.00631543,-0.00822751 -0.0191951,-0.0123004 -0.0388876,-0.0123004 -0.0168709,0 -0.0295834,0.00232791 -0.0380597,0.00706541 -0.00855795,0.0047375 -0.0158721,0.0117175 -0.0219388,0.0211888 -0.00606668,0.00938961 -0.0103846,0.0156234 -0.0128796,0.0186159 -0.00257667,0.00298878 -0.00797504,0.00448503 -0.0162026,0.00448503 -0.00748124,0 -0.01396,-0.00240959 -0.0193621,-0.00722877 -0.00548377,-0.0047375 -0.00814583,-0.0108859 -0.00814583,-0.0183634 0,-0.0116358 0.00407292,-0.0230192 0.0123821,-0.0340721 0.00830919,-0.0110492 0.0211925,-0.0201084 0.0387243,-0.0272555 0.0175354,-0.00714709 0.0393072,-0.0107188 0.0654822,-0.0107188 0.0292492,0 0.0521831,0.00349001 0.0688868,0.0103883 0.0167038,0.00689462 0.028503,0.0177805 0.0354013,0.0327393 0.00689462,0.0148734 0.0103846,0.034733 0.0103846,0.0594156 0,0.015538 -8.16811e-005,0.0288334 -0.000167075,0.0396376 -8.16811e-005,0.0108859 -0.000163362,0.0230155 -0.000330437,0.0363109 0,0.0124675 0.00207544,0.0255142 0.00623375,0.0390584 0.0041546,0.0135442 0.00614836,0.0222692 0.00614836,0.0261751 0,0.00681294 -0.00315957,0.0130467 -0.00955669,0.0186121 -0.00639711,0.00556916 -0.0137113,0.00839459 -0.0217717,0.00839459 -0.00681294,0 -0.0135442,-0.00324125 -0.0201938,-0.00963837 -0.00673126,-0.00640083 -0.0137113,-0.0156234 -0.0211888,-0.0278384zm-0.00440335 -0.096146c-0.00972376,0.0035754 -0.0239326,0.00731417 -0.042463,0.0113017 -0.0186159,0.00399123 -0.0314955,0.00689834 -0.0386426,0.00881042 -0.00714338,0.00182669 -0.01396,0.00548377 -0.0204388,0.0109675 -0.00648251,0.00540209 -0.00972376,0.012965 -0.00972376,0.0226851 0,0.0101396 0.00382045,0.0186975 0.0114688,0.0257592 0.00764461,0.00706541 0.0176134,0.0105554 0.0299138,0.0105554 0.0131284,0 0.0252617,-0.0029071 0.0363963,-0.00864334 0.0111346,-0.00573253 0.0192767,-0.0132101 0.0245155,-0.0222692 0.00598128,-0.0100542 0.00897378,-0.0265909 0.00897378,-0.0496918l0 -0.009475z"/>
  <path id="123456" class="fil1 str0" d="M3.45378 0.29606l0 0.0555914c0,0.0134625 -0.00315586,0.0235167 -0.00947129,0.030248 -0.00631543,0.00673126 -0.0143759,0.0101396 -0.0240996,0.0101396 -0.00963837,0 -0.01745,-0.00340833 -0.0236801,-0.0102213 -0.00615207,-0.00681294 -0.00922625,-0.0168709 -0.00922625,-0.0301663l0 -0.185056c0,-0.0298322 0.0108042,-0.0447909 0.0324088,-0.0447909 0.0110529,0 0.0189463,0.00349001 0.0238509,0.01047 0.00490086,0.00698002 0.00755921,0.0172867 0.00806044,0.0309126 0.00789336,-0.0136259 0.0160355,-0.0239326 0.0244301,-0.0309126 0.00839087,-0.00698002 0.0195255,-0.01047 0.0334855,-0.01047 0.0139638,0 0.027508,0.00349001 0.0406363,0.01047 0.0131284,0.00698002 0.0196926,0.0162063 0.0196926,0.0277567 0,0.00806044 -0.00274003,0.0147917 -0.00839087,0.0200267 -0.00556916,0.0053167 -0.0116358,0.00789336 -0.0181146,0.00789336 -0.00240959,0 -0.00830919,-0.00149625 -0.0176171,-0.00448875 -0.00938961,-0.00298878 -0.0176171,-0.00448503 -0.0247642,-0.00448503 -0.00972005,0 -0.0176988,0.00257667 -0.0238472,0.00764461 -0.00615207,0.00514962 -0.0109713,0.0127125 -0.0143759,0.0227667 -0.00340833,0.0100542 -0.00573624,0.0220205 -0.00706541,0.0359842 -0.00124378,0.0138746 -0.00191208,0.0307455 -0.00191208,0.0506868z"/>
  <path id="1234567" class="fil1 str0" d="M3.61591 0.127705l0.00731417 0 0 -0.039968c0,-0.0107188 0.000248756,-0.0191134 0.000831662,-0.02518 0.000579193,-0.00614836 0.00216084,-0.0113834 0.00473379,-0.015705 0.00266206,-0.00457043 0.00640083,-0.00822751 0.01122,-0.0111346 0.00490086,-0.00282542 0.010303,-0.00423628 0.0163696,-0.00423628 0.00839459,0 0.0160392,0.00315586 0.0228521,0.00947129 0.00457043,0.00423628 0.00739585,0.00938961 0.00864334,0.0154563 0.00124378,0.00614836 0.00182669,0.0147917 0.00182669,0.026008l0 0.0452884 0.0243484 0c0.00938961,0 0.0166184,0.00224623 0.021523,0.00673126 0.00498626,0.00440335 0.00747753,0.0101396 0.00747753,0.0171196 0,0.0088921 -0.00357169,0.0152075 -0.0106371,0.0187792 -0.0070617,0.00357169 -0.0171159,0.0053167 -0.0303297,0.0053167l-0.0123821 0 0 0.122154c0,0.0103883 0.00033415,0.0184488 0.00108042,0.0240142 0.000749981,0.00556916 0.00265835,0.0101396 0.00581792,0.0136296 0.00324125,0.00349001 0.00839087,0.00523501 0.015538,0.00523501 0.00382416,0 0.00914085,-0.000664587 0.0157904,-0.00207544 0.00664587,-0.00141457 0.0118809,-0.00207915 0.015538,-0.00207915 0.00540209,0 0.0102213,0.00216084 0.0145429,0.00648251 0.00432167,0.00432167 0.00639711,0.00955669 0.00639711,0.0159538 0,0.0107188 -0.00581792,0.0188646 -0.0175317,0.0245155 -0.0116358,0.00573253 -0.0284213,0.00855795 -0.0503601,0.00855795 -0.020773,0 -0.0365597,-0.00349001 -0.0471968,-0.01047 -0.0107225,-0.00698002 -0.0177842,-0.0166221 -0.0211071,-0.0290005 -0.00332293,-0.0123004 -0.00498626,-0.0287517 -0.00498626,-0.0493614l0 -0.127556 -0.00872502 0c-0.00963837,0 -0.0169525,-0.00224252 -0.0219388,-0.00681294 -0.00506794,-0.00457043 -0.00756292,-0.010303 -0.00756292,-0.017283 0,-0.00698002 0.00266206,-0.0127163 0.00789707,-0.0171196 0.0053167,-0.00448503 0.0129613,-0.00673126 0.0230155,-0.00673126z"/>
  <path class="fil2 str1" d="M0.378306 0.374159c0.00735872,0.0104886 -0.0118363,-0.0127497 0.00882527,-0.0147954 0.000831662,-8.16811e-005 0.00166704,-0.000170788 0.00250612,-0.000263607 0.0260191,-0.00295166 0.0561706,-0.0120554 0.0761713,-0.0190762 0.01135,-0.00398381 0.022013,-0.00599613 0.031644,-0.00629316 0.000883641,-2.59894e-005 0.00175986,-4.08405e-005 0.00262122,-3.71278e-005 0.0268174,4.82661e-005 0.00033415,0.00670527 0.00237618,0.0283767 -0.00554689,-0.0105369 0.021846,-0.00879557 -0.00237989,-0.00598128 -0.000987598,0.000115096 -0.00198262,0.00024133 -0.00298878,0.000382416 -0.00859508,0.00120665 -0.0179884,0.00340833 -0.0279758,0.00672755 -0.0257073,0.00854681 -0.0546186,0.0172124 -0.0790339,0.0163474 -0.00207173,-7.05427e-005 -0.00410633,-0.000215341 -0.00610752,-0.000430682 -0.0186827,-0.00201604 0.00275859,0.014814 -0.00565827,-0.00495656z"/>
  <ellipse class="fil3 str2" transform="matrix(-0.194389 -0.0321863 -0.030259 0.182749 0.527399 0.347911)" rx="0.134247" ry="0.131588"/>
  <ellipse class="fil3 str2" transform="matrix(-0.194389 -0.0321863 -0.030259 0.182749 0.357438 0.372997)" rx="0.134247" ry="0.131588"/>
  <path class="fil2 str1" d="M0.0112943 0.120268c0.187818,-0.0417687 0.225974,0.0262568 0.337428,-0.00191951 0.109293,-0.0276305 0.221166,-0.033608 0.259278,0.0527437 -0.0262716,-0.0580307 -0.149313,-0.0385683 -0.241457,-0.0150145 -0.035884,0.00917427 -0.0933875,0.0288446 -0.127508,0.0172013 -0.0419135,-0.0142979 -0.0922513,-0.0805561 -0.215631,-0.0215192 -0.000768545,0.000367565 -0.00148511,0.00120294 -0.00232048,0.00111755 -0.0271033,-0.000122522 -0.0219574,-0.0311316 -0.00979059,-0.0326093z"/>
  <path class="fil2 str1" d="M0.149584 0.176791c0.0328172,0.0609749 0.141197,0.0440632 0.224597,0.0187087 0.101073,-0.0307269 0.219518,-0.0371797 0.251459,0.0521199 -0.0321341,-0.0566384 -0.143291,-0.043187 -0.233574,-0.0141717 -0.166774,0.0535976 -0.218352,0.0131804 -0.242481,-0.056657z"/>
  <path class="fil2 str1" d="M0.220327 0.272265c0.0354162,0.0437179 0.11344,0.0223658 0.182476,0.00299621 0.0833444,-0.0233831 0.165523,-0.0404024 0.20281,0.0317145 -0.0170639,-0.0293235 -0.119975,-0.0263273 -0.193922,-0.00212371 -0.130411,0.0426821 -0.170754,0.0157088 -0.191364,-0.032587z"/>
  <path class="fil2 str1" d="M0.296376 0.0508316c0.0198671,0.0254734 0.0637149,0.0159946 0.103872,0.0065679 0.0484851,-0.0113797 0.106096,-0.025362 0.115801,0.0154897 -0.0114948,-0.0220242 -0.0653708,-0.00655676 -0.108788,0.00426598 -0.0752802,0.0187718 -0.102131,0.00504938 -0.110886,-0.0263236z"/>
  <path class="fil2" d="M3.11187 0c0.0387651,0.0580493 0.134759,0.0445793 0.222796,0.0306415 0.106293,-0.0168263 0.232654,-0.0378072 0.247085,0.0517635 -0.0212779,-0.0492908 -0.139827,-0.0245117 -0.235108,-0.00807529 -0.165207,0.028503 -0.220892,-0.00533526 -0.234774,-0.0743298z"/>
 </g>
</svg>
