<?xml version="1.0" encoding="UTF-8"?>
<!DOCTYPE svg PUBLIC "-//W3C//DTD SVG 1.1//EN" "http://www.w3.org/Graphics/SVG/1.1/DTD/svg11.dtd">
<!-- Creator: CorelDRAW -->
<svg xmlns="http://www.w3.org/2000/svg" xml:space="preserve" width="4.96022in" height="0.562567in" style="shape-rendering:geometricPrecision; text-rendering:geometricPrecision; image-rendering:optimizeQuality; fill-rule:evenodd; clip-rule:evenodd"
viewBox="0 0 4.94125 0.560415"
 xmlns:xlink="http://www.w3.org/1999/xlink">
 <defs>
  <style type="text/css">
   <![CDATA[
    .str1 {stroke:#E14D2A;stroke-width:0.00298853}
    .str0 {stroke:white;stroke-width:0.0069144}
    .str2 {stroke:#E14D2A;stroke-width:0.041506}
    .fil3 {fill:none}
    .fil1 {fill:none;fill-rule:nonzero}
    .fil2 {fill:#E14D2A}
    .fil0 {fill:white;fill-rule:nonzero}
   ]]>
  </style>
 </defs>
 <g id="Layer_x0020_1">
  <metadata id="CorelCorpID_0Corel-Layer"/>
  <path class="fil0" d="M1.1623 0.495272c-0.0554446,0 -0.106336,-0.0078439 -0.152682,-0.0236415l-0.0209001 0.0236415 0 -0.145512c0.00737719,0.0237513 0.0196686,0.045675 0.036882,0.065877 0.0172095,0.0200961 0.0376194,0.036431 0.0612217,0.0488989 0.0237239,0.0125738 0.0486793,0.0188058 0.0751093,0.0188058 0.0161035,0 0.0302422,-0.00300814 0.0422865,-0.00881262 0.0121737,-0.00591038 0.0216374,-0.0135386 0.0282773,-0.0228885 0.00676144,-0.00934993 0.0100794,-0.0192372 0.0100794,-0.0297676 0,-0.0141857 -0.00503971,-0.0271909 -0.015123,-0.0387999 -0.0100794,-0.0117109 -0.0231081,-0.0226728 -0.0392117,-0.0329914 -0.0161035,-0.0102088 -0.0336856,-0.0205275 -0.0526169,-0.0308422 -0.0172095,-0.00945975 -0.034419,-0.019347 -0.0512599,-0.0298774 -0.0169664,-0.0105304 -0.0324541,-0.0220296 -0.0463457,-0.0344975 -0.0138915,-0.0124679 -0.0250809,-0.0263281 -0.0336856,-0.0416982 -0.00848318,-0.0153662 -0.0127856,-0.0327757 -0.0127856,-0.0522286 0,-0.0235356 0.0082361,-0.0440631 0.0245906,-0.0615785 0.0162251,-0.0175194 0.037737,-0.0311677 0.064167,-0.0409452 0.0265516,-0.00978135 0.0553191,-0.0146171 0.0862986,-0.0146171 0.0244612,0 0.045977,0.00193352 0.0645396,0.00580449 0.018441,0.00386704 0.0381096,0.00977742 0.0590057,0.017837l0.0205314 -0.0236415 0 0.128746c-0.0120482,-0.0367526 -0.0314697,-0.0653397 -0.0585155,-0.0859731 -0.0270418,-0.0205275 -0.0559349,-0.0308422 -0.0866673,-0.0308422 -0.0247083,0 -0.0445024,0.00569467 -0.0596215,0.0171938 -0.0149975,0.0113893 -0.0225002,0.025575 -0.0225002,0.0423414 0,0.0138641 0.00504363,0.0264379 0.015123,0.0377213 0.0100833,0.0113933 0.0232376,0.0222453 0.0394627,0.0326698 0.016229,0.0103187 0.0339288,0.0207432 0.0531032,0.0312736 0.0178292,0.00967153 0.0354074,0.0199902 0.0529895,0.0308461 0.0175782,0.0109619 0.0335562,0.0228885 0.0480635,0.0357839 0.0145073,0.0128993 0.0261829,0.0272968 0.0351603,0.0433101 0.00885184,0.0159074 0.0132758,0.0338543 0.0132758,0.0538445 0,0.0207393 -0.00762427,0.0397607 -0.0228689,0.0570644 -0.0152368,0.0173036 -0.0362624,0.0312736 -0.063061,0.0418041 -0.0266771,0.0104245 -0.0575311,0.0156917 -0.0923227,0.0156917z"/>
  <path id="1" class="fil0" d="M1.67763 0.495593c-0.0383567,0 -0.061959,-0.0109619 -0.0705637,-0.0327757 -0.00503971,0.00418864 -0.0116796,0.00881262 -0.0197941,0.0138602 -0.00811059,0.00505147 -0.0181939,0.00945975 -0.0302382,0.013115 -0.0120522,0.00365134 -0.0265555,0.00547897 -0.0436435,0.00547897 -0.0315913,0 -0.0577782,-0.00408275 -0.0783057,-0.0121424 -0.0205314,-0.00806353 -0.035776,-0.0191313 -0.0458554,-0.0329954 -0.0100794,-0.01397 -0.0151191,-0.0296617 -0.0151191,-0.0470713 0,-0.0222453 0.00639278,-0.040298 0.0191744,-0.0540562 0.0129111,-0.0137543 0.0296264,-0.0238572 0.0501578,-0.030199 0.0205275,-0.00644769 0.0422904,-0.00956564 0.0652769,-0.00956564 0.0204059,0 0.0371252,0.00193744 0.0501578,0.00580449 0.0129071,0.00387097 0.0226218,0.0078439 0.0291322,0.0118208 0.00651436,0.00397686 0.00995783,0.00644769 0.010452,0.0075223 -0.00098441,-0.0378272 -0.00516521,-0.0686694 -0.0126601,-0.0925306 -0.0100833,-0.0327757 -0.0275399,-0.0491107 -0.0524953,-0.0491107 -0.0163467,0 -0.0306108,0.00440435 -0.0429022,0.0133268 -0.0122914,0.00891852 -0.0229866,0.0198804 -0.0320855,0.0327757 -0.00909893,0.0128954 -0.0172095,0.0256849 -0.0244651,0.0382586l-0.0082361 0.0135425 -0.0400745 -0.0869418c0.0601157,-0.0152603 0.111128,-0.0229983 0.153172,-0.0229983 0.0388469,0 0.0706892,0.00655358 0.0953975,0.0195588 0.0247044,0.0130052 0.0430238,0.0312736 0.0549465,0.0548093 0.0118051,0.0234297 0.0178253,0.0510481 0.0178253,0.0827492l0 0.0734032c0,0.0226767 0.00270615,0.0391175 0.00811452,0.0492205 0.00541229,0.0102088 0.0142641,0.0152603 0.0268026,0.0152603 -0.0186881,0.013217 -0.0400745,0.0198804 -0.064171,0.0198804zm-0.131048 -0.020202c0.0100794,0 0.018441,-0.00140014 0.025077,-0.00419257 0.00651828,-0.00279243 0.0118051,-0.00612609 0.0157388,-0.00978135 0.0040553,-0.00365134 0.0068791,-0.00687518 0.00848318,-0.00956172l0.00258064 -0.00440827 0 -0.0963976 -0.000368663 -0.0003216c-0.000494166,-0.000968722 -0.00233748,-0.00322777 -0.00565937,-0.00677321 -0.00319247,-0.00343955 -0.00811059,-0.00676929 -0.014872,-0.00999313 -0.00675752,-0.00333366 -0.0154878,-0.00494558 -0.0263045,-0.00494558 -0.00983625,0 -0.019547,0.00279635 -0.0290146,0.00816942 -0.00946759,0.00547897 -0.0172095,0.0135425 -0.0233552,0.0240729 -0.00614962,0.0106403 -0.00922443,0.023967 -0.00922443,0.0398706 0,0.0228924 0.00577703,0.0409452 0.017335,0.054272 0.0114325,0.0133268 0.0247122,0.0199902 0.0395842,0.0199902z"/>
  <path id="12" class="fil0" d="M2.41203 0.495593l-0.20382 0c0.00885184,-0.00193352 0.0168409,-0.00483577 0.0238494,-0.00902833 0.00712618,-0.00408275 0.0127856,-0.010099 0.0170879,-0.0180527 0.00442396,-0.00795372 0.00651436,-0.0188058 0.00651436,-0.0324541l0 -0.101669c-0.00123149,-0.0422316 -0.00799294,-0.0744739 -0.0202843,-0.0969349 -0.0124169,-0.022461 -0.0299951,-0.0337445 -0.0528601,-0.0337445 -0.0207785,0 -0.0418002,0.00945582 -0.0629434,0.0283714 0.0143818,0.0207393 0.0226179,0.0498637 0.0248299,0.0871575l0 0.116819c0,0.0136484 0.0022159,0.0245004 0.00651828,0.0324541 0.00430238,0.00795372 0.0100833,0.01397 0.0172095,0.0180527 0.00725561,0.00419257 0.0151191,0.00709481 0.0238494,0.00902833l-0.203945 0c0.00897342,-0.00193352 0.0169664,-0.00483577 0.0239749,-0.00902833 0.00713011,-0.00408275 0.0127816,-0.010099 0.017084,-0.0180527 0.00442788,-0.00795372 0.00651828,-0.0188058 0.00651828,-0.0324541l0 -0.116819c-0.000494166,-0.0247201 -0.00270615,-0.0459966 -0.00663986,-0.0638376 -0.00393372,-0.017841 -0.0103265,-0.0317011 -0.0190528,-0.0414825 -0.00885184,-0.00967153 -0.0211432,-0.0146171 -0.0370036,-0.0146171 -0.0157388,0 -0.0327012,0.00741641 -0.0507697,0.0223551l0.00221198 0.214401c0,0.0136484 0.0020904,0.0245004 0.00651436,0.0324541 0.00430238,0.00795372 0.0100794,0.01397 0.0172134,0.0180527 0.00724776,0.00419257 0.0151191,0.00709481 0.0238494,0.00902833l-0.203949 0c0.00872634,-0.00193352 0.0165977,-0.00483577 0.0238494,-0.00902833 0.00713011,-0.00408275 0.0129071,-0.010099 0.0172095,-0.0180527 0.00442788,-0.00795372 0.00651436,-0.0188058 0.00651436,-0.0324541l-0.00208648 -0.183559c0,-0.0136484 -0.0022159,-0.0243945 -0.00651828,-0.0324541 -0.00430238,-0.00795372 -0.0100794,-0.01397 -0.0173311,-0.0180567 -0.00713011,-0.00408275 -0.015123,-0.00709089 -0.0237278,-0.00902441 0.0347916,0 0.0640494,-0.000647122 0.0876556,-0.00204334 0.0237239,-0.00129032 0.0465889,-0.00462006 0.0685949,-0.00988724l0 0.0242886c0.00602019,-0.00354544 0.0130287,-0.00730659 0.0211432,-0.0110717 0.00798901,-0.00376115 0.017335,-0.00687518 0.0280302,-0.00945582 0.0106912,-0.00247083 0.0228611,-0.00376115 0.036631,-0.00376115 0.020653,0 0.0394587,0.00311795 0.0566683,0.00934993 0.0172174,0.00612609 0.0318462,0.0156917 0.0441376,0.0284773 0.0100794,-0.00676929 0.0205275,-0.0128954 0.0314697,-0.01859 0.0109383,-0.00569467 0.0229905,-0.0103187 0.0362624,-0.0138641 0.0131542,-0.00354544 0.0281518,-0.00537307 0.0449965,-0.00537307 0.0436395,0 0.0780586,0.0134327 0.103139,0.0401922 0.025077,0.0267595 0.0383567,0.0644808 0.0398313,0.113164l0 0.101669c0,0.0136484 0.00221198,0.0245004 0.00651436,0.0324541 0.00430238,0.00795372 0.0100794,0.01397 0.0172095,0.0180527 0.00725561,0.00419257 0.015123,0.00709481 0.0238494,0.00902833z"/>
  <path id="123" class="fil0" d="M2.74911 0.495593c-0.0383567,0 -0.061959,-0.0109619 -0.0705637,-0.0327757 -0.00503971,0.00418864 -0.0116796,0.00881262 -0.0197941,0.0138602 -0.00811059,0.00505147 -0.0181939,0.00945975 -0.0302382,0.013115 -0.0120522,0.00365134 -0.0265555,0.00547897 -0.0436435,0.00547897 -0.0315913,0 -0.0577782,-0.00408275 -0.0783057,-0.0121424 -0.0205314,-0.00806353 -0.035776,-0.0191313 -0.0458554,-0.0329954 -0.0100794,-0.01397 -0.0151191,-0.0296617 -0.0151191,-0.0470713 0,-0.0222453 0.00639278,-0.040298 0.0191744,-0.0540562 0.0129111,-0.0137543 0.0296264,-0.0238572 0.0501578,-0.030199 0.0205275,-0.00644769 0.0422904,-0.00956564 0.0652769,-0.00956564 0.0204059,0 0.0371252,0.00193744 0.0501578,0.00580449 0.0129071,0.00387097 0.0226218,0.0078439 0.0291322,0.0118208 0.00651436,0.00397686 0.00995783,0.00644769 0.010452,0.0075223 -0.00098441,-0.0378272 -0.00516521,-0.0686694 -0.0126601,-0.0925306 -0.0100833,-0.0327757 -0.0275399,-0.0491107 -0.0524953,-0.0491107 -0.0163467,0 -0.0306108,0.00440435 -0.0429022,0.0133268 -0.0122914,0.00891852 -0.0229866,0.0198804 -0.0320855,0.0327757 -0.00909893,0.0128954 -0.0172095,0.0256849 -0.0244651,0.0382586l-0.0082361 0.0135425 -0.0400745 -0.0869418c0.0601157,-0.0152603 0.111128,-0.0229983 0.153172,-0.0229983 0.0388469,0 0.0706892,0.00655358 0.0953975,0.0195588 0.0247044,0.0130052 0.0430238,0.0312736 0.0549465,0.0548093 0.0118051,0.0234297 0.0178253,0.0510481 0.0178253,0.0827492l0 0.0734032c0,0.0226767 0.00270615,0.0391175 0.00811452,0.0492205 0.00541229,0.0102088 0.0142641,0.0152603 0.0268026,0.0152603 -0.0186881,0.013217 -0.0400745,0.0198804 -0.064171,0.0198804zm-0.131048 -0.020202c0.0100794,0 0.018441,-0.00140014 0.025077,-0.00419257 0.00651828,-0.00279243 0.0118051,-0.00612609 0.0157388,-0.00978135 0.0040553,-0.00365134 0.0068791,-0.00687518 0.00848318,-0.00956172l0.00258064 -0.00440827 0 -0.0963976 -0.000368663 -0.0003216c-0.000494166,-0.000968722 -0.00233748,-0.00322777 -0.00565937,-0.00677321 -0.00319247,-0.00343955 -0.00811059,-0.00676929 -0.014872,-0.00999313 -0.00675752,-0.00333366 -0.0154878,-0.00494558 -0.0263045,-0.00494558 -0.00983625,0 -0.019547,0.00279635 -0.0290146,0.00816942 -0.00946759,0.00547897 -0.0172095,0.0135425 -0.0233552,0.0240729 -0.00614962,0.0106403 -0.00922443,0.023967 -0.00922443,0.0398706 0,0.0228924 0.00577703,0.0409452 0.017335,0.054272 0.0114325,0.0133268 0.0247122,0.0199902 0.0395842,0.0199902z"/>
  <path id="1234" class="fil0" d="M3.26517 0.495593l-0.20382 0c0.00860476,-0.00193352 0.0165977,-0.00494166 0.0237278,-0.00913422 0.00725169,-0.00419257 0.0130287,-0.0104245 0.0173311,-0.0186999 0.00430238,-0.00838121 0.00651828,-0.0196647 0.00651828,-0.0341759l0 -0.0818903c0,-0.0484675 -0.00565545,-0.0859731 -0.0167193,-0.112411 -0.0111893,-0.0264379 -0.0285204,-0.0396548 -0.0521227,-0.0396548 -0.0174566,0 -0.034423,0.00698499 -0.0507697,0.0210609l0 0.212895c0,0.0260104 0.00798901,0.0436317 0.0238494,0.0528757 0.00712618,0.00419257 0.0151191,0.0072007 0.0237239,0.00913422l-0.203824 0c0.00860476,-0.00193352 0.0164761,-0.00494166 0.0237278,-0.00913422 0.00725169,-0.00419257 0.0130287,-0.0104245 0.0173311,-0.0186999 0.00430238,-0.00838121 0.00639278,-0.0196647 0.00639278,-0.0341759l0 -0.181084c0,-0.0136484 -0.0020904,-0.0243945 -0.00639278,-0.0322384 -0.00430238,-0.00784782 -0.0100794,-0.0138641 -0.0173311,-0.0179468 -0.00725169,-0.00408667 -0.015123,-0.00709481 -0.0237278,-0.00902833 0.0347916,0 0.0640494,-0.000647122 0.0876517,-0.00204334 0.0236062,-0.00129032 0.0464673,-0.00462006 0.0685988,-0.00988724l0 0.0242886c0.0100794,-0.00676929 0.021759,-0.0124679 0.0349132,-0.0171938 0.0132719,-0.00472987 0.0301167,-0.00709481 0.0507697,-0.00709481 0.0269203,0 0.0511383,0.00634179 0.0726502,0.0190215 0.0215158,0.0127895 0.0384783,0.0306304 0.0511383,0.0537346 0.0125385,0.0231081 0.0189352,0.0502951 0.0189352,0.0815687l0 0.0979037c0,0.0145112 0.0020904,0.0257947 0.00639278,0.0341759 0.00430238,0.00827532 0.0100794,0.0145073 0.0170879,0.0186999 0.00712618,0.00419257 0.0151191,0.0072007 0.023967,0.00913422z"/>
  <path id="12345" class="fil0" d="M3.45277 0.495593c-0.0325757,0 -0.0612217,-0.00612609 -0.0858044,-0.0183783 -0.0245906,-0.0123581 -0.043769,-0.0299833 -0.057535,-0.0530875 -0.0136445,-0.0231042 -0.0205314,-0.0507265 -0.0205314,-0.0828591 0,-0.035678 0.00725561,-0.0654495 0.0215158,-0.0891969 0.0142563,-0.0238611 0.0330699,-0.0416982 0.0565506,-0.0535189 0.0233552,-0.0119306 0.0488008,-0.017841 0.0760898,-0.017841 0.0307363,0 0.0581468,0.00805961 0.0821217,0.0242886l0 -0.107363c0,-0.0136484 -0.0020904,-0.0243945 -0.00639278,-0.0322384 -0.00442788,-0.00795372 -0.0100794,-0.0139739 -0.017335,-0.0181626 -0.00725169,-0.00419257 -0.0152446,-0.0072007 -0.0240965,-0.00913422 0.0350387,0 0.0643004,-0.000647122 0.0879027,-0.00182763 0.0234768,-0.00129032 0.0462202,-0.00451417 0.0683478,-0.00978135l0.000368663 0.468136 -0.0953975 -0.0396588 -0.00430238 0.00634179c-0.00270222,0.00397686 -0.00737719,0.00859692 -0.0138915,0.01397 -0.00663594,0.00537307 -0.0153623,0.0101029 -0.0263045,0.0141857 -0.0109422,0.00408667 -0.0247122,0.00612609 -0.041306,0.00612609zm0.0202804 -0.0138641c0.00885184,0 0.0172174,-0.00182371 0.0252064,-0.00537307 0.00786351,-0.00354544 0.0143818,-0.00881262 0.0194215,-0.0159035 0.00503971,-0.00698499 0.00749877,-0.0159074 0.00749877,-0.0265438l0 -0.212895c-0.00811452,-0.00731052 -0.0170879,-0.0127895 -0.0267987,-0.0165506 -0.00971467,-0.00365526 -0.019547,-0.00548289 -0.0293833,-0.00548289 -0.0119227,0 -0.022865,0.00515737 -0.0325718,0.015476 -0.00971467,0.0102088 -0.0174605,0.0259006 -0.0232376,0.0468555 -0.00577703,0.0210648 -0.00860868,0.0477184 -0.00860868,0.0799568 0,0.0464281 0.00602804,0.0814628 0.0179508,0.104998 0.0120482,0.0236415 0.028893,0.0354623 0.0505226,0.0354623z"/>
  <path id="123456" class="fil1 str0" d="M1.1623 0.495272c-0.0554446,0 -0.106336,-0.0078439 -0.152682,-0.0236415l-0.0209001 0.0236415 0 -0.145512c0.00737719,0.0237513 0.0196686,0.045675 0.036882,0.065877 0.0172095,0.0200961 0.0376194,0.036431 0.0612217,0.0488989 0.0237239,0.0125738 0.0486793,0.0188058 0.0751093,0.0188058 0.0161035,0 0.0302422,-0.00300814 0.0422865,-0.00881262 0.0121737,-0.00591038 0.0216374,-0.0135386 0.0282773,-0.0228885 0.00676144,-0.00934993 0.0100794,-0.0192372 0.0100794,-0.0297676 0,-0.0141857 -0.00503971,-0.0271909 -0.015123,-0.0387999 -0.0100794,-0.0117109 -0.0231081,-0.0226728 -0.0392117,-0.0329914 -0.0161035,-0.0102088 -0.0336856,-0.0205275 -0.0526169,-0.0308422 -0.0172095,-0.00945975 -0.034419,-0.019347 -0.0512599,-0.0298774 -0.0169664,-0.0105304 -0.0324541,-0.0220296 -0.0463457,-0.0344975 -0.0138915,-0.0124679 -0.0250809,-0.0263281 -0.0336856,-0.0416982 -0.00848318,-0.0153662 -0.0127856,-0.0327757 -0.0127856,-0.0522286 0,-0.0235356 0.0082361,-0.0440631 0.0245906,-0.0615785 0.0162251,-0.0175194 0.037737,-0.0311677 0.064167,-0.0409452 0.0265516,-0.00978135 0.0553191,-0.0146171 0.0862986,-0.0146171 0.0244612,0 0.045977,0.00193352 0.0645396,0.00580449 0.018441,0.00386704 0.0381096,0.00977742 0.0590057,0.017837l0.0205314 -0.0236415 0 0.128746c-0.0120482,-0.0367526 -0.0314697,-0.0653397 -0.0585155,-0.0859731 -0.0270418,-0.0205275 -0.0559349,-0.0308422 -0.0866673,-0.0308422 -0.0247083,0 -0.0445024,0.00569467 -0.0596215,0.0171938 -0.0149975,0.0113893 -0.0225002,0.025575 -0.0225002,0.0423414 0,0.0138641 0.00504363,0.0264379 0.015123,0.0377213 0.0100833,0.0113933 0.0232376,0.0222453 0.0394627,0.0326698 0.016229,0.0103187 0.0339288,0.0207432 0.0531032,0.0312736 0.0178292,0.00967153 0.0354074,0.0199902 0.0529895,0.0308461 0.0175782,0.0109619 0.0335562,0.0228885 0.0480635,0.0357839 0.0145073,0.0128993 0.0261829,0.0272968 0.0351603,0.0433101 0.00885184,0.0159074 0.0132758,0.0338543 0.0132758,0.0538445 0,0.0207393 -0.00762427,0.0397607 -0.0228689,0.0570644 -0.0152368,0.0173036 -0.0362624,0.0312736 -0.063061,0.0418041 -0.0266771,0.0104245 -0.0575311,0.0156917 -0.0923227,0.0156917z"/>
  <path id="1234567" class="fil1 str0" d="M1.67763 0.495593c-0.0383567,0 -0.061959,-0.0109619 -0.0705637,-0.0327757 -0.00503971,0.00418864 -0.0116796,0.00881262 -0.0197941,0.0138602 -0.00811059,0.00505147 -0.0181939,0.00945975 -0.0302382,0.013115 -0.0120522,0.00365134 -0.0265555,0.00547897 -0.0436435,0.00547897 -0.0315913,0 -0.0577782,-0.00408275 -0.0783057,-0.0121424 -0.0205314,-0.00806353 -0.035776,-0.0191313 -0.0458554,-0.0329954 -0.0100794,-0.01397 -0.0151191,-0.0296617 -0.0151191,-0.0470713 0,-0.0222453 0.00639278,-0.040298 0.0191744,-0.0540562 0.0129111,-0.0137543 0.0296264,-0.0238572 0.0501578,-0.030199 0.0205275,-0.00644769 0.0422904,-0.00956564 0.0652769,-0.00956564 0.0204059,0 0.0371252,0.00193744 0.0501578,0.00580449 0.0129071,0.00387097 0.0226218,0.0078439 0.0291322,0.0118208 0.00651436,0.00397686 0.00995783,0.00644769 0.010452,0.0075223 -0.00098441,-0.0378272 -0.00516521,-0.0686694 -0.0126601,-0.0925306 -0.0100833,-0.0327757 -0.0275399,-0.0491107 -0.0524953,-0.0491107 -0.0163467,0 -0.0306108,0.00440435 -0.0429022,0.0133268 -0.0122914,0.00891852 -0.0229866,0.0198804 -0.0320855,0.0327757 -0.00909893,0.0128954 -0.0172095,0.0256849 -0.0244651,0.0382586l-0.0082361 0.0135425 -0.0400745 -0.0869418c0.0601157,-0.0152603 0.111128,-0.0229983 0.153172,-0.0229983 0.0388469,0 0.0706892,0.00655358 0.0953975,0.0195588 0.0247044,0.0130052 0.0430238,0.0312736 0.0549465,0.0548093 0.0118051,0.0234297 0.0178253,0.0510481 0.0178253,0.0827492l0 0.0734032c0,0.0226767 0.00270615,0.0391175 0.00811452,0.0492205 0.00541229,0.0102088 0.0142641,0.0152603 0.0268026,0.0152603 -0.0186881,0.013217 -0.0400745,0.0198804 -0.064171,0.0198804zm-0.131048 -0.020202c0.0100794,0 0.018441,-0.00140014 0.025077,-0.00419257 0.00651828,-0.00279243 0.0118051,-0.00612609 0.0157388,-0.00978135 0.0040553,-0.00365134 0.0068791,-0.00687518 0.00848318,-0.00956172l0.00258064 -0.00440827 0 -0.0963976 -0.000368663 -0.0003216c-0.000494166,-0.000968722 -0.00233748,-0.00322777 -0.00565937,-0.00677321 -0.00319247,-0.00343955 -0.00811059,-0.00676929 -0.014872,-0.00999313 -0.00675752,-0.00333366 -0.0154878,-0.00494558 -0.0263045,-0.00494558 -0.00983625,0 -0.019547,0.00279635 -0.0290146,0.00816942 -0.00946759,0.00547897 -0.0172095,0.0135425 -0.0233552,0.0240729 -0.00614962,0.0106403 -0.00922443,0.023967 -0.00922443,0.0398706 0,0.0228924 0.00577703,0.0409452 0.017335,0.054272 0.0114325,0.0133268 0.0247122,0.0199902 0.0395842,0.0199902z"/>
  <path id="12345678" class="fil1 str0" d="M2.41203 0.495593l-0.20382 0c0.00885184,-0.00193352 0.0168409,-0.00483577 0.0238494,-0.00902833 0.00712618,-0.00408275 0.0127856,-0.010099 0.0170879,-0.0180527 0.00442396,-0.00795372 0.00651436,-0.0188058 0.00651436,-0.0324541l0 -0.101669c-0.00123149,-0.0422316 -0.00799294,-0.0744739 -0.0202843,-0.0969349 -0.0124169,-0.022461 -0.0299951,-0.0337445 -0.0528601,-0.0337445 -0.0207785,0 -0.0418002,0.00945582 -0.0629434,0.0283714 0.0143818,0.0207393 0.0226179,0.0498637 0.0248299,0.0871575l0 0.116819c0,0.0136484 0.0022159,0.0245004 0.00651828,0.0324541 0.00430238,0.00795372 0.0100833,0.01397 0.0172095,0.0180527 0.00725561,0.00419257 0.0151191,0.00709481 0.0238494,0.00902833l-0.203945 0c0.00897342,-0.00193352 0.0169664,-0.00483577 0.0239749,-0.00902833 0.00713011,-0.00408275 0.0127816,-0.010099 0.017084,-0.0180527 0.00442788,-0.00795372 0.00651828,-0.0188058 0.00651828,-0.0324541l0 -0.116819c-0.000494166,-0.0247201 -0.00270615,-0.0459966 -0.00663986,-0.0638376 -0.00393372,-0.017841 -0.0103265,-0.0317011 -0.0190528,-0.0414825 -0.00885184,-0.00967153 -0.0211432,-0.0146171 -0.0370036,-0.0146171 -0.0157388,0 -0.0327012,0.00741641 -0.0507697,0.0223551l0.00221198 0.214401c0,0.0136484 0.0020904,0.0245004 0.00651436,0.0324541 0.00430238,0.00795372 0.0100794,0.01397 0.0172134,0.0180527 0.00724776,0.00419257 0.0151191,0.00709481 0.0238494,0.00902833l-0.203949 0c0.00872634,-0.00193352 0.0165977,-0.00483577 0.0238494,-0.00902833 0.00713011,-0.00408275 0.0129071,-0.010099 0.0172095,-0.0180527 0.00442788,-0.00795372 0.00651436,-0.0188058 0.00651436,-0.0324541l-0.00208648 -0.183559c0,-0.0136484 -0.0022159,-0.0243945 -0.00651828,-0.0324541 -0.00430238,-0.00795372 -0.0100794,-0.01397 -0.0173311,-0.0180567 -0.00713011,-0.00408275 -0.015123,-0.00709089 -0.0237278,-0.00902441 0.0347916,0 0.0640494,-0.000647122 0.0876556,-0.00204334 0.0237239,-0.00129032 0.0465889,-0.00462006 0.0685949,-0.00988724l0 0.0242886c0.00602019,-0.00354544 0.0130287,-0.00730659 0.0211432,-0.0110717 0.00798901,-0.00376115 0.017335,-0.00687518 0.0280302,-0.00945582 0.0106912,-0.00247083 0.0228611,-0.00376115 0.036631,-0.00376115 0.020653,0 0.0394587,0.00311795 0.0566683,0.00934993 0.0172174,0.00612609 0.0318462,0.0156917 0.0441376,0.0284773 0.0100794,-0.00676929 0.0205275,-0.0128954 0.0314697,-0.01859 0.0109383,-0.00569467 0.0229905,-0.0103187 0.0362624,-0.0138641 0.0131542,-0.00354544 0.0281518,-0.00537307 0.0449965,-0.00537307 0.0436395,0 0.0780586,0.0134327 0.103139,0.0401922 0.025077,0.0267595 0.0383567,0.0644808 0.0398313,0.113164l0 0.101669c0,0.0136484 0.00221198,0.0245004 0.00651436,0.0324541 0.00430238,0.00795372 0.0100794,0.01397 0.0172095,0.0180527 0.00725561,0.00419257 0.015123,0.00709481 0.0238494,0.00902833z"/>
  <path id="123456789" class="fil1 str0" d="M2.74911 0.495593c-0.0383567,0 -0.061959,-0.0109619 -0.0705637,-0.0327757 -0.00503971,0.00418864 -0.0116796,0.00881262 -0.0197941,0.0138602 -0.00811059,0.00505147 -0.0181939,0.00945975 -0.0302382,0.013115 -0.0120522,0.00365134 -0.0265555,0.00547897 -0.0436435,0.00547897 -0.0315913,0 -0.0577782,-0.00408275 -0.0783057,-0.0121424 -0.0205314,-0.00806353 -0.035776,-0.0191313 -0.0458554,-0.0329954 -0.0100794,-0.01397 -0.0151191,-0.0296617 -0.0151191,-0.0470713 0,-0.0222453 0.00639278,-0.040298 0.0191744,-0.0540562 0.0129111,-0.0137543 0.0296264,-0.0238572 0.0501578,-0.030199 0.0205275,-0.00644769 0.0422904,-0.00956564 0.0652769,-0.00956564 0.0204059,0 0.0371252,0.00193744 0.0501578,0.00580449 0.0129071,0.00387097 0.0226218,0.0078439 0.0291322,0.0118208 0.00651436,0.00397686 0.00995783,0.00644769 0.010452,0.0075223 -0.00098441,-0.0378272 -0.00516521,-0.0686694 -0.0126601,-0.0925306 -0.0100833,-0.0327757 -0.0275399,-0.0491107 -0.0524953,-0.0491107 -0.0163467,0 -0.0306108,0.00440435 -0.0429022,0.0133268 -0.0122914,0.00891852 -0.0229866,0.0198804 -0.0320855,0.0327757 -0.00909893,0.0128954 -0.0172095,0.0256849 -0.0244651,0.0382586l-0.0082361 0.0135425 -0.0400745 -0.0869418c0.0601157,-0.0152603 0.111128,-0.0229983 0.153172,-0.0229983 0.0388469,0 0.0706892,0.00655358 0.0953975,0.0195588 0.0247044,0.0130052 0.0430238,0.0312736 0.0549465,0.0548093 0.0118051,0.0234297 0.0178253,0.0510481 0.0178253,0.0827492l0 0.0734032c0,0.0226767 0.00270615,0.0391175 0.00811452,0.0492205 0.00541229,0.0102088 0.0142641,0.0152603 0.0268026,0.0152603 -0.0186881,0.013217 -0.0400745,0.0198804 -0.064171,0.0198804zm-0.131048 -0.020202c0.0100794,0 0.018441,-0.00140014 0.025077,-0.00419257 0.00651828,-0.00279243 0.0118051,-0.00612609 0.0157388,-0.00978135 0.0040553,-0.00365134 0.0068791,-0.00687518 0.00848318,-0.00956172l0.00258064 -0.00440827 0 -0.0963976 -0.000368663 -0.0003216c-0.000494166,-0.000968722 -0.00233748,-0.00322777 -0.00565937,-0.00677321 -0.00319247,-0.00343955 -0.00811059,-0.00676929 -0.014872,-0.00999313 -0.00675752,-0.00333366 -0.0154878,-0.00494558 -0.0263045,-0.00494558 -0.00983625,0 -0.019547,0.00279635 -0.0290146,0.00816942 -0.00946759,0.00547897 -0.0172095,0.0135425 -0.0233552,0.0240729 -0.00614962,0.0106403 -0.00922443,0.023967 -0.00922443,0.0398706 0,0.0228924 0.00577703,0.0409452 0.017335,0.054272 0.0114325,0.0133268 0.0247122,0.0199902 0.0395842,0.0199902z"/>
  <path id="12345678910" class="fil1 str0" d="M3.26517 0.495593l-0.20382 0c0.00860476,-0.00193352 0.0165977,-0.00494166 0.0237278,-0.00913422 0.00725169,-0.00419257 0.0130287,-0.0104245 0.0173311,-0.0186999 0.00430238,-0.00838121 0.00651828,-0.0196647 0.00651828,-0.0341759l0 -0.0818903c0,-0.0484675 -0.00565545,-0.0859731 -0.0167193,-0.112411 -0.0111893,-0.0264379 -0.0285204,-0.0396548 -0.0521227,-0.0396548 -0.0174566,0 -0.034423,0.00698499 -0.0507697,0.0210609l0 0.212895c0,0.0260104 0.00798901,0.0436317 0.0238494,0.0528757 0.00712618,0.00419257 0.0151191,0.0072007 0.0237239,0.00913422l-0.203824 0c0.00860476,-0.00193352 0.0164761,-0.00494166 0.0237278,-0.00913422 0.00725169,-0.00419257 0.0130287,-0.0104245 0.0173311,-0.0186999 0.00430238,-0.00838121 0.00639278,-0.0196647 0.00639278,-0.0341759l0 -0.181084c0,-0.0136484 -0.0020904,-0.0243945 -0.00639278,-0.0322384 -0.00430238,-0.00784782 -0.0100794,-0.0138641 -0.0173311,-0.0179468 -0.00725169,-0.00408667 -0.015123,-0.00709481 -0.0237278,-0.00902833 0.0347916,0 0.0640494,-0.000647122 0.0876517,-0.00204334 0.0236062,-0.00129032 0.0464673,-0.00462006 0.0685988,-0.00988724l0 0.0242886c0.0100794,-0.00676929 0.021759,-0.0124679 0.0349132,-0.0171938 0.0132719,-0.00472987 0.0301167,-0.00709481 0.0507697,-0.00709481 0.0269203,0 0.0511383,0.00634179 0.0726502,0.0190215 0.0215158,0.0127895 0.0384783,0.0306304 0.0511383,0.0537346 0.0125385,0.0231081 0.0189352,0.0502951 0.0189352,0.0815687l0 0.0979037c0,0.0145112 0.0020904,0.0257947 0.00639278,0.0341759 0.00430238,0.00827532 0.0100794,0.0145073 0.0170879,0.0186999 0.00712618,0.00419257 0.0151191,0.0072007 0.023967,0.00913422z"/>
  <path id="1234567891011" class="fil1 str0" d="M3.45277 0.495593c-0.0325757,0 -0.0612217,-0.00612609 -0.0858044,-0.0183783 -0.0245906,-0.0123581 -0.043769,-0.0299833 -0.057535,-0.0530875 -0.0136445,-0.0231042 -0.0205314,-0.0507265 -0.0205314,-0.0828591 0,-0.035678 0.00725561,-0.0654495 0.0215158,-0.0891969 0.0142563,-0.0238611 0.0330699,-0.0416982 0.0565506,-0.0535189 0.0233552,-0.0119306 0.0488008,-0.017841 0.0760898,-0.017841 0.0307363,0 0.0581468,0.00805961 0.0821217,0.0242886l0 -0.107363c0,-0.0136484 -0.0020904,-0.0243945 -0.00639278,-0.0322384 -0.00442788,-0.00795372 -0.0100794,-0.0139739 -0.017335,-0.0181626 -0.00725169,-0.00419257 -0.0152446,-0.0072007 -0.0240965,-0.00913422 0.0350387,0 0.0643004,-0.000647122 0.0879027,-0.00182763 0.0234768,-0.00129032 0.0462202,-0.00451417 0.0683478,-0.00978135l0.000368663 0.468136 -0.0953975 -0.0396588 -0.00430238 0.00634179c-0.00270222,0.00397686 -0.00737719,0.00859692 -0.0138915,0.01397 -0.00663594,0.00537307 -0.0153623,0.0101029 -0.0263045,0.0141857 -0.0109422,0.00408667 -0.0247122,0.00612609 -0.041306,0.00612609zm0.0202804 -0.0138641c0.00885184,0 0.0172174,-0.00182371 0.0252064,-0.00537307 0.00786351,-0.00354544 0.0143818,-0.00881262 0.0194215,-0.0159035 0.00503971,-0.00698499 0.00749877,-0.0159074 0.00749877,-0.0265438l0 -0.212895c-0.00811452,-0.00731052 -0.0170879,-0.0127895 -0.0267987,-0.0165506 -0.00971467,-0.00365526 -0.019547,-0.00548289 -0.0293833,-0.00548289 -0.0119227,0 -0.022865,0.00515737 -0.0325718,0.015476 -0.00971467,0.0102088 -0.0174605,0.0259006 -0.0232376,0.0468555 -0.00577703,0.0210648 -0.00860868,0.0477184 -0.00860868,0.0799568 0,0.0464281 0.00602804,0.0814628 0.0179508,0.104998 0.0120482,0.0236415 0.028893,0.0354623 0.0505226,0.0354623z"/>
  <path class="fil0" d="M3.98936 0.400514c0,0.0107461 -0.00322384,0.0221394 -0.00967153,0.0343916 -0.00634179,0.0121424 -0.0161231,0.0237513 -0.0292342,0.0348191 -0.0131111,0.0109619 -0.0296617,0.0198804 -0.049648,0.0265438 -0.0198843,0.00676929 -0.0423453,0.0101029 -0.0672771,0.0101029 -0.0531973,0 -0.09457,-0.015476 -0.124447,-0.0464281 -0.0297676,-0.0309481 -0.0447063,-0.0724345 -0.0447063,-0.124553 0,-0.0352505 0.00676929,-0.0664182 0.0204177,-0.0934993 0.0136484,-0.0270811 0.0334229,-0.04804 0.0592136,-0.062763 0.0259006,-0.0148289 0.0567467,-0.0222453 0.0926404,-0.0222453 0.0222453,0 0.042663,0.00322384 0.0612569,0.00978135 0.0184842,0.00644769 0.0342818,0.0148289 0.0471771,0.0251475 0.0128954,0.0103147 0.0227826,0.0212766 0.0295558,0.0328856 0.00687518,0.0117149 0.0103147,0.0225669 0.0103147,0.03256 0,0.0103187 -0.00386704,0.0190254 -0.0114992,0.0262261 -0.00773801,0.00709089 -0.0169781,0.0106363 -0.02794,0.0106363 -0.00709481,0 -0.0130052,-0.00182763 -0.0177311,-0.00547897 -0.00472987,-0.00365526 -0.00999705,-0.00967153 -0.0159074,-0.017841 -0.0105304,-0.0159035 -0.0214923,-0.0278341 -0.0328856,-0.0358937 -0.0114992,-0.00795372 -0.0260065,-0.0119306 -0.0436317,-0.0119306 -0.0253633,0 -0.0458907,0.00988724 -0.0613628,0.0297715 -0.0155858,0.0197745 -0.0233238,0.0469614 -0.0233238,0.081353 0,0.0162251 0.00204334,0.0310579 0.00602019,0.0446004 0.00397686,0.0135386 0.00967153,0.0250377 0.0173036,0.0346034 0.0075223,0.00956564 0.0166565,0.0167663 0.0274027,0.021708 0.0106403,0.00494558 0.022461,0.00741641 0.0352505,0.00741641 0.0171938,0 0.0319168,-0.00397686 0.044169,-0.0119306 0.0123581,-0.00805961 0.023214,-0.020202 0.0326698,-0.0365369 0.00515737,-0.00967545 0.010856,-0.0171978 0.016982,-0.0226767 0.00601627,-0.00548289 0.0135386,-0.00816942 0.0223512,-0.00816942 0.0105344,0 0.0192372,0.00397686 0.0261163,0.0119306 0.0068791,0.00795372 0.0104245,0.0164408 0.0104245,0.0254691z"/>
  <path id="1" class="fil0" d="M4.28146 0.458547c-0.0208452,0.0161192 -0.0409452,0.0282655 -0.0602882,0.0363251 -0.0194529,0.00805961 -0.0412668,0.0121424 -0.0653397,0.0121424 -0.0221394,0 -0.0414825,-0.00440435 -0.0581429,-0.0131111 -0.0166565,-0.00870281 -0.0295519,-0.0204177 -0.0385802,-0.0353564 -0.00902833,-0.0149387 -0.0135425,-0.0310579 -0.0135425,-0.0484675 0,-0.0235356 0.00741641,-0.0435258 0.0223551,-0.0601823 0.0149387,-0.0165506 0.0353564,-0.0277282 0.0614727,-0.033317 0.00537307,-0.00129032 0.0189156,-0.00408275 0.0406236,-0.0084871 0.0216021,-0.00451417 0.0400863,-0.00849102 0.0555623,-0.0121463 0.0153662,-0.00376115 0.0321325,-0.0081655 0.0501853,-0.0134327 -0.00107461,-0.0226767 -0.00558878,-0.0393332 -0.0136484,-0.0498676 -0.0081655,-0.0106363 -0.0248259,-0.0159035 -0.0502951,-0.0159035 -0.0218139,0 -0.0382586,0.00300814 -0.0492205,0.00913422 -0.0110677,0.00612609 -0.0205275,0.0151544 -0.0283714,0.0274066 -0.0078439,0.0121424 -0.0134327,0.020202 -0.0166565,0.0240729 -0.00333366,0.00386704 -0.0103187,0.00580057 -0.0209589,0.00580057 -0.00967153,0 -0.0180527,-0.00311403 -0.0250377,-0.00934993 -0.00709481,-0.00612609 -0.0105344,-0.0140759 -0.0105344,-0.0237474 0,-0.0150485 0.00526718,-0.0297715 0.0160133,-0.0440631 0.0107461,-0.0142955 0.0274066,-0.0260065 0.0500794,-0.0352505 0.0226767,-0.00924404 0.0508324,-0.0138641 0.0846867,-0.0138641 0.0378311,0 0.0674889,0.00451417 0.089091,0.0134327 0.0216021,0.00892244 0.0368624,0.0229983 0.0457809,0.0423453 0.00892244,0.0192372 0.0134366,0.044922 0.0134366,0.0768389 0,0.0200961 -0.000109815,0.0372899 -0.000215707,0.0512638 -0.000109815,0.0140759 -0.000215707,0.0297676 -0.000431415,0.0469614 0,0.0161231 0.00268654,0.0329954 0.00805961,0.0505108 0.00537307,0.0175194 0.00795372,0.0288028 0.00795372,0.0338543 0,0.00881262 -0.00408275,0.0168722 -0.0123581,0.0240729 -0.00827532,0.0072007 -0.0177311,0.010852 -0.0281557,0.010852 -0.00881262,0 -0.0175194,-0.00418864 -0.0261163,-0.012464 -0.00870673,-0.00827532 -0.0177311,-0.0202059 -0.0274066,-0.0360035zm-0.00569467 -0.124342c-0.0125738,0.00462006 -0.030952,0.00945975 -0.0549152,0.0146171 -0.0240729,0.00515737 -0.0407295,0.00891852 -0.0499735,0.0113893 -0.00924404,0.00236494 -0.0180567,0.00709481 -0.0264379,0.0141857 -0.00838121,0.00698892 -0.0125738,0.0167663 -0.0125738,0.0293401 0,0.0131111 0.00494558,0.0241827 0.0148328,0.033317 0.00988724,0.00913422 0.0227826,0.0136484 0.0386861,0.0136484 0.016982,0 0.0326698,-0.00376115 0.0470713,-0.0111776 0.0144014,-0.00741641 0.0249318,-0.0170879 0.031705,-0.0288028 0.00773801,-0.0130013 0.0116051,-0.0343877 0.0116051,-0.0642651l0 -0.0122522z"/>
  <path id="12" class="fil0" d="M4.53261 0.382888l0 0.0718972c0,0.0174095 -0.00408275,0.0304147 -0.0122522,0.0391175 -0.0081655,0.00870673 -0.01859,0.0131111 -0.0311638,0.0131111 -0.0124679,0 -0.0225708,-0.00440435 -0.0306304,-0.013217 -0.00795372,-0.00881262 -0.0119267,-0.0218178 -0.0119267,-0.0390116l0 -0.239333c0,-0.0385802 0.01397,-0.0579233 0.04191,-0.0579233 0.0142955,0 0.0245043,0.00451024 0.0308461,0.0135386 0.00633787,0.00902833 0.00977742,0.0223551 0.0104245,0.0399804 0.0102088,-0.0176252 0.0207393,-0.030952 0.0315952,-0.0399804 0.010852,-0.00902833 0.0252534,-0.0135386 0.0433101,-0.0135386 0.0180527,0 0.0355721,0.00451024 0.0525502,0.0135386 0.016982,0.00902833 0.0254691,0.0209589 0.0254691,0.0358937 0,0.0104245 -0.00354544,0.0191313 -0.010852,0.0259006 -0.0072007,0.0068791 -0.0150446,0.0102088 -0.0234297,0.0102088 -0.00311403,0 -0.0107461,-0.00193352 -0.0227826,-0.00580057 -0.0121424,-0.00387097 -0.0227826,-0.00580449 -0.0320266,-0.00580449 -0.0125738,0 -0.0228885,0.00332974 -0.0308422,0.00988724 -0.00795372,0.00666339 -0.0141857,0.0164408 -0.018594,0.029446 -0.00440435,0.0130052 -0.00741249,0.0284812 -0.00913422,0.0465339 -0.00161192,0.0179468 -0.00247083,0.0397647 -0.00247083,0.0655554z"/>
  <path id="123" class="fil0" d="M4.74229 0.165157l0.00945582 0 0 -0.0516913c0,-0.0138641 0.0003216,-0.0247201 0.00107461,-0.032564 0.000753015,-0.00795372 0.00279243,-0.014723 0.00612609,-0.0203118 0.00343955,-0.00591038 0.00827532,-0.0106403 0.0145073,-0.0144014 0.00634179,-0.00365134 0.0133268,-0.00547897 0.0211707,-0.00547897 0.010856,0 0.0207432,0.00408275 0.0295558,0.0122522 0.00591038,0.00547897 0.00956564,0.0121424 0.0111776,0.0199863 0.00161192,0.00795372 0.00236101,0.0191313 0.00236101,0.0336386l0 0.0585704 0.0314893 0c0.0121463,0 0.0214962,0.00290224 0.0278341,0.00870673 0.00644769,0.00569467 0.00967153,0.0131111 0.00967153,0.0221355 0,0.0114992 -0.00462006,0.0196686 -0.0137543,0.0242886 -0.00913422,0.00462398 -0.0221394,0.0068791 -0.0392274,0.0068791l-0.0160133 0 0 0.15798c0,0.0134327 0.000431415,0.0238572 0.00140014,0.0310579 0.0009648,0.0072007 0.00343955,0.0131111 0.0075223,0.0176252 0.00418864,0.00451417 0.010852,0.00676929 0.0200961,0.00676929 0.00494166,0 0.0118208,-0.000858907 0.0204177,-0.00268654 0.00859692,-0.00182763 0.0153701,-0.00268654 0.0200961,-0.00268654 0.00698892,0 0.0132209,0.00279243 0.0188097,0.00838121 0.00558878,0.00558878 0.00827532,0.0123581 0.00827532,0.0206334 0,0.0138641 -0.0075223,0.0243985 -0.0226767,0.031705 -0.0150446,0.00741641 -0.0367526,0.0110677 -0.0651279,0.0110677 -0.0268654,0 -0.047283,-0.00451417 -0.0610412,-0.0135386 -0.0138641,-0.00902833 -0.0229983,-0.0214962 -0.0272968,-0.0375095 -0.00429846,-0.0159035 -0.00644769,-0.037184 -0.00644769,-0.0638337l0 -0.164965 -0.0112835 0c-0.0124679,0 -0.0219237,-0.00290224 -0.0283714,-0.00881262 -0.0065575,-0.00591038 -0.00978135,-0.0133268 -0.00978135,-0.0223551 0,-0.00902441 0.00343955,-0.0164408 0.0102088,-0.0221355 0.0068791,-0.00580449 0.0167663,-0.00870673 0.0297715,-0.00870673z"/>
  <path id="1234" class="fil1 str0" d="M3.98936 0.400514c0,0.0107461 -0.00322384,0.0221394 -0.00967153,0.0343916 -0.00634179,0.0121424 -0.0161231,0.0237513 -0.0292342,0.0348191 -0.0131111,0.0109619 -0.0296617,0.0198804 -0.049648,0.0265438 -0.0198843,0.00676929 -0.0423453,0.0101029 -0.0672771,0.0101029 -0.0531973,0 -0.09457,-0.015476 -0.124447,-0.0464281 -0.0297676,-0.0309481 -0.0447063,-0.0724345 -0.0447063,-0.124553 0,-0.0352505 0.00676929,-0.0664182 0.0204177,-0.0934993 0.0136484,-0.0270811 0.0334229,-0.04804 0.0592136,-0.062763 0.0259006,-0.0148289 0.0567467,-0.0222453 0.0926404,-0.0222453 0.0222453,0 0.042663,0.00322384 0.0612569,0.00978135 0.0184842,0.00644769 0.0342818,0.0148289 0.0471771,0.0251475 0.0128954,0.0103147 0.0227826,0.0212766 0.0295558,0.0328856 0.00687518,0.0117149 0.0103147,0.0225669 0.0103147,0.03256 0,0.0103187 -0.00386704,0.0190254 -0.0114992,0.0262261 -0.00773801,0.00709089 -0.0169781,0.0106363 -0.02794,0.0106363 -0.00709481,0 -0.0130052,-0.00182763 -0.0177311,-0.00547897 -0.00472987,-0.00365526 -0.00999705,-0.00967153 -0.0159074,-0.017841 -0.0105304,-0.0159035 -0.0214923,-0.0278341 -0.0328856,-0.0358937 -0.0114992,-0.00795372 -0.0260065,-0.0119306 -0.0436317,-0.0119306 -0.0253633,0 -0.0458907,0.00988724 -0.0613628,0.0297715 -0.0155858,0.0197745 -0.0233238,0.0469614 -0.0233238,0.081353 0,0.0162251 0.00204334,0.0310579 0.00602019,0.0446004 0.00397686,0.0135386 0.00967153,0.0250377 0.0173036,0.0346034 0.0075223,0.00956564 0.0166565,0.0167663 0.0274027,0.021708 0.0106403,0.00494558 0.022461,0.00741641 0.0352505,0.00741641 0.0171938,0 0.0319168,-0.00397686 0.044169,-0.0119306 0.0123581,-0.00805961 0.023214,-0.020202 0.0326698,-0.0365369 0.00515737,-0.00967545 0.010856,-0.0171978 0.016982,-0.0226767 0.00601627,-0.00548289 0.0135386,-0.00816942 0.0223512,-0.00816942 0.0105344,0 0.0192372,0.00397686 0.0261163,0.0119306 0.0068791,0.00795372 0.0104245,0.0164408 0.0104245,0.0254691z"/>
  <path id="12345" class="fil1 str0" d="M4.28146 0.458547c-0.0208452,0.0161192 -0.0409452,0.0282655 -0.0602882,0.0363251 -0.0194529,0.00805961 -0.0412668,0.0121424 -0.0653397,0.0121424 -0.0221394,0 -0.0414825,-0.00440435 -0.0581429,-0.0131111 -0.0166565,-0.00870281 -0.0295519,-0.0204177 -0.0385802,-0.0353564 -0.00902833,-0.0149387 -0.0135425,-0.0310579 -0.0135425,-0.0484675 0,-0.0235356 0.00741641,-0.0435258 0.0223551,-0.0601823 0.0149387,-0.0165506 0.0353564,-0.0277282 0.0614727,-0.033317 0.00537307,-0.00129032 0.0189156,-0.00408275 0.0406236,-0.0084871 0.0216021,-0.00451417 0.0400863,-0.00849102 0.0555623,-0.0121463 0.0153662,-0.00376115 0.0321325,-0.0081655 0.0501853,-0.0134327 -0.00107461,-0.0226767 -0.00558878,-0.0393332 -0.0136484,-0.0498676 -0.0081655,-0.0106363 -0.0248259,-0.0159035 -0.0502951,-0.0159035 -0.0218139,0 -0.0382586,0.00300814 -0.0492205,0.00913422 -0.0110677,0.00612609 -0.0205275,0.0151544 -0.0283714,0.0274066 -0.0078439,0.0121424 -0.0134327,0.020202 -0.0166565,0.0240729 -0.00333366,0.00386704 -0.0103187,0.00580057 -0.0209589,0.00580057 -0.00967153,0 -0.0180527,-0.00311403 -0.0250377,-0.00934993 -0.00709481,-0.00612609 -0.0105344,-0.0140759 -0.0105344,-0.0237474 0,-0.0150485 0.00526718,-0.0297715 0.0160133,-0.0440631 0.0107461,-0.0142955 0.0274066,-0.0260065 0.0500794,-0.0352505 0.0226767,-0.00924404 0.0508324,-0.0138641 0.0846867,-0.0138641 0.0378311,0 0.0674889,0.00451417 0.089091,0.0134327 0.0216021,0.00892244 0.0368624,0.0229983 0.0457809,0.0423453 0.00892244,0.0192372 0.0134366,0.044922 0.0134366,0.0768389 0,0.0200961 -0.000109815,0.0372899 -0.000215707,0.0512638 -0.000109815,0.0140759 -0.000215707,0.0297676 -0.000431415,0.0469614 0,0.0161231 0.00268654,0.0329954 0.00805961,0.0505108 0.00537307,0.0175194 0.00795372,0.0288028 0.00795372,0.0338543 0,0.00881262 -0.00408275,0.0168722 -0.0123581,0.0240729 -0.00827532,0.0072007 -0.0177311,0.010852 -0.0281557,0.010852 -0.00881262,0 -0.0175194,-0.00418864 -0.0261163,-0.012464 -0.00870673,-0.00827532 -0.0177311,-0.0202059 -0.0274066,-0.0360035zm-0.00569467 -0.124342c-0.0125738,0.00462006 -0.030952,0.00945975 -0.0549152,0.0146171 -0.0240729,0.00515737 -0.0407295,0.00891852 -0.0499735,0.0113893 -0.00924404,0.00236494 -0.0180567,0.00709481 -0.0264379,0.0141857 -0.00838121,0.00698892 -0.0125738,0.0167663 -0.0125738,0.0293401 0,0.0131111 0.00494558,0.0241827 0.0148328,0.033317 0.00988724,0.00913422 0.0227826,0.0136484 0.0386861,0.0136484 0.016982,0 0.0326698,-0.00376115 0.0470713,-0.0111776 0.0144014,-0.00741641 0.0249318,-0.0170879 0.031705,-0.0288028 0.00773801,-0.0130013 0.0116051,-0.0343877 0.0116051,-0.0642651l0 -0.0122522z"/>
  <path id="123456" class="fil1 str0" d="M4.53261 0.382888l0 0.0718972c0,0.0174095 -0.00408275,0.0304147 -0.0122522,0.0391175 -0.0081655,0.00870673 -0.01859,0.0131111 -0.0311638,0.0131111 -0.0124679,0 -0.0225708,-0.00440435 -0.0306304,-0.013217 -0.00795372,-0.00881262 -0.0119267,-0.0218178 -0.0119267,-0.0390116l0 -0.239333c0,-0.0385802 0.01397,-0.0579233 0.04191,-0.0579233 0.0142955,0 0.0245043,0.00451024 0.0308461,0.0135386 0.00633787,0.00902833 0.00977742,0.0223551 0.0104245,0.0399804 0.0102088,-0.0176252 0.0207393,-0.030952 0.0315952,-0.0399804 0.010852,-0.00902833 0.0252534,-0.0135386 0.0433101,-0.0135386 0.0180527,0 0.0355721,0.00451024 0.0525502,0.0135386 0.016982,0.00902833 0.0254691,0.0209589 0.0254691,0.0358937 0,0.0104245 -0.00354544,0.0191313 -0.010852,0.0259006 -0.0072007,0.0068791 -0.0150446,0.0102088 -0.0234297,0.0102088 -0.00311403,0 -0.0107461,-0.00193352 -0.0227826,-0.00580057 -0.0121424,-0.00387097 -0.0227826,-0.00580449 -0.0320266,-0.00580449 -0.0125738,0 -0.0228885,0.00332974 -0.0308422,0.00988724 -0.00795372,0.00666339 -0.0141857,0.0164408 -0.018594,0.029446 -0.00440435,0.0130052 -0.00741249,0.0284812 -0.00913422,0.0465339 -0.00161192,0.0179468 -0.00247083,0.0397647 -0.00247083,0.0655554z"/>
  <path id="1234567" class="fil1 str0" d="M4.74229 0.165157l0.00945582 0 0 -0.0516913c0,-0.0138641 0.0003216,-0.0247201 0.00107461,-0.032564 0.000753015,-0.00795372 0.00279243,-0.014723 0.00612609,-0.0203118 0.00343955,-0.00591038 0.00827532,-0.0106403 0.0145073,-0.0144014 0.00634179,-0.00365134 0.0133268,-0.00547897 0.0211707,-0.00547897 0.010856,0 0.0207432,0.00408275 0.0295558,0.0122522 0.00591038,0.00547897 0.00956564,0.0121424 0.0111776,0.0199863 0.00161192,0.00795372 0.00236101,0.0191313 0.00236101,0.0336386l0 0.0585704 0.0314893 0c0.0121463,0 0.0214962,0.00290224 0.0278341,0.00870673 0.00644769,0.00569467 0.00967153,0.0131111 0.00967153,0.0221355 0,0.0114992 -0.00462006,0.0196686 -0.0137543,0.0242886 -0.00913422,0.00462398 -0.0221394,0.0068791 -0.0392274,0.0068791l-0.0160133 0 0 0.15798c0,0.0134327 0.000431415,0.0238572 0.00140014,0.0310579 0.0009648,0.0072007 0.00343955,0.0131111 0.0075223,0.0176252 0.00418864,0.00451417 0.010852,0.00676929 0.0200961,0.00676929 0.00494166,0 0.0118208,-0.000858907 0.0204177,-0.00268654 0.00859692,-0.00182763 0.0153701,-0.00268654 0.0200961,-0.00268654 0.00698892,0 0.0132209,0.00279243 0.0188097,0.00838121 0.00558878,0.00558878 0.00827532,0.0123581 0.00827532,0.0206334 0,0.0138641 -0.0075223,0.0243985 -0.0226767,0.031705 -0.0150446,0.00741641 -0.0367526,0.0110677 -0.0651279,0.0110677 -0.0268654,0 -0.047283,-0.00451417 -0.0610412,-0.0135386 -0.0138641,-0.00902833 -0.0229983,-0.0214962 -0.0272968,-0.0375095 -0.00429846,-0.0159035 -0.00644769,-0.037184 -0.00644769,-0.0638337l0 -0.164965 -0.0112835 0c-0.0124679,0 -0.0219237,-0.00290224 -0.0283714,-0.00881262 -0.0065575,-0.00591038 -0.00978135,-0.0133268 -0.00978135,-0.0223551 0,-0.00902441 0.00343955,-0.0164408 0.0102088,-0.0221355 0.0068791,-0.00580449 0.0167663,-0.00870673 0.0297715,-0.00870673z"/>
  <path class="fil2 str1" d="M0.528879 0.499241c0.00579272,0.00825571 0.00606726,-0.000466712 0.00488675,-0.0083969 -0.000917736,-0.00616923 -0.00518482,-0.0110521 0.00746739,-0.0123032 0.0011609,-0.000113737 0.00232964,-0.000239239 0.0035023,-0.000372585 0.0364114,-0.00412981 0.0785998,-0.0168683 0.106587,-0.0266928 0.0158839,-0.00557309 0.030803,-0.00839297 0.0442827,-0.00880478 0.00123541,-3.92195e-005 0.00245906,-5.49073e-005 0.00366702,-5.49073e-005 0.00163153,3.92195e-006 0.00312187,2.35317e-005 0.00447887,6.27512e-005 0.00891459,0.000254927 -0.00825571,0.00960094 -0.0080047,0.0117149 0.000317678,0.00272183 0.0160878,-0.00109422 0.0121149,0.00572997 -0.00330228,0.00567114 -0.00613785,0.012962 -0.00526718,0.0222022 -0.00500049,-0.00950289 -0.000827532,-0.0118992 0.00078439,-0.0113266 0.000729483,0.000262771 0.008844,0.00115698 0.00142367,0.00223943 -0.00158447,0.000231395 -0.00341994,0.000470634 -0.00553779,0.000717717 -0.00138053,0.0001608 -0.00277282,0.000337288 -0.0041808,0.000537307 -0.0120247,0.00168644 -0.0251711,0.00476909 -0.0391489,0.00941268 -0.0359682,0.011958 -0.0764231,0.0240847 -0.110591,0.0228767 -0.0028944,-0.000101971 -0.00574566,-0.00030199 -0.00854593,-0.00060398 -0.00151779,-0.000164722 -0.00284734,-0.000239239 -0.00400431,-0.000239239 -0.00347877,-3.92195e-006 0.0018041,0.00500049 0.000874595,0.0059143 -0.00409844,0.00402392 0.00425532,0.00862437 -0.0047887,-0.012613z"/>
  <path class="fil2 str1" d="M0.0153231 0.143971c0.26281,-0.0584488 0.316203,0.0367448 0.472164,-0.00268654 0.152929,-0.0386626 0.309473,-0.0470281 0.362808,0.0738033 -0.0367604,-0.0812001 -0.208934,-0.053966 -0.337872,-0.021006 -0.0502127,0.0128365 -0.130679,0.0403608 -0.178421,0.024069 -0.0586489,-0.0200059 -0.129087,-0.112721 -0.301735,-0.0301127 -0.00107461,0.000513776 -0.00207471,0.00168252 -0.00324345,0.00156486 -0.0379292,-0.000172566 -0.0307246,-0.043565 -0.0136994,-0.0456319z"/>
  <path class="fil2 str1" d="M0.208832 0.223065c0.0459221,0.085322 0.197576,0.061657 0.314278,0.026179 0.141429,-0.0429963 0.307167,-0.0520247 0.351866,0.0729326 -0.0449652,-0.0792548 -0.200506,-0.0604333 -0.32684,-0.0198294 -0.233368,0.0749955 -0.30554,0.0184449 -0.339304,-0.0792822z"/>
  <path class="fil2 str1" d="M0.307818 0.356666c0.0495617,0.0611707 0.158741,0.0312932 0.255339,0.00418864 0.116627,-0.0327208 0.231619,-0.0565388 0.283796,0.0443769 -0.0238768,-0.0410314 -0.167883,-0.0368389 -0.271356,-0.00297284 -0.182484,0.0597274 -0.238937,0.0219865 -0.267779,-0.0455927z"/>
  <path class="fil2 str1" d="M0.414236 0.0468085c0.0277988,0.0356466 0.0891538,0.0223826 0.145351,0.00919305 0.0678458,-0.015927 0.148458,-0.0354897 0.162039,0.0216766 -0.0160878,-0.0308226 -0.0914717,-0.00918129 -0.152227,0.00596921 -0.10534,0.0262653 -0.142916,0.00705951 -0.155164,-0.0368389z"/>
  <path class="fil2" d="M4.09043 0c0.0501304,0.075074 0.17428,0.0576527 0.288142,0.0396274 0.137464,-0.0217629 0.300892,-0.048895 0.319557,0.0669477 -0.0275203,-0.0637474 -0.180841,-0.0317011 -0.304069,-0.0104442 -0.21366,0.0368624 -0.285679,-0.00690263 -0.30363,-0.0961309z"/>
  <ellipse class="fil3 str2" cx="0.493944" cy="0.500016" rx="0.0420584" ry="0.0396452"/>
  <ellipse class="fil3 str2" cx="0.740064" cy="0.464924" rx="0.043993" ry="0.0414688"/>
 </g>
</svg>
