<?xml version="1.0" encoding="UTF-8"?>
<!DOCTYPE svg PUBLIC "-//W3C//DTD SVG 1.1//EN" "http://www.w3.org/Graphics/SVG/1.1/DTD/svg11.dtd">
<!-- Creator: CorelDRAW -->
<svg xmlns="http://www.w3.org/2000/svg" xml:space="preserve" width="3.99869in" height="0.435264in" style="shape-rendering:geometricPrecision; text-rendering:geometricPrecision; image-rendering:optimizeQuality; fill-rule:evenodd; clip-rule:evenodd"
viewBox="0 0 3.77095 0.410474"
 xmlns:xlink="http://www.w3.org/1999/xlink">
 <defs>
  <style type="text/css">
   <![CDATA[
    .str2 {stroke:#E77817;stroke-width:0.00282914}
    .str0 {stroke:white;stroke-width:0.00654563}
    .str1 {stroke:#E69830;stroke-width:0.0261937}
    .fil3 {fill:none}
    .fil1 {fill:none;fill-rule:nonzero}
    .fil0 {fill:white;fill-rule:nonzero}
    .fil7 {fill:url(#id0)}
    .fil2 {fill:url(#id1)}
    .fil8 {fill:url(#id2)}
    .fil6 {fill:url(#id3)}
    .fil4 {fill:url(#id4)}
    .fil5 {fill:url(#id5)}
   ]]>
  </style>
  <linearGradient id="id0" gradientUnits="userSpaceOnUse" x1="0.515972" y1="0.104184" x2="0.296443" y2="0.0195404">
   <stop offset="0" style="stop-color:#F09116"/>
   <stop offset="0.219608" style="stop-color:#E98A2D"/>
   <stop offset="0.678431" style="stop-color:#F0A71E"/>
   <stop offset="1" style="stop-color:#F6CB00"/>
  </linearGradient>
  <linearGradient id="id1" gradientUnits="userSpaceOnUse" x1="0.387614" y1="0.268991" x2="0.50796" y2="0.437403">
   <stop offset="0" style="stop-color:#FF9166"/>
   <stop offset="0.4" style="stop-color:#E69333"/>
   <stop offset="0.678431" style="stop-color:#F0A71E"/>
   <stop offset="1" style="stop-color:#F6CB00"/>
  </linearGradient>
  <linearGradient id="id2" gradientUnits="userSpaceOnUse" xlink:href="#id0" x1="3.2486" y1="-0.196135" x2="3.44502" y2="0.278544">
  </linearGradient>
  <linearGradient id="id3" gradientUnits="userSpaceOnUse" xlink:href="#id1" x1="0.284321" y1="0.13363" x2="0.541624" y2="0.445615">
  </linearGradient>
  <linearGradient id="id4" gradientUnits="userSpaceOnUse" x1="0.518129" y1="0.377682" x2="0.0902762" y2="-0.0837492">
   <stop offset="0" style="stop-color:#FF9D57"/>
   <stop offset="0.360784" style="stop-color:#F7992D"/>
   <stop offset="0.678431" style="stop-color:#F0A71E"/>
   <stop offset="1" style="stop-color:#F6CB00"/>
  </linearGradient>
  <linearGradient id="id5" gradientUnits="userSpaceOnUse" x1="0.33708" y1="0.367628" x2="0.438141" y2="0.0567795">
   <stop offset="0" style="stop-color:#FFB700"/>
   <stop offset="0.0196078" style="stop-color:#F0A71E"/>
   <stop offset="0.439216" style="stop-color:#EC9B34"/>
   <stop offset="1" style="stop-color:#F6CB00"/>
  </linearGradient>
 </defs>
 <g id="Layer_x0020_1">
  <metadata id="CorelCorpID_0Corel-Layer"/>
  <path class="fil0" d="M0.847791 0.382962c-0.0428677,0 -0.0822195,-0.00606668 -0.118055,-0.0182817l-0.0161617 0.0182817 0 -0.112516c0.00570283,0.0183671 0.0152075,0.0353197 0.0285179,0.0509393 0.0133066,0.0155417 0.0290896,0.0281726 0.0473379,0.0378109 0.0183448,0.00972377 0.0376402,0.014543 0.058079,0.014543 0.0124527,0 0.0233831,-0.00232791 0.0326984,-0.00681666 0.00940818,-0.00457043 0.0167261,-0.01047 0.0218608,-0.0176988 0.00522759,-0.00722878 0.00779312,-0.0148734 0.00779312,-0.0230192 0,-0.0109675 -0.00389471,-0.0210218 -0.0116915,-0.0299955 -0.00779312,-0.00905918 -0.0178659,-0.0175355 -0.0303186,-0.0255105 -0.0124527,-0.00789708 -0.0260489,-0.0158721 -0.0406846,-0.0238509 -0.0133066,-0.00731046 -0.0266169,-0.0149588 -0.0396376,-0.0231009 -0.0131172,-0.00814212 -0.0250984,-0.0170342 -0.0358395,-0.0266726 -0.0107374,-0.00964209 -0.0193844,-0.0203609 -0.0260414,-0.0322418 -0.00656048,-0.0118846 -0.00988713,-0.0253471 -0.00988713,-0.0403876 0,-0.0181963 0.00637113,-0.0340685 0.0190094,-0.0476127 0.0125492,-0.0135479 0.0291862,-0.0240996 0.0496213,-0.0316626 0.0205317,-0.00756293 0.0427749,-0.0113017 0.0667261,-0.0113017 0.0189166,0 0.0355536,0.00149625 0.0499072,0.00448875 0.0142571,0.0029925 0.0294646,0.00756293 0.0456263,0.013793l0.0158758 -0.0182817 0 0.0995507c-0.00931908,-0.0284176 -0.0243373,-0.0505235 -0.0452476,-0.0664773 -0.0209141,-0.0158721 -0.0432539,-0.0238472 -0.0670157,-0.0238472 -0.019106,0 -0.03441,0.00440336 -0.0461016,0.0132955 -0.0115987,0.00880671 -0.0173944,0.019778 -0.0173944,0.0327393 0,0.0107188 0.00389842,0.0204426 0.0116915,0.0291676 0.00779312,0.00880671 0.0179661,0.0172013 0.0305116,0.0252617 0.0125492,0.00797876 0.0262382,0.0160392 0.0410633,0.0241813 0.0137855,0.00747754 0.0273743,0.0154563 0.0409705,0.0238472 0.0135888,0.00847627 0.0259486,0.0177025 0.0371649,0.0276713 0.0112163,0.00997252 0.0202458,0.0211071 0.027185,0.0334893 0.00684265,0.0123004 0.0102658,0.0261751 0.0102658,0.0416314 0,0.0160392 -0.00589218,0.0307455 -0.0176803,0.0441264 -0.0117844,0.0133771 -0.0280389,0.0241813 -0.0487599,0.0323235 -0.0206282,0.00806044 -0.0444865,0.0121334 -0.0713893,0.0121334z"/>
  <path id="1" class="fil0" d="M1.24626 0.383211c-0.029654,0 -0.0479097,-0.00847627 -0.0545593,-0.0253434 -0.00389842,0.00324126 -0.00903319,0.00681295 -0.0153078,0.0107188 -0.00627088,0.00390584 -0.014064,0.00731418 -0.0233831,0.0101396 -0.00931165,0.00282542 -0.0205317,0.00423628 -0.0337417,0.00423628 -0.0244301,0 -0.0446759,-0.00315586 -0.0605517,-0.00938962 -0.0158721,-0.00623376 -0.0276602,-0.0147917 -0.0354533,-0.0255105 -0.00779684,-0.0108042 -0.0116915,-0.0229375 -0.0116915,-0.0363964 0,-0.0172013 0.00494542,-0.0311614 0.0148251,-0.0417985 0.00998366,-0.0106371 0.0229116,-0.0184488 0.0387837,-0.0233497 0.0158758,-0.00498626 0.0326984,-0.00739586 0.0504789,-0.00739586 0.0157756,0 0.0287035,0.00149254 0.0387763,0.00448504 0.00998366,0.0029925 0.0174909,0.00606668 0.0225329,0.00914086 0.00503453,0.00307418 0.00769288,0.00498626 0.00807529,0.00581793 -0.000757407,-0.0292493 -0.00399124,-0.0531002 -0.00978689,-0.071549 -0.00779684,-0.0253434 -0.0212965,-0.0379743 -0.0405881,-0.0379743 -0.0126457,0 -0.023669,0.00340833 -0.0331737,0.010303 -0.00950471,0.00689834 -0.0177805,0.0153746 -0.0248125,0.0253471 -0.007032,0.00997252 -0.0133066,0.0198597 -0.0189166,0.0295834l-0.0063637 0.01047 -0.0309906 -0.0672273c0.0464803,-0.0117992 0.0859286,-0.0177842 0.118438,-0.0177842 0.0300364,0 0.0546558,0.00507166 0.0737618,0.0151259 0.019106,0.0100542 0.0332665,0.0241813 0.042489,0.0423777 0.00912601,0.0181184 0.0137855,0.0394743 0.0137855,0.063986l0 0.0567573c0,0.0175317 0.00209029,0.030248 0.00627088,0.038056 0.00418059,0.00789708 0.011027,0.0118029 0.020721,0.0118029 -0.0144464,0.0102176 -0.0309869,0.0153709 -0.0496176,0.0153709zm-0.101329 -0.0156234c0.00779312,0 0.0142571,-0.00108042 0.0193918,-0.00323754 0.00503824,-0.00216084 0.0091223,-0.00473751 0.0121705,-0.00756293 0.00313359,-0.00282542 0.00532041,-0.00532041 0.00655677,-0.00739586l0.00199376 -0.00340833 0 -0.0745378 -0.000282171 -0.000248756c-0.000382416,-0.000749981 -0.00180441,-0.00249499 -0.00437365,-0.00523502 -0.00247271,-0.00265835 -0.0062746,-0.00523502 -0.0115022,-0.00773001 -0.00522759,-0.00257296 -0.0119774,-0.00382045 -0.0203386,-0.00382045 -0.00760748,0 -0.0151147,0.00216084 -0.0224363,0.00631544 -0.00731789,0.00423628 -0.0133066,0.01047 -0.018059,0.0186122 -0.00475236,0.00822752 -0.00713225,0.0185305 -0.00713225,0.0308309 0,0.0176988 0.00447019,0.0316589 0.0134031,0.0419618 0.00884384,0.0103067 0.0191097,0.0154563 0.0306082,0.0154563z"/>
  <path id="12" class="fil0" d="M1.81412 0.383211l-0.157604 0c0.00684265,-0.00149625 0.0130207,-0.00373877 0.0184414,-0.00698002 0.00551348,-0.00315586 0.00988713,-0.00781169 0.0132138,-0.01396 0.00342318,-0.00614836 0.00503453,-0.014543 0.00503453,-0.0250947l0 -0.0786107c-0.000950471,-0.0326576 -0.00617806,-0.0575852 -0.0156828,-0.0749536 -0.00959753,-0.0173684 -0.0231937,-0.0260934 -0.040874,-0.0260934 -0.0160615,0 -0.032316,0.00731418 -0.0486671,0.0219388 0.0111235,0.0160355 0.0174909,0.0385572 0.0192025,0.0673907l0 0.0903282c0,0.0105517 0.00171159,0.0189463 0.00503824,0.0250947 0.00332665,0.00614836 0.00779312,0.0108042 0.0133066,0.01396 0.0056063,0.00324126 0.0116953,0.00548377 0.0184414,0.00698002l-0.157693 0c0.00693918,-0.00149625 0.0131135,-0.00373877 0.0185305,-0.00698002 0.00551348,-0.00315586 0.00988713,-0.00781169 0.0132138,-0.01396 0.00342318,-0.00614836 0.00503824,-0.014543 0.00503824,-0.0250947l0 -0.0903282c-0.000378703,-0.0191134 -0.00209029,-0.0355647 -0.00513106,-0.0493614 -0.00304077,-0.013793 -0.00798619,-0.0245118 -0.0147323,-0.0320747 -0.00684636,-0.00747754 -0.0163511,-0.0113017 -0.0286144,-0.0113017 -0.0121668,0 -0.025284,0.00573624 -0.0392589,0.0172867l0.00171159 0.165779c0,0.0105517 0.00161877,0.0189463 0.00503824,0.0250947 0.00333036,0.00614836 0.00779684,0.0108042 0.0133103,0.01396 0.0056063,0.00324126 0.0116915,0.00548377 0.0184414,0.00698002l-0.157697 0c0.00674983,-0.00149625 0.0128314,-0.00373877 0.0184414,-0.00698002 0.00550976,-0.00315586 0.00997995,-0.00781169 0.0133029,-0.01396 0.00342318,-0.00614836 0.00503824,-0.014543 0.00503824,-0.0250947l-0.00161506 -0.141932c0,-0.0105517 -0.00171159,-0.0188609 -0.00503453,-0.0250947 -0.00333036,-0.00614836 -0.00779684,-0.0108042 -0.0134031,-0.01396 -0.00551348,-0.00315958 -0.0116915,-0.00548377 -0.0183486,-0.00698002 0.0268991,0 0.0495248,-0.000497512 0.0677731,-0.00157793 0.0183486,-0.000998738 0.0360288,-0.00357541 0.0530408,-0.00764833l0 0.018783c0.00465954,-0.00274374 0.0100802,-0.00565085 0.0163511,-0.00856167 0.00618178,-0.00290711 0.0134031,-0.0053167 0.0216752,-0.00731046 0.00826836,-0.00191208 0.0176803,-0.00291082 0.0283248,-0.00291082 0.0159687,0 0.0305116,0.00241331 0.0438182,0.00723249 0.0133103,0.00473379 0.0246194,0.0121296 0.0341242,0.0220205 0.00779684,-0.00523502 0.0158758,-0.00997252 0.0243336,-0.0143759 0.00846142,-0.00440336 0.0177768,-0.00797876 0.0280426,-0.0107188 0.0101693,-0.00274374 0.021768,-0.00415831 0.0347887,-0.00415831 0.0337455,0 0.0603587,0.0103884 0.0797505,0.0310797 0.0193918,0.0206913 0.0296577,0.0498589 0.0308012,0.0875028l0 0.0786107c0,0.0105517 0.00171159,0.0189463 0.00503453,0.0250947 0.00332665,0.00614836 0.00779312,0.0108042 0.0133103,0.01396 0.0056063,0.00324126 0.0116878,0.00548377 0.0184414,0.00698002z"/>
  <path id="123" class="fil0" d="M2.07476 0.383211c-0.029654,0 -0.0479097,-0.00847627 -0.0545593,-0.0253434 -0.00389842,0.00324126 -0.00903319,0.00681295 -0.0153078,0.0107188 -0.00627088,0.00390584 -0.014064,0.00731418 -0.0233831,0.0101396 -0.00931165,0.00282542 -0.0205317,0.00423628 -0.0337417,0.00423628 -0.0244301,0 -0.0446759,-0.00315586 -0.0605517,-0.00938962 -0.0158721,-0.00623376 -0.0276602,-0.0147917 -0.0354533,-0.0255105 -0.00779684,-0.0108042 -0.0116915,-0.0229375 -0.0116915,-0.0363964 0,-0.0172013 0.00494542,-0.0311614 0.0148251,-0.0417985 0.00998366,-0.0106371 0.0229116,-0.0184488 0.0387837,-0.0233497 0.0158758,-0.00498626 0.0326984,-0.00739586 0.0504789,-0.00739586 0.0157756,0 0.0287035,0.00149254 0.0387763,0.00448504 0.00998366,0.0029925 0.0174909,0.00606668 0.0225329,0.00914086 0.00503453,0.00307418 0.00769288,0.00498626 0.00807529,0.00581793 -0.000757407,-0.0292493 -0.00399124,-0.0531002 -0.00978689,-0.071549 -0.00779684,-0.0253434 -0.0212965,-0.0379743 -0.0405881,-0.0379743 -0.0126457,0 -0.023669,0.00340833 -0.0331737,0.010303 -0.00950471,0.00689834 -0.0177805,0.0153746 -0.0248125,0.0253471 -0.007032,0.00997252 -0.0133066,0.0198597 -0.0189166,0.0295834l-0.0063637 0.01047 -0.0309906 -0.0672273c0.0464803,-0.0117992 0.0859286,-0.0177842 0.118438,-0.0177842 0.0300364,0 0.0546558,0.00507166 0.0737618,0.0151259 0.019106,0.0100542 0.0332665,0.0241813 0.042489,0.0423777 0.00912601,0.0181184 0.0137855,0.0394743 0.0137855,0.063986l0 0.0567573c0,0.0175317 0.00209029,0.030248 0.00627088,0.038056 0.00418059,0.00789708 0.011027,0.0118029 0.020721,0.0118029 -0.0144464,0.0102176 -0.0309869,0.0153709 -0.0496176,0.0153709zm-0.101329 -0.0156234c0.00779312,0 0.0142571,-0.00108042 0.0193918,-0.00323754 0.00503824,-0.00216084 0.0091223,-0.00473751 0.0121705,-0.00756293 0.00313359,-0.00282542 0.00532041,-0.00532041 0.00655677,-0.00739586l0.00199376 -0.00340833 0 -0.0745378 -0.000282171 -0.000248756c-0.000382416,-0.000749981 -0.00180441,-0.00249499 -0.00437365,-0.00523502 -0.00247271,-0.00265835 -0.0062746,-0.00523502 -0.0115022,-0.00773001 -0.00522759,-0.00257296 -0.0119774,-0.00382045 -0.0203386,-0.00382045 -0.00760748,0 -0.0151147,0.00216084 -0.0224363,0.00631544 -0.00731789,0.00423628 -0.0133066,0.01047 -0.018059,0.0186122 -0.00475236,0.00822752 -0.00713225,0.0185305 -0.00713225,0.0308309 0,0.0176988 0.00447019,0.0316589 0.0134031,0.0419618 0.00884384,0.0103067 0.0191097,0.0154563 0.0306082,0.0154563z"/>
  <path id="1234" class="fil0" d="M2.47379 0.383211l-0.1576 0c0.0066533,-0.00149625 0.0128351,-0.00382045 0.0183448,-0.00706171 0.00561001,-0.00324126 0.0100802,-0.00806044 0.0134031,-0.0144613 0.00332665,-0.0064788 0.00503824,-0.0152038 0.00503824,-0.0264238l0 -0.0633214c0,-0.0374768 -0.00436994,-0.0664773 -0.0129279,-0.0869199 -0.00865078,-0.0204426 -0.0220502,-0.0306638 -0.0403022,-0.0306638 -0.0134997,0 -0.0266132,0.00540209 -0.0392552,0.016288l0 0.164617c0,0.0201084 0.00617806,0.033738 0.0184377,0.0408851 0.00551348,0.00324126 0.0116915,0.00556546 0.0183486,0.00706171l-0.157604 0c0.00665701,-0.00149625 0.0127385,-0.00382045 0.0183486,-0.00706171 0.0056063,-0.00324126 0.0100728,-0.00806044 0.0133994,-0.0144613 0.00333036,-0.0064788 0.00494171,-0.0152038 0.00494171,-0.0264238l0 -0.14002c0,-0.0105517 -0.00161135,-0.0188609 -0.00494171,-0.0249276 -0.00332665,-0.00606668 -0.00779312,-0.0107188 -0.0133994,-0.0138784 -0.00561001,-0.00315586 -0.0116915,-0.00548377 -0.0183486,-0.00698002 0.0269028,0 0.0495248,-0.000497512 0.0677768,-0.00157793 0.0182483,-0.000998738 0.0359286,-0.00357541 0.0530408,-0.00764461l0 0.0187792c0.00779312,-0.00523502 0.0168226,-0.00963837 0.0269919,-0.0132955 0.0102658,-0.00365709 0.0232903,-0.00548377 0.0392589,-0.00548377 0.0208138,0 0.0395411,0.00490087 0.0561743,0.0147063 0.016637,0.00989084 0.0297579,0.0236838 0.0395448,0.0415497 0.00969778,0.0178659 0.0146395,0.0388876 0.0146395,0.063069l0 0.0757036c0,0.01122 0.00161506,0.019945 0.00494542,0.0264238 0.00332294,0.00640083 0.00779312,0.01122 0.0132101,0.0144613 0.00551348,0.00324126 0.0116915,0.00556546 0.0185342,0.00706171z"/>
  <path id="12345" class="fil0" d="M2.61885 0.383211c-0.0251912,0 -0.0473379,-0.00473751 -0.0663474,-0.0142088 -0.0190131,-0.00955669 -0.033842,-0.0231863 -0.0444865,-0.0410522 -0.0105517,-0.0178659 -0.0158758,-0.0392218 -0.0158758,-0.0640677 0,-0.0275859 0.00561001,-0.0506052 0.0166333,-0.0689686 0.0110307,-0.0184488 0.0255736,-0.0322418 0.0437291,-0.0413826 0.018059,-0.00922626 0.037733,-0.0137967 0.0588364,-0.0137967 0.0237618,0 0.0449618,0.00623376 0.0634997,0.018783l0 -0.0830177c0,-0.0105517 -0.00161877,-0.0188609 -0.00494542,-0.0249276 -0.00342318,-0.00614836 -0.00779312,-0.0108042 -0.0134031,-0.0140417 -0.0056063,-0.00324126 -0.0117844,-0.00556917 -0.0186307,-0.00706542 0.0270921,0 0.0497141,-0.000497512 0.0679624,-0.00141086 0.0181592,-0.000998738 0.0357429,-0.00349001 0.0528514,-0.00756293l0.000285884 0.361974 -0.0737618 -0.0306638 -0.00332665 0.00490087c-0.00209029,0.00307789 -0.00570283,0.00664959 -0.0107411,0.0108042 -0.00513477,0.0041546 -0.0118846,0.00781169 -0.0203423,0.0109675 -0.00846142,0.00315958 -0.0191022,0.00473751 -0.0319373,0.00473751zm0.0156828 -0.0107188c0.00684265,0 0.0133066,-0.00141457 0.0194847,-0.0041546 0.00608525,-0.00274374 0.0111235,-0.00681295 0.0150182,-0.0123004 0.00389842,-0.00539838 0.00580307,-0.0122967 0.00580307,-0.0205242l0 -0.164617c-0.0062746,-0.00565085 -0.0132138,-0.00988713 -0.020721,-0.0127942 -0.00751467,-0.00282542 -0.0151147,-0.00423999 -0.0227222,-0.00423999 -0.00922254,0 -0.0176803,0.00399124 -0.0251912,0.0119663 -0.00750724,0.00789337 -0.013496,0.0200267 -0.0179624,0.0362293 -0.00447019,0.016288 -0.00665701,0.0368976 -0.00665701,0.0618252 0,0.0358989 0.00465954,0.0629873 0.0138784,0.0811873 0.00931908,0.0182817 0.0223398,0.0274226 0.0390696,0.0274226z"/>
  <path id="123456" class="fil1 str0" d="M0.847791 0.382962c-0.0428677,0 -0.0822195,-0.00606668 -0.118055,-0.0182817l-0.0161617 0.0182817 0 -0.112516c0.00570283,0.0183671 0.0152075,0.0353197 0.0285179,0.0509393 0.0133066,0.0155417 0.0290896,0.0281726 0.0473379,0.0378109 0.0183448,0.00972377 0.0376402,0.014543 0.058079,0.014543 0.0124527,0 0.0233831,-0.00232791 0.0326984,-0.00681666 0.00940818,-0.00457043 0.0167261,-0.01047 0.0218608,-0.0176988 0.00522759,-0.00722878 0.00779312,-0.0148734 0.00779312,-0.0230192 0,-0.0109675 -0.00389471,-0.0210218 -0.0116915,-0.0299955 -0.00779312,-0.00905918 -0.0178659,-0.0175355 -0.0303186,-0.0255105 -0.0124527,-0.00789708 -0.0260489,-0.0158721 -0.0406846,-0.0238509 -0.0133066,-0.00731046 -0.0266169,-0.0149588 -0.0396376,-0.0231009 -0.0131172,-0.00814212 -0.0250984,-0.0170342 -0.0358395,-0.0266726 -0.0107374,-0.00964209 -0.0193844,-0.0203609 -0.0260414,-0.0322418 -0.00656048,-0.0118846 -0.00988713,-0.0253471 -0.00988713,-0.0403876 0,-0.0181963 0.00637113,-0.0340685 0.0190094,-0.0476127 0.0125492,-0.0135479 0.0291862,-0.0240996 0.0496213,-0.0316626 0.0205317,-0.00756293 0.0427749,-0.0113017 0.0667261,-0.0113017 0.0189166,0 0.0355536,0.00149625 0.0499072,0.00448875 0.0142571,0.0029925 0.0294646,0.00756293 0.0456263,0.013793l0.0158758 -0.0182817 0 0.0995507c-0.00931908,-0.0284176 -0.0243373,-0.0505235 -0.0452476,-0.0664773 -0.0209141,-0.0158721 -0.0432539,-0.0238472 -0.0670157,-0.0238472 -0.019106,0 -0.03441,0.00440336 -0.0461016,0.0132955 -0.0115987,0.00880671 -0.0173944,0.019778 -0.0173944,0.0327393 0,0.0107188 0.00389842,0.0204426 0.0116915,0.0291676 0.00779312,0.00880671 0.0179661,0.0172013 0.0305116,0.0252617 0.0125492,0.00797876 0.0262382,0.0160392 0.0410633,0.0241813 0.0137855,0.00747754 0.0273743,0.0154563 0.0409705,0.0238472 0.0135888,0.00847627 0.0259486,0.0177025 0.0371649,0.0276713 0.0112163,0.00997252 0.0202458,0.0211071 0.027185,0.0334893 0.00684265,0.0123004 0.0102658,0.0261751 0.0102658,0.0416314 0,0.0160392 -0.00589218,0.0307455 -0.0176803,0.0441264 -0.0117844,0.0133771 -0.0280389,0.0241813 -0.0487599,0.0323235 -0.0206282,0.00806044 -0.0444865,0.0121334 -0.0713893,0.0121334z"/>
  <path id="1234567" class="fil1 str0" d="M1.24626 0.383211c-0.029654,0 -0.0479097,-0.00847627 -0.0545593,-0.0253434 -0.00389842,0.00324126 -0.00903319,0.00681295 -0.0153078,0.0107188 -0.00627088,0.00390584 -0.014064,0.00731418 -0.0233831,0.0101396 -0.00931165,0.00282542 -0.0205317,0.00423628 -0.0337417,0.00423628 -0.0244301,0 -0.0446759,-0.00315586 -0.0605517,-0.00938962 -0.0158721,-0.00623376 -0.0276602,-0.0147917 -0.0354533,-0.0255105 -0.00779684,-0.0108042 -0.0116915,-0.0229375 -0.0116915,-0.0363964 0,-0.0172013 0.00494542,-0.0311614 0.0148251,-0.0417985 0.00998366,-0.0106371 0.0229116,-0.0184488 0.0387837,-0.0233497 0.0158758,-0.00498626 0.0326984,-0.00739586 0.0504789,-0.00739586 0.0157756,0 0.0287035,0.00149254 0.0387763,0.00448504 0.00998366,0.0029925 0.0174909,0.00606668 0.0225329,0.00914086 0.00503453,0.00307418 0.00769288,0.00498626 0.00807529,0.00581793 -0.000757407,-0.0292493 -0.00399124,-0.0531002 -0.00978689,-0.071549 -0.00779684,-0.0253434 -0.0212965,-0.0379743 -0.0405881,-0.0379743 -0.0126457,0 -0.023669,0.00340833 -0.0331737,0.010303 -0.00950471,0.00689834 -0.0177805,0.0153746 -0.0248125,0.0253471 -0.007032,0.00997252 -0.0133066,0.0198597 -0.0189166,0.0295834l-0.0063637 0.01047 -0.0309906 -0.0672273c0.0464803,-0.0117992 0.0859286,-0.0177842 0.118438,-0.0177842 0.0300364,0 0.0546558,0.00507166 0.0737618,0.0151259 0.019106,0.0100542 0.0332665,0.0241813 0.042489,0.0423777 0.00912601,0.0181184 0.0137855,0.0394743 0.0137855,0.063986l0 0.0567573c0,0.0175317 0.00209029,0.030248 0.00627088,0.038056 0.00418059,0.00789708 0.011027,0.0118029 0.020721,0.0118029 -0.0144464,0.0102176 -0.0309869,0.0153709 -0.0496176,0.0153709zm-0.101329 -0.0156234c0.00779312,0 0.0142571,-0.00108042 0.0193918,-0.00323754 0.00503824,-0.00216084 0.0091223,-0.00473751 0.0121705,-0.00756293 0.00313359,-0.00282542 0.00532041,-0.00532041 0.00655677,-0.00739586l0.00199376 -0.00340833 0 -0.0745378 -0.000282171 -0.000248756c-0.000382416,-0.000749981 -0.00180441,-0.00249499 -0.00437365,-0.00523502 -0.00247271,-0.00265835 -0.0062746,-0.00523502 -0.0115022,-0.00773001 -0.00522759,-0.00257296 -0.0119774,-0.00382045 -0.0203386,-0.00382045 -0.00760748,0 -0.0151147,0.00216084 -0.0224363,0.00631544 -0.00731789,0.00423628 -0.0133066,0.01047 -0.018059,0.0186122 -0.00475236,0.00822752 -0.00713225,0.0185305 -0.00713225,0.0308309 0,0.0176988 0.00447019,0.0316589 0.0134031,0.0419618 0.00884384,0.0103067 0.0191097,0.0154563 0.0306082,0.0154563z"/>
  <path id="12345678" class="fil1 str0" d="M1.81412 0.383211l-0.157604 0c0.00684265,-0.00149625 0.0130207,-0.00373877 0.0184414,-0.00698002 0.00551348,-0.00315586 0.00988713,-0.00781169 0.0132138,-0.01396 0.00342318,-0.00614836 0.00503453,-0.014543 0.00503453,-0.0250947l0 -0.0786107c-0.000950471,-0.0326576 -0.00617806,-0.0575852 -0.0156828,-0.0749536 -0.00959753,-0.0173684 -0.0231937,-0.0260934 -0.040874,-0.0260934 -0.0160615,0 -0.032316,0.00731418 -0.0486671,0.0219388 0.0111235,0.0160355 0.0174909,0.0385572 0.0192025,0.0673907l0 0.0903282c0,0.0105517 0.00171159,0.0189463 0.00503824,0.0250947 0.00332665,0.00614836 0.00779312,0.0108042 0.0133066,0.01396 0.0056063,0.00324126 0.0116953,0.00548377 0.0184414,0.00698002l-0.157693 0c0.00693918,-0.00149625 0.0131135,-0.00373877 0.0185305,-0.00698002 0.00551348,-0.00315586 0.00988713,-0.00781169 0.0132138,-0.01396 0.00342318,-0.00614836 0.00503824,-0.014543 0.00503824,-0.0250947l0 -0.0903282c-0.000378703,-0.0191134 -0.00209029,-0.0355647 -0.00513106,-0.0493614 -0.00304077,-0.013793 -0.00798619,-0.0245118 -0.0147323,-0.0320747 -0.00684636,-0.00747754 -0.0163511,-0.0113017 -0.0286144,-0.0113017 -0.0121668,0 -0.025284,0.00573624 -0.0392589,0.0172867l0.00171159 0.165779c0,0.0105517 0.00161877,0.0189463 0.00503824,0.0250947 0.00333036,0.00614836 0.00779684,0.0108042 0.0133103,0.01396 0.0056063,0.00324126 0.0116915,0.00548377 0.0184414,0.00698002l-0.157697 0c0.00674983,-0.00149625 0.0128314,-0.00373877 0.0184414,-0.00698002 0.00550976,-0.00315586 0.00997995,-0.00781169 0.0133029,-0.01396 0.00342318,-0.00614836 0.00503824,-0.014543 0.00503824,-0.0250947l-0.00161506 -0.141932c0,-0.0105517 -0.00171159,-0.0188609 -0.00503453,-0.0250947 -0.00333036,-0.00614836 -0.00779684,-0.0108042 -0.0134031,-0.01396 -0.00551348,-0.00315958 -0.0116915,-0.00548377 -0.0183486,-0.00698002 0.0268991,0 0.0495248,-0.000497512 0.0677731,-0.00157793 0.0183486,-0.000998738 0.0360288,-0.00357541 0.0530408,-0.00764833l0 0.018783c0.00465954,-0.00274374 0.0100802,-0.00565085 0.0163511,-0.00856167 0.00618178,-0.00290711 0.0134031,-0.0053167 0.0216752,-0.00731046 0.00826836,-0.00191208 0.0176803,-0.00291082 0.0283248,-0.00291082 0.0159687,0 0.0305116,0.00241331 0.0438182,0.00723249 0.0133103,0.00473379 0.0246194,0.0121296 0.0341242,0.0220205 0.00779684,-0.00523502 0.0158758,-0.00997252 0.0243336,-0.0143759 0.00846142,-0.00440336 0.0177768,-0.00797876 0.0280426,-0.0107188 0.0101693,-0.00274374 0.021768,-0.00415831 0.0347887,-0.00415831 0.0337455,0 0.0603587,0.0103884 0.0797505,0.0310797 0.0193918,0.0206913 0.0296577,0.0498589 0.0308012,0.0875028l0 0.0786107c0,0.0105517 0.00171159,0.0189463 0.00503453,0.0250947 0.00332665,0.00614836 0.00779312,0.0108042 0.0133103,0.01396 0.0056063,0.00324126 0.0116878,0.00548377 0.0184414,0.00698002z"/>
  <path id="123456789" class="fil1 str0" d="M2.07476 0.383211c-0.029654,0 -0.0479097,-0.00847627 -0.0545593,-0.0253434 -0.00389842,0.00324126 -0.00903319,0.00681295 -0.0153078,0.0107188 -0.00627088,0.00390584 -0.014064,0.00731418 -0.0233831,0.0101396 -0.00931165,0.00282542 -0.0205317,0.00423628 -0.0337417,0.00423628 -0.0244301,0 -0.0446759,-0.00315586 -0.0605517,-0.00938962 -0.0158721,-0.00623376 -0.0276602,-0.0147917 -0.0354533,-0.0255105 -0.00779684,-0.0108042 -0.0116915,-0.0229375 -0.0116915,-0.0363964 0,-0.0172013 0.00494542,-0.0311614 0.0148251,-0.0417985 0.00998366,-0.0106371 0.0229116,-0.0184488 0.0387837,-0.0233497 0.0158758,-0.00498626 0.0326984,-0.00739586 0.0504789,-0.00739586 0.0157756,0 0.0287035,0.00149254 0.0387763,0.00448504 0.00998366,0.0029925 0.0174909,0.00606668 0.0225329,0.00914086 0.00503453,0.00307418 0.00769288,0.00498626 0.00807529,0.00581793 -0.000757407,-0.0292493 -0.00399124,-0.0531002 -0.00978689,-0.071549 -0.00779684,-0.0253434 -0.0212965,-0.0379743 -0.0405881,-0.0379743 -0.0126457,0 -0.023669,0.00340833 -0.0331737,0.010303 -0.00950471,0.00689834 -0.0177805,0.0153746 -0.0248125,0.0253471 -0.007032,0.00997252 -0.0133066,0.0198597 -0.0189166,0.0295834l-0.0063637 0.01047 -0.0309906 -0.0672273c0.0464803,-0.0117992 0.0859286,-0.0177842 0.118438,-0.0177842 0.0300364,0 0.0546558,0.00507166 0.0737618,0.0151259 0.019106,0.0100542 0.0332665,0.0241813 0.042489,0.0423777 0.00912601,0.0181184 0.0137855,0.0394743 0.0137855,0.063986l0 0.0567573c0,0.0175317 0.00209029,0.030248 0.00627088,0.038056 0.00418059,0.00789708 0.011027,0.0118029 0.020721,0.0118029 -0.0144464,0.0102176 -0.0309869,0.0153709 -0.0496176,0.0153709zm-0.101329 -0.0156234c0.00779312,0 0.0142571,-0.00108042 0.0193918,-0.00323754 0.00503824,-0.00216084 0.0091223,-0.00473751 0.0121705,-0.00756293 0.00313359,-0.00282542 0.00532041,-0.00532041 0.00655677,-0.00739586l0.00199376 -0.00340833 0 -0.0745378 -0.000282171 -0.000248756c-0.000382416,-0.000749981 -0.00180441,-0.00249499 -0.00437365,-0.00523502 -0.00247271,-0.00265835 -0.0062746,-0.00523502 -0.0115022,-0.00773001 -0.00522759,-0.00257296 -0.0119774,-0.00382045 -0.0203386,-0.00382045 -0.00760748,0 -0.0151147,0.00216084 -0.0224363,0.00631544 -0.00731789,0.00423628 -0.0133066,0.01047 -0.018059,0.0186122 -0.00475236,0.00822752 -0.00713225,0.0185305 -0.00713225,0.0308309 0,0.0176988 0.00447019,0.0316589 0.0134031,0.0419618 0.00884384,0.0103067 0.0191097,0.0154563 0.0306082,0.0154563z"/>
  <path id="12345678910" class="fil1 str0" d="M2.47379 0.383211l-0.1576 0c0.0066533,-0.00149625 0.0128351,-0.00382045 0.0183448,-0.00706171 0.00561001,-0.00324126 0.0100802,-0.00806044 0.0134031,-0.0144613 0.00332665,-0.0064788 0.00503824,-0.0152038 0.00503824,-0.0264238l0 -0.0633214c0,-0.0374768 -0.00436994,-0.0664773 -0.0129279,-0.0869199 -0.00865078,-0.0204426 -0.0220502,-0.0306638 -0.0403022,-0.0306638 -0.0134997,0 -0.0266132,0.00540209 -0.0392552,0.016288l0 0.164617c0,0.0201084 0.00617806,0.033738 0.0184377,0.0408851 0.00551348,0.00324126 0.0116915,0.00556546 0.0183486,0.00706171l-0.157604 0c0.00665701,-0.00149625 0.0127385,-0.00382045 0.0183486,-0.00706171 0.0056063,-0.00324126 0.0100728,-0.00806044 0.0133994,-0.0144613 0.00333036,-0.0064788 0.00494171,-0.0152038 0.00494171,-0.0264238l0 -0.14002c0,-0.0105517 -0.00161135,-0.0188609 -0.00494171,-0.0249276 -0.00332665,-0.00606668 -0.00779312,-0.0107188 -0.0133994,-0.0138784 -0.00561001,-0.00315586 -0.0116915,-0.00548377 -0.0183486,-0.00698002 0.0269028,0 0.0495248,-0.000497512 0.0677768,-0.00157793 0.0182483,-0.000998738 0.0359286,-0.00357541 0.0530408,-0.00764461l0 0.0187792c0.00779312,-0.00523502 0.0168226,-0.00963837 0.0269919,-0.0132955 0.0102658,-0.00365709 0.0232903,-0.00548377 0.0392589,-0.00548377 0.0208138,0 0.0395411,0.00490087 0.0561743,0.0147063 0.016637,0.00989084 0.0297579,0.0236838 0.0395448,0.0415497 0.00969778,0.0178659 0.0146395,0.0388876 0.0146395,0.063069l0 0.0757036c0,0.01122 0.00161506,0.019945 0.00494542,0.0264238 0.00332294,0.00640083 0.00779312,0.01122 0.0132101,0.0144613 0.00551348,0.00324126 0.0116915,0.00556546 0.0185342,0.00706171z"/>
  <path id="1234567891011" class="fil1 str0" d="M2.61885 0.383211c-0.0251912,0 -0.0473379,-0.00473751 -0.0663474,-0.0142088 -0.0190131,-0.00955669 -0.033842,-0.0231863 -0.0444865,-0.0410522 -0.0105517,-0.0178659 -0.0158758,-0.0392218 -0.0158758,-0.0640677 0,-0.0275859 0.00561001,-0.0506052 0.0166333,-0.0689686 0.0110307,-0.0184488 0.0255736,-0.0322418 0.0437291,-0.0413826 0.018059,-0.00922626 0.037733,-0.0137967 0.0588364,-0.0137967 0.0237618,0 0.0449618,0.00623376 0.0634997,0.018783l0 -0.0830177c0,-0.0105517 -0.00161877,-0.0188609 -0.00494542,-0.0249276 -0.00342318,-0.00614836 -0.00779312,-0.0108042 -0.0134031,-0.0140417 -0.0056063,-0.00324126 -0.0117844,-0.00556917 -0.0186307,-0.00706542 0.0270921,0 0.0497141,-0.000497512 0.0679624,-0.00141086 0.0181592,-0.000998738 0.0357429,-0.00349001 0.0528514,-0.00756293l0.000285884 0.361974 -0.0737618 -0.0306638 -0.00332665 0.00490087c-0.00209029,0.00307789 -0.00570283,0.00664959 -0.0107411,0.0108042 -0.00513477,0.0041546 -0.0118846,0.00781169 -0.0203423,0.0109675 -0.00846142,0.00315958 -0.0191022,0.00473751 -0.0319373,0.00473751zm0.0156828 -0.0107188c0.00684265,0 0.0133066,-0.00141457 0.0194847,-0.0041546 0.00608525,-0.00274374 0.0111235,-0.00681295 0.0150182,-0.0123004 0.00389842,-0.00539838 0.00580307,-0.0122967 0.00580307,-0.0205242l0 -0.164617c-0.0062746,-0.00565085 -0.0132138,-0.00988713 -0.020721,-0.0127942 -0.00751467,-0.00282542 -0.0151147,-0.00423999 -0.0227222,-0.00423999 -0.00922254,0 -0.0176803,0.00399124 -0.0251912,0.0119663 -0.00750724,0.00789337 -0.013496,0.0200267 -0.0179624,0.0362293 -0.00447019,0.016288 -0.00665701,0.0368976 -0.00665701,0.0618252 0,0.0358989 0.00465954,0.0629873 0.0138784,0.0811873 0.00931908,0.0182817 0.0223398,0.0274226 0.0390696,0.0274226z"/>
  <path class="fil0" d="M3.03373 0.30969c0,0.0083092 -0.00249127,0.0171159 -0.00747754,0.0265909 -0.00490458,0.00938962 -0.0124638,0.0183634 -0.0226034,0.0269214 -0.0101396,0.00847627 -0.0229338,0.0153746 -0.0383901,0.020528 -0.0153746,0.00523502 -0.032743,0.00781169 -0.0520197,0.00781169 -0.0411339,0 -0.0731269,-0.0119663 -0.0962278,-0.0358989 -0.0230192,-0.0239326 -0.0345697,-0.0560073 -0.0345697,-0.0963095 0,-0.0272592 0.00523502,-0.0513552 0.0157904,-0.0722952 0.0105517,-0.0209401 0.0258447,-0.0371464 0.045786,-0.0485297 0.0200267,-0.0114688 0.0438776,-0.0172013 0.0716306,-0.0172013 0.0172013,0 0.032988,0.00249127 0.0473639,0.00756293 0.0142942,0.00498626 0.0265092,0.0114651 0.0364818,0.0194438 0.00997252,0.00797876 0.0176171,0.0164513 0.0228522,0.0254288 0.0053167,0.00905547 0.00797505,0.0174501 0.00797505,0.0251764 0,0.00797876 -0.00298879,0.01471 -0.00888839,0.0202755 -0.005985,0.00548749 -0.0131321,0.00822752 -0.0216084,0.00822752 -0.00548377,0 -0.0100542,-0.00141086 -0.0137113,-0.00423628 -0.00365337,-0.00282542 -0.00772629,-0.00748125 -0.0122967,-0.0137967 -0.00814212,-0.0122967 -0.0166184,-0.0215193 -0.0254288,-0.027753 -0.00889211,-0.00614836 -0.0201084,-0.00922254 -0.033738,-0.00922254 -0.0196109,0 -0.035483,0.00764461 -0.0474456,0.0230155 -0.0120517,0.0152892 -0.018033,0.0363147 -0.018033,0.0629056 0,0.0125492 0.00157793,0.0240143 0.00465211,0.0344843 0.00307418,0.01047 0.00747754,0.0193621 0.0133809,0.026758 0.00581421,0.00739586 0.0128796,0.012965 0.0211888,0.0167855 0.00822752,0.00382416 0.0173684,0.00573624 0.0272555,0.00573624 0.0132955,0 0.0246788,-0.00307789 0.0341539,-0.00922626 0.00955669,-0.00623004 0.0179476,-0.0156234 0.0252617,-0.0282505 0.00398752,-0.00748125 0.00839088,-0.0132992 0.0131284,-0.0175355 0.00465211,-0.00423628 0.01047,-0.00631544 0.017283,-0.00631544 0.00814584,0 0.0148771,0.00307418 0.0201938,0.00922254 0.0053167,0.00615208 0.00806044,0.0127163 0.00806044,0.0196963z"/>
  <path id="1" class="fil0" d="M3.25959 0.354563c-0.0161209,0.0124638 -0.0316589,0.0218534 -0.0466177,0.0280872 -0.0150405,0.00623004 -0.0319113,0.00938962 -0.0505235,0.00938962 -0.0171196,0 -0.0320747,-0.00340833 -0.0449543,-0.0101396 -0.0128833,-0.00673127 -0.0228522,-0.0157867 -0.0298322,-0.0273372 -0.00698002,-0.0115505 -0.01047,-0.0240143 -0.01047,-0.0374768 0,-0.0182 0.00573253,-0.0336563 0.017283,-0.046536 0.0115505,-0.0127979 0.0273372,-0.0214376 0.047531,-0.0257593 0.0041546,-0.000998738 0.0146246,-0.00315958 0.0314101,-0.00656419 0.0167038,-0.00349001 0.030998,-0.00656419 0.0429643,-0.00938962 0.0118809,-0.00291082 0.0248459,-0.00631544 0.038806,-0.0103884 -0.000831663,-0.0175355 -0.00432168,-0.0304151 -0.0105554,-0.0385572 -0.00631544,-0.00822752 -0.0191951,-0.0123004 -0.0388876,-0.0123004 -0.0168709,0 -0.0295834,0.00232791 -0.0380597,0.00706542 -0.00855796,0.00473751 -0.0158721,0.0117175 -0.0219388,0.0211888 -0.00606668,0.00938962 -0.0103846,0.0156234 -0.0128796,0.0186159 -0.00257667,0.00298879 -0.00797505,0.00448504 -0.0162026,0.00448504 -0.00748125,0 -0.01396,-0.00240959 -0.0193621,-0.00722878 -0.00548377,-0.00473751 -0.00814584,-0.0108859 -0.00814584,-0.0183634 0,-0.0116359 0.00407292,-0.0230192 0.0123821,-0.0340722 0.0083092,-0.0110492 0.0211925,-0.0201084 0.0387243,-0.0272555 0.0175355,-0.0071471 0.0393072,-0.0107188 0.0654823,-0.0107188 0.0292493,0 0.0521831,0.00349001 0.0688869,0.0103884 0.0167038,0.00689463 0.028503,0.0177805 0.0354013,0.0327393 0.00689463,0.0148734 0.0103846,0.034733 0.0103846,0.0594156 0,0.015538 -8.16811e-005,0.0288334 -0.000167075,0.0396376 -8.16811e-005,0.0108859 -0.000163362,0.0230155 -0.000330437,0.036311 0,0.0124675 0.00207544,0.0255142 0.00623376,0.0390584 0.0041546,0.0135442 0.00614836,0.0222692 0.00614836,0.0261751 0,0.00681295 -0.00315958,0.0130467 -0.00955669,0.0186122 -0.00639712,0.00556917 -0.0137113,0.00839459 -0.0217717,0.00839459 -0.00681295,0 -0.0135442,-0.00324126 -0.0201938,-0.00963837 -0.00673127,-0.00640083 -0.0137113,-0.0156234 -0.0211888,-0.0278384zm-0.00440336 -0.0961461c-0.00972377,0.00357541 -0.0239326,0.00731418 -0.0424631,0.0113017 -0.0186159,0.00399124 -0.0314955,0.00689834 -0.0386426,0.00881043 -0.00714339,0.00182669 -0.01396,0.00548377 -0.0204388,0.0109675 -0.00648251,0.00540209 -0.00972377,0.012965 -0.00972377,0.0226851 0,0.0101396 0.00382045,0.0186976 0.0114688,0.0257593 0.00764461,0.00706542 0.0176134,0.0105554 0.0299139,0.0105554 0.0131284,0 0.0252617,-0.00290711 0.0363964,-0.00864335 0.0111346,-0.00573253 0.0192767,-0.0132101 0.0245155,-0.0222692 0.00598129,-0.0100542 0.00897379,-0.0265909 0.00897379,-0.0496918l0 -0.00947501z"/>
  <path id="12" class="fil0" d="M3.45378 0.296061l0 0.0555914c0,0.0134625 -0.00315586,0.0235167 -0.0094713,0.030248 -0.00631544,0.00673127 -0.0143759,0.0101396 -0.0240996,0.0101396 -0.00963837,0 -0.0174501,-0.00340833 -0.0236801,-0.0102213 -0.00615208,-0.00681295 -0.00922626,-0.0168709 -0.00922626,-0.0301663l0 -0.185056c0,-0.0298322 0.0108042,-0.044791 0.0324088,-0.044791 0.0110529,0 0.0189463,0.00349001 0.0238509,0.01047 0.00490087,0.00698002 0.00755922,0.0172867 0.00806044,0.0309126 0.00789337,-0.0136259 0.0160355,-0.0239326 0.0244301,-0.0309126 0.00839088,-0.00698002 0.0195255,-0.01047 0.0334856,-0.01047 0.0139638,0 0.027508,0.00349001 0.0406364,0.01047 0.0131284,0.00698002 0.0196926,0.0162063 0.0196926,0.0277567 0,0.00806044 -0.00274003,0.0147917 -0.00839088,0.0200267 -0.00556917,0.0053167 -0.0116359,0.00789337 -0.0181146,0.00789337 -0.00240959,0 -0.0083092,-0.00149625 -0.0176171,-0.00448875 -0.00938962,-0.00298879 -0.0176171,-0.00448504 -0.0247642,-0.00448504 -0.00972006,0 -0.0176988,0.00257667 -0.0238472,0.00764461 -0.00615208,0.00514962 -0.0109713,0.0127126 -0.0143759,0.0227668 -0.00340833,0.0100542 -0.00573624,0.0220205 -0.00706542,0.0359843 -0.00124378,0.0138747 -0.00191208,0.0307455 -0.00191208,0.0506869z"/>
  <path id="123" class="fil0" d="M3.61591 0.127705l0.00731418 0 0 -0.0399681c0,-0.0107188 0.000248756,-0.0191134 0.000831663,-0.0251801 0.000579194,-0.00614836 0.00216084,-0.0113834 0.00473379,-0.0157051 0.00266206,-0.00457043 0.00640083,-0.00822752 0.01122,-0.0111346 0.00490087,-0.00282542 0.010303,-0.00423628 0.0163696,-0.00423628 0.00839459,0 0.0160392,0.00315586 0.0228522,0.0094713 0.00457043,0.00423628 0.00739586,0.00938962 0.00864335,0.0154563 0.00124378,0.00614836 0.00182669,0.0147917 0.00182669,0.026008l0 0.0452885 0.0243484 0c0.00938962,0 0.0166184,0.00224623 0.021523,0.00673127 0.00498626,0.00440336 0.00747754,0.0101396 0.00747754,0.0171196 0,0.00889211 -0.00357169,0.0152075 -0.0106371,0.0187792 -0.00706171,0.00357169 -0.0171159,0.0053167 -0.0303297,0.0053167l-0.0123821 0 0 0.122154c0,0.0103884 0.00033415,0.0184488 0.00108042,0.0240143 0.000749981,0.00556917 0.00265835,0.0101396 0.00581793,0.0136296 0.00324126,0.00349001 0.00839088,0.00523502 0.015538,0.00523502 0.00382416,0 0.00914086,-0.000664587 0.0157904,-0.00207544 0.00664587,-0.00141457 0.0118809,-0.00207916 0.015538,-0.00207916 0.00540209,0 0.0102213,0.00216084 0.014543,0.00648251 0.00432168,0.00432168 0.00639712,0.00955669 0.00639712,0.0159538 0,0.0107188 -0.00581793,0.0188646 -0.0175317,0.0245155 -0.0116359,0.00573253 -0.0284213,0.00855796 -0.0503601,0.00855796 -0.020773,0 -0.0365597,-0.00349001 -0.0471968,-0.01047 -0.0107225,-0.00698002 -0.0177842,-0.0166221 -0.0211071,-0.0290005 -0.00332294,-0.0123004 -0.00498626,-0.0287518 -0.00498626,-0.0493614l0 -0.127556 -0.00872503 0c-0.00963837,0 -0.0169525,-0.00224252 -0.0219388,-0.00681295 -0.00506794,-0.00457043 -0.00756293,-0.010303 -0.00756293,-0.017283 0,-0.00698002 0.00266206,-0.0127163 0.00789708,-0.0171196 0.0053167,-0.00448504 0.0129613,-0.00673127 0.0230155,-0.00673127z"/>
  <path id="1234" class="fil1 str0" d="M3.03373 0.30969c0,0.0083092 -0.00249127,0.0171159 -0.00747754,0.0265909 -0.00490458,0.00938962 -0.0124638,0.0183634 -0.0226034,0.0269214 -0.0101396,0.00847627 -0.0229338,0.0153746 -0.0383901,0.020528 -0.0153746,0.00523502 -0.032743,0.00781169 -0.0520197,0.00781169 -0.0411339,0 -0.0731269,-0.0119663 -0.0962278,-0.0358989 -0.0230192,-0.0239326 -0.0345697,-0.0560073 -0.0345697,-0.0963095 0,-0.0272592 0.00523502,-0.0513552 0.0157904,-0.0722952 0.0105517,-0.0209401 0.0258447,-0.0371464 0.045786,-0.0485297 0.0200267,-0.0114688 0.0438776,-0.0172013 0.0716306,-0.0172013 0.0172013,0 0.032988,0.00249127 0.0473639,0.00756293 0.0142942,0.00498626 0.0265092,0.0114651 0.0364818,0.0194438 0.00997252,0.00797876 0.0176171,0.0164513 0.0228522,0.0254288 0.0053167,0.00905547 0.00797505,0.0174501 0.00797505,0.0251764 0,0.00797876 -0.00298879,0.01471 -0.00888839,0.0202755 -0.005985,0.00548749 -0.0131321,0.00822752 -0.0216084,0.00822752 -0.00548377,0 -0.0100542,-0.00141086 -0.0137113,-0.00423628 -0.00365337,-0.00282542 -0.00772629,-0.00748125 -0.0122967,-0.0137967 -0.00814212,-0.0122967 -0.0166184,-0.0215193 -0.0254288,-0.027753 -0.00889211,-0.00614836 -0.0201084,-0.00922254 -0.033738,-0.00922254 -0.0196109,0 -0.035483,0.00764461 -0.0474456,0.0230155 -0.0120517,0.0152892 -0.018033,0.0363147 -0.018033,0.0629056 0,0.0125492 0.00157793,0.0240143 0.00465211,0.0344843 0.00307418,0.01047 0.00747754,0.0193621 0.0133809,0.026758 0.00581421,0.00739586 0.0128796,0.012965 0.0211888,0.0167855 0.00822752,0.00382416 0.0173684,0.00573624 0.0272555,0.00573624 0.0132955,0 0.0246788,-0.00307789 0.0341539,-0.00922626 0.00955669,-0.00623004 0.0179476,-0.0156234 0.0252617,-0.0282505 0.00398752,-0.00748125 0.00839088,-0.0132992 0.0131284,-0.0175355 0.00465211,-0.00423628 0.01047,-0.00631544 0.017283,-0.00631544 0.00814584,0 0.0148771,0.00307418 0.0201938,0.00922254 0.0053167,0.00615208 0.00806044,0.0127163 0.00806044,0.0196963z"/>
  <path id="12345" class="fil1 str0" d="M3.25959 0.354563c-0.0161209,0.0124638 -0.0316589,0.0218534 -0.0466177,0.0280872 -0.0150405,0.00623004 -0.0319113,0.00938962 -0.0505235,0.00938962 -0.0171196,0 -0.0320747,-0.00340833 -0.0449543,-0.0101396 -0.0128833,-0.00673127 -0.0228522,-0.0157867 -0.0298322,-0.0273372 -0.00698002,-0.0115505 -0.01047,-0.0240143 -0.01047,-0.0374768 0,-0.0182 0.00573253,-0.0336563 0.017283,-0.046536 0.0115505,-0.0127979 0.0273372,-0.0214376 0.047531,-0.0257593 0.0041546,-0.000998738 0.0146246,-0.00315958 0.0314101,-0.00656419 0.0167038,-0.00349001 0.030998,-0.00656419 0.0429643,-0.00938962 0.0118809,-0.00291082 0.0248459,-0.00631544 0.038806,-0.0103884 -0.000831663,-0.0175355 -0.00432168,-0.0304151 -0.0105554,-0.0385572 -0.00631544,-0.00822752 -0.0191951,-0.0123004 -0.0388876,-0.0123004 -0.0168709,0 -0.0295834,0.00232791 -0.0380597,0.00706542 -0.00855796,0.00473751 -0.0158721,0.0117175 -0.0219388,0.0211888 -0.00606668,0.00938962 -0.0103846,0.0156234 -0.0128796,0.0186159 -0.00257667,0.00298879 -0.00797505,0.00448504 -0.0162026,0.00448504 -0.00748125,0 -0.01396,-0.00240959 -0.0193621,-0.00722878 -0.00548377,-0.00473751 -0.00814584,-0.0108859 -0.00814584,-0.0183634 0,-0.0116359 0.00407292,-0.0230192 0.0123821,-0.0340722 0.0083092,-0.0110492 0.0211925,-0.0201084 0.0387243,-0.0272555 0.0175355,-0.0071471 0.0393072,-0.0107188 0.0654823,-0.0107188 0.0292493,0 0.0521831,0.00349001 0.0688869,0.0103884 0.0167038,0.00689463 0.028503,0.0177805 0.0354013,0.0327393 0.00689463,0.0148734 0.0103846,0.034733 0.0103846,0.0594156 0,0.015538 -8.16811e-005,0.0288334 -0.000167075,0.0396376 -8.16811e-005,0.0108859 -0.000163362,0.0230155 -0.000330437,0.036311 0,0.0124675 0.00207544,0.0255142 0.00623376,0.0390584 0.0041546,0.0135442 0.00614836,0.0222692 0.00614836,0.0261751 0,0.00681295 -0.00315958,0.0130467 -0.00955669,0.0186122 -0.00639712,0.00556917 -0.0137113,0.00839459 -0.0217717,0.00839459 -0.00681295,0 -0.0135442,-0.00324126 -0.0201938,-0.00963837 -0.00673127,-0.00640083 -0.0137113,-0.0156234 -0.0211888,-0.0278384zm-0.00440336 -0.0961461c-0.00972377,0.00357541 -0.0239326,0.00731418 -0.0424631,0.0113017 -0.0186159,0.00399124 -0.0314955,0.00689834 -0.0386426,0.00881043 -0.00714339,0.00182669 -0.01396,0.00548377 -0.0204388,0.0109675 -0.00648251,0.00540209 -0.00972377,0.012965 -0.00972377,0.0226851 0,0.0101396 0.00382045,0.0186976 0.0114688,0.0257593 0.00764461,0.00706542 0.0176134,0.0105554 0.0299139,0.0105554 0.0131284,0 0.0252617,-0.00290711 0.0363964,-0.00864335 0.0111346,-0.00573253 0.0192767,-0.0132101 0.0245155,-0.0222692 0.00598129,-0.0100542 0.00897379,-0.0265909 0.00897379,-0.0496918l0 -0.00947501z"/>
  <path id="123456" class="fil1 str0" d="M3.45378 0.296061l0 0.0555914c0,0.0134625 -0.00315586,0.0235167 -0.0094713,0.030248 -0.00631544,0.00673127 -0.0143759,0.0101396 -0.0240996,0.0101396 -0.00963837,0 -0.0174501,-0.00340833 -0.0236801,-0.0102213 -0.00615208,-0.00681295 -0.00922626,-0.0168709 -0.00922626,-0.0301663l0 -0.185056c0,-0.0298322 0.0108042,-0.044791 0.0324088,-0.044791 0.0110529,0 0.0189463,0.00349001 0.0238509,0.01047 0.00490087,0.00698002 0.00755922,0.0172867 0.00806044,0.0309126 0.00789337,-0.0136259 0.0160355,-0.0239326 0.0244301,-0.0309126 0.00839088,-0.00698002 0.0195255,-0.01047 0.0334856,-0.01047 0.0139638,0 0.027508,0.00349001 0.0406364,0.01047 0.0131284,0.00698002 0.0196926,0.0162063 0.0196926,0.0277567 0,0.00806044 -0.00274003,0.0147917 -0.00839088,0.0200267 -0.00556917,0.0053167 -0.0116359,0.00789337 -0.0181146,0.00789337 -0.00240959,0 -0.0083092,-0.00149625 -0.0176171,-0.00448875 -0.00938962,-0.00298879 -0.0176171,-0.00448504 -0.0247642,-0.00448504 -0.00972006,0 -0.0176988,0.00257667 -0.0238472,0.00764461 -0.00615208,0.00514962 -0.0109713,0.0127126 -0.0143759,0.0227668 -0.00340833,0.0100542 -0.00573624,0.0220205 -0.00706542,0.0359843 -0.00124378,0.0138747 -0.00191208,0.0307455 -0.00191208,0.0506869z"/>
  <path id="1234567" class="fil1 str0" d="M3.61591 0.127705l0.00731418 0 0 -0.0399681c0,-0.0107188 0.000248756,-0.0191134 0.000831663,-0.0251801 0.000579194,-0.00614836 0.00216084,-0.0113834 0.00473379,-0.0157051 0.00266206,-0.00457043 0.00640083,-0.00822752 0.01122,-0.0111346 0.00490087,-0.00282542 0.010303,-0.00423628 0.0163696,-0.00423628 0.00839459,0 0.0160392,0.00315586 0.0228522,0.0094713 0.00457043,0.00423628 0.00739586,0.00938962 0.00864335,0.0154563 0.00124378,0.00614836 0.00182669,0.0147917 0.00182669,0.026008l0 0.0452885 0.0243484 0c0.00938962,0 0.0166184,0.00224623 0.021523,0.00673127 0.00498626,0.00440336 0.00747754,0.0101396 0.00747754,0.0171196 0,0.00889211 -0.00357169,0.0152075 -0.0106371,0.0187792 -0.00706171,0.00357169 -0.0171159,0.0053167 -0.0303297,0.0053167l-0.0123821 0 0 0.122154c0,0.0103884 0.00033415,0.0184488 0.00108042,0.0240143 0.000749981,0.00556917 0.00265835,0.0101396 0.00581793,0.0136296 0.00324126,0.00349001 0.00839088,0.00523502 0.015538,0.00523502 0.00382416,0 0.00914086,-0.000664587 0.0157904,-0.00207544 0.00664587,-0.00141457 0.0118809,-0.00207916 0.015538,-0.00207916 0.00540209,0 0.0102213,0.00216084 0.014543,0.00648251 0.00432168,0.00432168 0.00639712,0.00955669 0.00639712,0.0159538 0,0.0107188 -0.00581793,0.0188646 -0.0175317,0.0245155 -0.0116359,0.00573253 -0.0284213,0.00855796 -0.0503601,0.00855796 -0.020773,0 -0.0365597,-0.00349001 -0.0471968,-0.01047 -0.0107225,-0.00698002 -0.0177842,-0.0166221 -0.0211071,-0.0290005 -0.00332294,-0.0123004 -0.00498626,-0.0287518 -0.00498626,-0.0493614l0 -0.127556 -0.00872503 0c-0.00963837,0 -0.0169525,-0.00224252 -0.0219388,-0.00681295 -0.00506794,-0.00457043 -0.00756293,-0.010303 -0.00756293,-0.017283 0,-0.00698002 0.00266206,-0.0127163 0.00789708,-0.0171196 0.0053167,-0.00448504 0.0129613,-0.00673127 0.0230155,-0.00673127z"/>
  <g id="_207542256">
   <path id="_207548952" class="fil2" d="M0.378299 0.374155c0.00736244,0.0104849 -0.0118326,-0.0127423 0.00882899,-0.014788 0.00082795,-8.16811e-005 0.00166704,-0.000167075 0.00250613,-0.00026732 0.0260117,-0.00294795 0.0561669,-0.0120554 0.0761677,-0.0190763 0.0113463,-0.0039801 0.0220205,-0.00600356 0.0316552,-0.00628945 0.000876216,-2.22767e-005 0.00175243,-4.82661e-005 0.00261751,-4.82661e-005 0.0268174,5.94045e-005 0.00033415,0.0067127 0.00237618,0.0283842 -0.0055506,-0.0105294 0.0218386,-0.00879929 -0.00237618,-0.00598129 -0.000998738,0.000111383 -0.00198634,0.000245043 -0.0029925,0.000382416 -0.0085988,0.00120665 -0.0179921,0.00341204 -0.0279869,0.00672384 -0.0256961,0.0085431 -0.0546113,0.0172199 -0.0790339,0.0163474 -0.00206431,-6.683e-005 -0.00410262,-0.000207916 -0.00610381,-0.000430682 -0.0186827,-0.00201604 0.00275488,0.0148177 -0.00565828,-0.00495656z"/>
   <ellipse id="_207548976" class="fil3 str1" transform="matrix(-0.194389 -0.0321863 -0.030259 0.182749 0.527396 0.347911)" rx="0.134247" ry="0.131588"/>
   <ellipse id="_207552456" class="fil3 str1" transform="matrix(-0.194389 -0.0321863 -0.030259 0.182749 0.357434 0.372998)" rx="0.134247" ry="0.131588"/>
   <path id="_207541968" class="fil4 str2" d="M0.011298 0.120275c0.187807,-0.0417688 0.225963,0.0262568 0.337421,-0.00193065 0.109286,-0.0276305 0.221159,-0.0336081 0.259286,0.0527512 -0.0262753,-0.0580382 -0.149324,-0.0385684 -0.241464,-0.0150219 -0.0358914,0.0091817 -0.0933838,0.0288483 -0.127504,0.0172087 -0.0419136,-0.0142979 -0.0922514,-0.0805562 -0.215642,-0.0215193 -0.000753694,0.000363852 -0.00147769,0.00119923 -0.00231306,0.00112126 -0.0270996,-0.000137373 -0.0219574,-0.0311354 -0.00978317,-0.0326093z"/>
   <path id="_207541536" class="fil5 str2" d="M0.14958 0.176791c0.0328247,0.0609675 0.141197,0.0440596 0.224593,0.0187124 0.101073,-0.0307307 0.219518,-0.0371798 0.251463,0.0521237 -0.0321378,-0.0566496 -0.143295,-0.0431982 -0.233575,-0.0141828 -0.166774,0.0535977 -0.218349,0.0131952 -0.242482,-0.0566533z"/>
   <path id="_207541848" class="fil6 str2" d="M0.22032 0.272277c0.0354162,0.0437105 0.113448,0.0223584 0.182476,0.00297765 0.0833445,-0.0233831 0.165527,-0.0403913 0.202822,0.0317257 -0.0170676,-0.0293235 -0.11999,-0.0263273 -0.193926,-0.00212742 -0.130415,0.0426784 -0.170758,0.0157088 -0.191371,-0.0325759z"/>
   <path id="_207542544" class="fil7 str2" d="M0.296369 0.0508354c0.0198708,0.0254734 0.0637187,0.0159835 0.103876,0.00656419 0.0484926,-0.0113797 0.106089,-0.0253583 0.115805,0.0154934 -0.0115022,-0.0220279 -0.0653746,-0.00655677 -0.108788,0.0042697 -0.0752803,0.0187607 -0.102131,0.00504567 -0.110893,-0.0263273z"/>
  </g>
  <path class="fil8" d="M3.11187 0c0.0387651,0.0580493 0.134759,0.0445793 0.222796,0.0306416 0.106293,-0.0168263 0.232654,-0.0378072 0.247085,0.0517636 -0.0212779,-0.0492909 -0.139827,-0.0245118 -0.235108,-0.00807529 -0.165208,0.028503 -0.220892,-0.00533526 -0.234774,-0.0743298z"/>
 </g>
</svg>
