<svg version="1.1" id="Layer_1" xmlns="http://www.w3.org/2000/svg" xmlns:xlink="http://www.w3.org/1999/xlink" x="0px" y="0px"
	 width="100%" viewBox="0 0 5464 648" enable-background="new 0 0 5464 648" xml:space="preserve">
<path fill="#FFFFFF" opacity="1.000000" stroke="none" 
	d="
M638.000000,649.000000 
	C425.741760,649.000000 213.483536,649.000000 1.000000,649.000000 
	C1.000000,488.965149 1.000000,328.930206 1.329804,168.629608 
	C5.826775,190.316086 23.092648,195.731674 37.326820,195.937668 
	C38.755989,195.958374 40.286648,195.551468 41.614555,194.980804 
	C57.496452,188.155746 73.115959,180.649597 89.256668,174.511703 
	C124.783989,161.001587 161.483429,152.425995 199.632294,151.106750 
	C246.829163,149.474609 291.129120,160.701965 332.746948,182.465591 
	C353.973633,193.565872 374.713623,205.621536 395.437439,217.652176 
	C418.668976,231.138626 443.304138,239.036728 470.384521,238.890869 
	C505.630859,238.701019 539.905273,232.059082 573.837830,223.413483 
	C630.242920,209.042099 686.152283,192.713211 743.347351,181.496780 
	C799.463867,170.491837 855.809204,161.537506 913.147461,160.628860 
	C947.245605,160.088501 981.125122,161.972137 1013.986206,172.082184 
	C1043.539307,181.174515 1068.883057,196.034912 1083.579956,224.882843 
	C1084.066040,225.836853 1086.065430,226.019852 1087.359375,226.562256 
	C1071.587402,188.291412 1046.732422,158.601608 1012.278442,137.232101 
	C975.968018,114.711212 935.713440,104.490662 893.729187,100.163994 
	C849.908691,95.648087 806.182373,97.899452 762.594177,103.329735 
	C716.794434,109.035530 671.586853,118.028198 626.928101,129.589188 
	C576.327332,142.688461 525.120483,146.812622 473.370728,139.636642 
	C438.938416,134.862030 404.737244,128.388794 370.472290,122.446907 
	C328.738647,115.209869 286.798065,110.047798 244.409225,109.094742 
	C169.362823,107.407433 95.613182,117.475449 22.480404,133.396881 
	C12.913450,135.479645 7.321200,141.094559 4.007347,149.704025 
	C2.839193,152.738892 1.993127,155.897751 1.000001,159.000000 
	C1.000000,106.354652 1.000000,53.709305 1.000000,1.000000 
	C273.701569,1.000000 546.403137,1.000000 819.303955,1.325319 
	C807.971741,3.283708 796.309265,4.289459 784.933777,6.668136 
	C751.559265,13.646929 718.315796,21.249378 684.988831,28.459036 
	C655.980652,34.734413 626.829834,40.256641 596.946594,38.921665 
	C572.683899,37.837780 550.118164,32.165230 533.220154,12.803399 
	C532.518860,11.999901 530.843201,12.046884 529.621460,11.697631 
	C529.408264,12.833084 528.753845,14.099591 529.046509,15.084761 
	C535.864929,38.038971 548.808533,55.971218 571.190063,66.093048 
	C586.641663,73.080894 603.028137,75.523781 619.788635,75.960236 
	C648.281982,76.702232 676.281494,72.598351 703.942261,66.335182 
	C740.601501,58.034492 777.039612,48.747547 813.740112,40.642231 
	C837.653625,35.360943 861.890869,31.440151 886.571228,34.062527 
	C899.415833,35.427299 911.510498,38.658024 919.510803,50.230888 
	C920.127258,51.122711 922.272583,50.957672 924.253052,51.407967 
	C917.472412,25.322159 901.944214,10.273860 876.415710,4.063695 
	C871.959106,2.979565 867.472656,2.018106 863.000000,0.999998 
	C2396.939697,1.000000 3930.879639,1.000000 5464.909668,1.000000 
	C5464.909668,216.931213 5464.909668,432.862488 5464.909668,649.000000 
	C3857.965088,649.000000 2250.930176,649.000000 643.752197,648.743347 
	C664.151794,647.041077 681.333008,638.887146 693.212585,621.812500 
	C697.942810,615.013611 700.764954,606.887085 704.766663,598.731262 
	C705.495422,598.731262 707.161499,598.869019 708.798218,598.708313 
	C717.536133,597.849976 726.266846,596.917175 735.419312,596.051025 
	C741.055359,595.233459 746.297852,594.506409 751.484741,593.494690 
	C779.986023,587.935120 807.634766,579.304443 835.295959,570.609863 
	C849.970825,565.997192 865.091492,562.802979 880.163086,559.294556 
	C892.981323,592.455078 925.484070,609.852722 959.399231,601.951660 
	C992.453857,594.251099 1013.436523,562.570007 1006.306274,531.128418 
	C996.695435,488.748535 946.535095,467.157593 908.568604,488.939789 
	C896.767578,495.710266 888.295654,505.411163 881.591919,517.240479 
	C858.537598,519.248596 837.068481,525.845459 815.610413,533.993530 
	C778.124084,545.754089 740.737061,556.289490 702.017700,561.408203 
	C698.925903,561.816956 697.656616,561.057739 696.194885,558.573120 
	C681.010681,532.763367 651.279968,520.211487 622.060974,527.133606 
	C592.583740,534.116943 573.274841,558.865967 574.010681,588.721741 
	C574.639893,614.252136 594.995361,638.884705 621.474304,645.866577 
	C626.882263,647.292542 632.486328,647.974854 638.000000,649.000000 
M4721.929688,144.983063 
	C4777.138184,147.055847 4831.554688,139.960938 4885.761719,130.665863 
	C4947.880859,120.014107 5009.767090,107.745689 5072.828125,103.688278 
	C5099.295898,101.985359 5125.770996,101.573868 5151.919434,107.092934 
	C5169.273438,110.755852 5185.540527,116.808968 5197.447754,130.949371 
	C5199.670410,133.589066 5201.510254,136.551468 5204.045898,140.089569 
	C5203.899902,138.456161 5203.908203,137.787048 5203.772461,137.148346 
	C5196.036621,100.626968 5173.990234,76.692787 5139.289551,63.923615 
	C5101.878418,50.157070 5062.945801,49.493816 5023.938477,51.650158 
	C4997.882812,53.090523 4971.910645,56.275387 4945.950684,59.129906 
	C4932.578125,60.600334 4919.313477,63.054737 4905.153809,64.981079 
	C4881.712891,68.615440 4858.327148,72.671577 4834.816406,75.778168 
	C4804.973145,79.721489 4775.080566,83.470108 4745.111816,86.247482 
	C4710.853027,89.422447 4676.566406,89.083946 4642.691895,81.933449 
	C4615.691406,76.234039 4590.894043,65.900398 4571.081055,45.890659 
	C4566.569336,41.334469 4562.542969,36.297497 4558.210449,31.388165 
	C4558.119141,31.906815 4557.962891,32.249908 4558.020996,32.551907 
	C4558.334473,34.181732 4558.670410,35.808655 4559.053711,37.423557 
	C4568.381836,76.705513 4589.616699,106.887810 4626.607422,124.611572 
	C4656.394531,138.883820 4688.325684,143.746201 4721.929688,144.983063 
M2661.279297,246.210281 
	C2650.072021,240.110397 2639.452148,232.307968 2627.556396,228.203674 
	C2574.471436,209.888138 2522.759277,214.453598 2473.019043,240.461777 
	C2463.762939,245.301544 2454.875488,250.846069 2446.825439,255.484818 
	C2384.584229,207.673828 2319.251953,207.161575 2250.825195,238.938339 
	C2250.825195,231.814011 2250.825195,224.344208 2250.825195,216.240250 
	C2194.513184,230.875931 2137.266113,229.520035 2079.938965,230.236832 
	C2079.568115,233.174164 2079.218262,235.944122 2078.850342,238.858566 
	C2082.660645,240.020721 2086.170898,240.989151 2089.613037,242.158539 
	C2106.543945,247.910309 2119.239746,258.097778 2123.498047,276.248871 
	C2125.043945,282.837372 2125.794434,289.741577 2125.901367,296.517609 
	C2126.661865,344.672699 2127.202881,392.831482 2127.723633,440.990051 
	C2127.937988,460.819061 2128.308105,480.657715 2127.927979,500.478943 
	C2127.442627,525.799805 2115.643799,541.450073 2091.731201,549.760986 
	C2088.306885,550.951050 2084.786377,551.863220 2081.034180,552.986694 
	C2081.442383,555.945740 2081.820557,558.686096 2082.212158,561.524780 
	C2154.630371,561.524780 2226.739746,561.524780 2299.448975,561.524780 
	C2299.690430,558.528442 2299.920166,555.676880 2300.148193,552.846191 
	C2296.380127,551.747192 2293.166016,550.920288 2290.024658,549.875366 
	C2272.678711,544.105347 2259.835938,533.666809 2255.542725,515.117065 
	C2254.090088,508.840149 2253.379150,502.278046 2253.251709,495.828064 
	C2252.768066,471.336639 2252.657471,446.837830 2252.416504,422.341675 
	C2251.920166,371.849426 2251.408691,321.357300 2251.024170,270.864197 
	C2251.010986,269.152649 2251.796387,266.815216 2253.046143,265.812500 
	C2262.444824,258.272583 2272.603516,251.928192 2284.279541,248.524612 
	C2305.549072,242.324554 2332.620361,245.461472 2346.203857,274.567108 
	C2348.795410,280.120178 2351.202881,285.836212 2352.930664,291.702209 
	C2360.671875,317.985596 2362.511963,345.080841 2362.761230,372.256500 
	C2363.118652,411.249573 2362.889160,450.248444 2362.812744,489.244629 
	C2362.801025,495.232117 2362.605713,501.258209 2361.911133,507.198181 
	C2359.808105,525.182190 2351.280518,538.910034 2334.354492,546.470032 
	C2328.478760,549.094543 2322.262695,550.957947 2316.147949,553.188660 
	C2315.732910,561.718384 2315.732910,561.718506 2323.949219,561.718506 
	C2391.942871,561.718445 2459.936523,561.718567 2527.930176,561.718567 
	C2529.864746,561.718567 2531.799561,561.718506 2533.778564,561.718506 
	C2534.178955,558.498413 2534.504395,555.880981 2534.853271,553.074280 
	C2530.282959,551.604126 2525.835205,550.335144 2521.502930,548.750732 
	C2505.658691,542.955994 2494.366455,532.587585 2490.262939,515.825378 
	C2488.734375,509.580750 2487.992676,502.994415 2487.956543,496.558014 
	C2487.732422,456.563110 2487.863525,416.566406 2487.765381,376.570557 
	C2487.718018,357.337921 2485.061279,338.411804 2480.417480,319.759705 
	C2476.671387,304.713776 2470.939941,290.465088 2462.750000,277.149689 
	C2475.322754,266.393921 2488.652344,257.696686 2504.356934,253.433350 
	C2521.339600,248.822983 2538.017578,249.171997 2553.479736,258.842712 
	C2565.329346,266.253845 2573.047607,277.233185 2578.910156,289.601654 
	C2589.624023,312.206818 2594.915283,336.426392 2595.627930,361.081512 
	C2596.989502,408.199066 2597.068115,455.369690 2596.768799,502.512512 
	C2596.619873,525.960815 2584.288574,541.347046 2562.176758,549.270630 
	C2558.315674,550.654297 2554.360107,551.774475 2550.320312,553.057068 
	C2550.652588,555.966858 2550.951416,558.581055 2551.274902,561.411194 
	C2623.622559,561.411194 2695.846436,561.411194 2768.502930,561.411194 
	C2768.741943,558.409302 2768.959473,555.679260 2769.182617,552.876648 
	C2765.574219,551.813171 2762.375732,550.958130 2759.233643,549.929626 
	C2741.448242,544.108337 2728.456299,533.349976 2724.424805,514.318054 
	C2722.884766,507.047974 2722.302979,499.459167 2722.253174,492.009155 
	C2722.029297,458.680450 2722.720459,425.335846 2721.924561,392.024658 
	C2721.504883,374.461456 2719.999268,356.709869 2716.722412,339.473236 
	C2709.634033,302.185333 2692.505615,270.277863 2661.279297,246.210281 
M3958.871826,533.378540 
	C3962.887939,528.967896 3966.903809,524.557251 3971.313965,519.713745 
	C4005.436523,533.873474 4039.999756,548.215942 4074.679199,562.606750 
	C4074.679199,391.940613 4074.679199,222.048401 4074.679199,51.546318 
	C4018.300537,66.332886 3961.063232,64.400909 3903.808838,65.264565 
	C3903.480469,68.402298 3903.193604,71.143539 3902.895752,73.991615 
	C3904.650391,74.443291 3905.941650,74.737366 3907.210449,75.108383 
	C3921.041992,79.152328 3933.817383,84.794708 3941.996338,97.619507 
	C3948.434814,107.715744 3950.073242,118.973335 3950.094482,130.596039 
	C3950.157959,165.592422 3950.137451,200.588974 3950.130859,235.585449 
	C3950.130859,236.611755 3949.922119,237.638046 3949.785400,238.898407 
	C3946.395752,237.091751 3943.510498,235.465454 3940.550049,233.989624 
	C3904.805664,216.168304 3867.178711,212.967667 3828.639404,221.140930 
	C3770.953613,233.374634 3730.125244,266.489990 3709.548584,322.295105 
	C3697.082275,356.104889 3695.560303,391.397491 3701.160156,426.772797 
	C3708.815674,475.134369 3733.360596,512.556152 3776.128174,537.171814 
	C3810.228516,556.798950 3847.509766,562.655151 3886.287354,561.369324 
	C3913.470947,560.467896 3937.915283,552.412231 3958.871826,533.378540 
M1409.418457,72.948097 
	C1399.080200,74.639336 1388.625122,75.813576 1378.425049,78.117058 
	C1345.543335,85.542763 1315.381714,98.688385 1289.184692,120.504471 
	C1238.647339,162.590485 1243.646851,222.872452 1265.999756,261.354797 
	C1278.229370,282.409210 1294.807495,299.553558 1313.652466,314.708344 
	C1342.066650,337.558502 1373.892090,354.991699 1405.409912,372.959381 
	C1425.921509,384.652588 1446.308105,396.596344 1466.350708,409.070526 
	C1481.406982,418.441406 1494.896851,429.956207 1505.696045,444.161285 
	C1523.572510,467.675262 1521.313965,495.788391 1500.152832,516.339355 
	C1491.037598,525.191528 1480.221802,531.362366 1468.093872,534.985352 
	C1443.737061,542.261414 1419.051025,541.363342 1395.145020,534.211243 
	C1327.825073,514.070862 1282.173218,470.233002 1257.201294,404.680664 
	C1256.688110,403.333252 1256.162109,401.990662 1255.579956,400.485229 
	C1252.522095,401.002045 1249.824097,401.458038 1247.025269,401.931061 
	C1247.025269,452.939453 1247.057617,503.423584 1246.944458,553.907410 
	C1246.937744,556.919861 1248.580078,557.433167 1250.678345,558.154602 
	C1252.827759,558.893677 1254.724854,560.255920 1256.854980,557.720581 
	C1261.890137,551.727966 1267.338379,546.078064 1272.276367,540.010254 
	C1274.438232,537.353882 1276.319946,537.086304 1279.447632,538.061035 
	C1346.129150,558.843323 1414.215942,566.373840 1483.641846,557.830627 
	C1519.831543,553.377197 1553.346191,540.801880 1582.971680,519.050903 
	C1625.437500,487.872528 1640.184204,446.521301 1625.895752,398.224304 
	C1618.066772,371.761139 1601.832520,350.564880 1582.159790,331.871979 
	C1557.857178,308.779633 1529.810669,290.850220 1500.948486,274.117859 
	C1472.174683,257.436768 1443.233276,241.036911 1414.674927,223.994949 
	C1397.446167,213.713776 1381.663452,201.367447 1369.036621,185.552734 
	C1350.007690,161.719452 1353.371338,130.930237 1377.224609,112.082031 
	C1382.896484,107.600273 1389.318848,103.643761 1396.000854,100.940292 
	C1421.978394,90.429825 1448.802124,90.288979 1475.366455,97.789185 
	C1521.451416,110.800880 1554.770142,139.887222 1576.818604,182.020676 
	C1582.177246,192.260559 1586.257446,203.169464 1591.109009,214.187775 
	C1593.484253,213.778381 1596.193726,213.311356 1599.125244,212.806061 
	C1599.125244,210.660370 1599.125244,208.845535 1599.125244,207.030716 
	C1599.125244,165.703430 1599.125244,124.376152 1599.125244,83.048874 
	C1599.125244,74.974319 1599.125244,74.974319 1590.966675,73.196938 
	C1585.782837,79.154022 1580.270386,84.974602 1575.394531,91.286812 
	C1572.508911,95.022247 1569.979980,95.266594 1565.760010,93.644379 
	C1515.620117,74.369949 1463.757568,67.669411 1409.418457,72.948097 
M4727.932129,272.437714 
	C4731.304199,275.592072 4735.418457,278.250610 4737.914551,281.989807 
	C4746.902344,295.455475 4748.620605,311.005707 4749.926270,326.681763 
	C4748.119141,327.224762 4746.716309,327.729523 4745.274902,328.067413 
	C4705.458496,337.399536 4665.659180,346.805420 4625.809570,355.993347 
	C4606.712891,360.396423 4587.208496,363.153717 4569.026367,371.041962 
	C4522.707520,391.136963 4498.323242,433.494812 4506.272461,482.918488 
	C4512.278809,520.261780 4534.239746,546.283447 4568.315430,561.933899 
	C4599.195312,576.116516 4631.575684,576.089294 4664.303223,570.428040 
	C4692.386719,565.570129 4717.169922,552.926819 4740.688477,537.452698 
	C4747.017090,533.288574 4753.175781,528.866699 4759.550293,524.468323 
	C4761.244629,527.035400 4762.669434,529.279663 4764.178223,531.466125 
	C4772.713867,543.832703 4781.655273,555.827393 4793.712891,565.125549 
	C4821.321777,586.416138 4856.730957,564.796631 4863.732910,542.233887 
	C4864.982910,538.205872 4865.593750,533.578552 4864.976562,529.456116 
	C4863.701172,520.937744 4862.069824,512.353760 4859.396484,504.185669 
	C4850.691406,477.590210 4847.477539,450.477936 4848.394043,422.509949 
	C4849.370605,392.705627 4848.973145,362.852509 4848.954102,333.020813 
	C4848.942871,314.989044 4847.101562,297.125610 4843.039062,279.507385 
	C4835.981934,248.902527 4820.392578,224.695862 4791.600098,210.269058 
	C4776.883301,202.894775 4761.193359,198.606201 4745.032715,196.050491 
	C4712.090332,190.840927 4679.002441,190.312607 4645.896973,194.119904 
	C4619.001953,197.212997 4593.485840,204.837784 4570.154785,218.946548 
	C4545.728516,233.717834 4528.446289,253.915009 4522.483887,282.491852 
	C4517.747559,305.188293 4526.076660,322.892395 4545.215332,331.468964 
	C4554.854980,335.788788 4564.897461,335.809113 4575.104004,334.373810 
	C4582.625000,333.316223 4588.481445,329.788910 4592.705078,323.385437 
	C4598.294434,314.911133 4603.978027,306.494843 4609.789062,298.170715 
	C4619.796387,283.834473 4632.424316,272.826172 4649.769043,268.442108 
	C4667.748047,263.897705 4686.088379,263.428772 4704.355469,265.753723 
	C4712.140625,266.744507 4719.649902,269.902893 4727.932129,272.437714 
M3515.500000,561.718628 
	C3569.448730,561.718628 3623.397461,561.718628 3677.676025,561.718628 
	C3677.956055,558.427673 3678.188232,555.698914 3678.427490,552.888184 
	C3677.187988,552.507629 3676.418457,552.239014 3675.632080,552.034729 
	C3645.945801,544.317078 3632.651611,528.753540 3632.006836,498.204224 
	C3631.250977,462.387482 3631.915039,426.542908 3631.541016,390.714813 
	C3631.414307,378.586945 3630.660889,366.384949 3629.066650,354.366394 
	C3619.806152,284.557709 3567.615234,224.949463 3490.513428,218.602646 
	C3464.598389,216.469360 3438.866943,217.813614 3414.309326,227.624298 
	C3405.565430,231.117416 3397.093262,235.290436 3388.029297,239.363251 
	C3388.029297,231.831116 3388.029297,224.450745 3388.029297,216.540756 
	C3331.593750,231.387100 3274.326904,229.652344 3217.170898,230.654892 
	C3216.843506,233.805710 3216.559326,236.540634 3216.322754,238.818726 
	C3223.203613,241.440842 3229.698242,243.525772 3235.858887,246.341309 
	C3250.413574,252.993134 3258.872803,264.600067 3261.705078,280.212982 
	C3262.621338,285.265594 3263.021729,290.478821 3263.028076,295.619324 
	C3263.110596,361.950867 3263.080566,428.282501 3263.069580,494.614136 
	C3263.069336,496.613159 3263.019775,498.615387 3262.902588,500.610748 
	C3261.352783,527.008911 3249.576904,542.270264 3224.440430,550.453552 
	C3221.777100,551.320557 3219.082275,552.090576 3216.174316,552.974976 
	C3216.552002,555.912231 3216.904053,558.649841 3217.269043,561.488342 
	C3289.673828,561.488342 3361.773193,561.488342 3434.351074,561.488342 
	C3434.643066,558.565796 3434.917236,555.820251 3435.206787,552.921936 
	C3431.714111,551.864624 3428.540283,550.947876 3425.394287,549.944214 
	C3406.813965,544.017029 3394.215820,532.230408 3390.447754,512.663574 
	C3388.884033,504.543427 3388.204346,496.134644 3388.182861,487.854401 
	C3388.009033,419.689697 3388.084717,351.524353 3388.084717,283.359222 
	C3388.084717,263.751343 3388.060547,263.705200 3405.555908,254.577927 
	C3419.236084,247.440781 3433.700195,244.242126 3449.008301,247.427597 
	C3468.056152,251.391266 3479.186523,264.657013 3487.040283,281.268646 
	C3497.133057,302.615936 3501.541748,325.513275 3503.788086,348.750885 
	C3508.673096,399.284973 3507.126221,449.983582 3505.961426,500.608551 
	C3505.328857,528.098450 3492.248291,543.210144 3465.835449,551.048218 
	C3458.724365,553.158447 3458.387451,553.888367 3461.167236,561.718567 
	C3478.869629,561.718567 3496.684814,561.718567 3515.500000,561.718628 
M1887.654907,370.848663 
	C1876.737427,366.895294 1866.074219,361.879059 1854.853271,359.193817 
	C1824.799072,352.001556 1794.357544,352.584900 1764.019897,357.570557 
	C1740.537476,361.429657 1718.330200,368.715363 1698.049438,381.824982 
	C1647.955688,414.205841 1649.045898,479.689575 1676.393555,513.574646 
	C1690.809448,531.436646 1709.622070,542.568298 1730.877319,549.930542 
	C1759.789062,559.944702 1789.798706,561.818176 1820.093628,561.042542 
	C1849.463013,560.290649 1876.406494,551.976196 1900.593018,535.111694 
	C1903.258789,533.252869 1905.964355,531.451111 1908.873535,529.471985 
	C1918.891968,546.907043 1934.879150,554.753723 1953.236938,558.510742 
	C1961.191528,560.138794 1969.382080,560.889648 1977.504883,561.368530 
	C2004.877441,562.982422 2030.421631,557.066040 2053.430908,541.749939 
	C2054.761230,540.864502 2055.908691,538.336121 2055.679688,536.788635 
	C2055.312500,534.308472 2055.125244,531.271301 2050.878418,531.131714 
	C2039.213867,530.748291 2031.189331,524.410400 2027.976929,513.559082 
	C2025.075928,503.759491 2022.527588,493.488403 2022.228394,483.354187 
	C2021.318726,452.547455 2022.017456,421.694489 2021.190796,390.883606 
	C2020.759155,374.798523 2019.834839,358.488434 2016.724731,342.756042 
	C2005.346436,285.199799 1972.009399,246.199844 1915.729492,227.955429 
	C1879.434326,216.189468 1842.051147,215.623550 1804.458740,218.514221 
	C1768.194214,221.302811 1732.530884,227.867737 1697.138794,236.028046 
	C1687.538330,238.241592 1677.991211,240.685547 1668.118652,243.097244 
	C1684.409912,278.424744 1700.370361,313.034729 1716.659058,348.356567 
	C1723.048340,337.728912 1728.918213,327.696411 1735.048828,317.825867 
	C1746.644409,299.156769 1757.980469,280.281189 1773.947144,264.811035 
	C1787.629883,251.553543 1802.909424,241.621490 1822.509644,239.388763 
	C1843.558960,236.990936 1860.257446,243.565308 1871.686401,261.714111 
	C1874.943726,266.886749 1877.733765,272.460022 1879.968262,278.151825 
	C1889.180786,301.618164 1892.723511,326.305695 1894.963867,351.223328 
	C1895.670166,359.080414 1896.009155,366.970520 1896.573120,375.729279 
	C1893.200317,373.841461 1890.776489,372.484894 1887.654907,370.848663 
M2863.149658,340.673340 
	C2868.129150,332.410339 2872.988525,324.071930 2878.112793,315.899780 
	C2889.432617,297.847626 2900.499023,279.598785 2916.016357,264.637573 
	C2929.736572,251.409363 2945.043701,241.522583 2964.639404,239.357971 
	C2985.463379,237.057693 3002.188477,243.446487 3013.369385,261.519257 
	C3017.617432,268.385651 3021.128174,275.881012 3023.836182,283.494690 
	C3031.751221,305.750305 3034.994141,328.989288 3036.971191,352.418030 
	C3037.602539,359.899506 3037.927734,367.406891 3038.449463,375.812927 
	C3024.627197,367.451721 3010.818359,362.240509 2996.364502,358.982758 
	C2966.382324,352.225006 2936.167236,352.615143 2906.006104,357.551514 
	C2882.699463,361.365997 2860.651123,368.600586 2840.447754,381.483307 
	C2788.617920,414.532837 2789.834717,484.389252 2823.062988,519.201782 
	C2837.086914,533.894165 2854.151123,543.533630 2873.124023,550.039429 
	C2902.070801,559.965332 2932.058838,561.826477 2962.341064,561.028137 
	C2991.346436,560.263428 3017.985840,552.033752 3041.947754,535.497498 
	C3044.787354,533.537781 3047.636963,531.592651 3050.739746,529.463867 
	C3060.673096,546.756165 3076.592041,554.722046 3094.971436,558.461182 
	C3103.089600,560.112854 3111.441162,560.916931 3119.727539,561.385437 
	C3146.912354,562.922424 3172.305664,557.061829 3195.168945,541.847839 
	C3196.540039,540.935486 3197.842529,538.470215 3197.628418,536.944946 
	C3197.253174,534.272461 3196.931885,531.214111 3192.459961,531.086670 
	C3181.458740,530.773193 3173.565186,524.811646 3170.295898,514.658752 
	C3167.218262,505.100861 3164.557373,494.985748 3164.249756,485.037384 
	C3163.277588,453.574066 3163.382812,422.074341 3163.292969,390.588104 
	C3163.242920,373.038422 3161.871338,355.661621 3157.959961,338.533203 
	C3146.275146,287.361816 3116.965088,250.929535 3067.752197,231.459106 
	C3039.297119,220.201080 3009.383301,217.045151 2979.080566,217.131012 
	C2937.092529,217.249985 2895.837158,223.705017 2854.911133,232.518204 
	C2839.977051,235.734161 2825.138916,239.394836 2809.942383,242.925629 
	C2826.221680,278.224701 2842.239990,312.958191 2858.493408,348.201019 
	C2860.184082,345.519196 2861.506836,343.421051 2863.149658,340.673340 
M4210.138184,204.614929 
	C4167.102051,221.061890 4135.584473,250.132004 4117.363281,292.365662 
	C4093.948486,346.639374 4091.889160,402.698212 4109.624512,458.750153 
	C4124.519531,505.827454 4155.527832,539.618103 4201.521973,558.623657 
	C4233.575195,571.868591 4267.295898,574.574524 4301.554199,572.524109 
	C4332.362305,570.680237 4361.708496,563.214233 4388.682617,547.985718 
	C4416.603027,532.222717 4438.308105,510.564056 4449.478027,479.799835 
	C4456.444336,460.614563 4456.080566,442.363037 4441.888184,425.936707 
	C4426.525391,408.154633 4399.552734,406.033417 4382.754395,422.460907 
	C4376.076172,428.991791 4370.653809,437.041779 4365.693359,445.040955 
	C4357.918457,457.579559 4349.666992,469.593231 4338.123047,478.973907 
	C4296.628906,512.693909 4232.403320,496.504456 4211.293457,445.915527 
	C4194.431641,405.506470 4194.640137,363.831909 4210.764648,323.250793 
	C4222.645996,293.348053 4244.646973,274.153046 4278.157227,271.491180 
	C4301.335449,269.650024 4322.741211,274.416016 4339.538086,291.777130 
	C4347.148926,299.643921 4353.811523,308.432434 4360.841797,316.855072 
	C4366.485840,323.617615 4371.594727,330.900238 4377.795898,337.096924 
	C4381.405273,340.703888 4386.391602,343.588837 4391.284668,345.145813 
	C4415.854004,352.964325 4443.183594,336.695496 4448.318848,311.478516 
	C4450.701172,299.782104 4448.213379,288.591614 4443.445312,277.926300 
	C4430.356445,248.648651 4407.941406,228.258286 4379.963867,213.988739 
	C4325.145508,186.029480 4268.476074,185.532059 4210.138184,204.614929 
M5403.329102,570.917175 
	C5406.589844,570.257080 5409.883301,569.728638 5413.104980,568.914062 
	C5426.947754,565.414307 5440.237305,560.696228 5450.483887,550.115173 
	C5463.345215,536.833923 5464.616699,515.661377 5453.531738,501.638458 
	C5443.559570,489.023376 5430.378418,486.683075 5415.365723,489.346741 
	C5404.738281,491.232300 5394.035156,493.263885 5383.294922,493.797394 
	C5369.579590,494.478699 5361.921875,487.924194 5360.073730,474.315582 
	C5358.644531,463.794281 5358.125977,453.081360 5358.088867,442.450531 
	C5357.900391,388.791931 5358.002930,335.132263 5358.003418,281.472992 
	C5358.003418,279.679047 5358.003418,277.885071 5358.003418,275.677338 
	C5361.906738,275.677338 5365.379883,275.902222 5368.813965,275.635040 
	C5379.087891,274.835815 5389.470703,274.542786 5399.578125,272.744110 
	C5411.260742,270.665192 5422.035156,266.143188 5427.905273,254.568451 
	C5437.289062,236.063217 5429.391602,212.778290 5410.093750,205.153137 
	C5402.280273,202.065826 5393.323730,201.414490 5384.800293,200.707550 
	C5376.067383,199.983261 5367.227539,200.547073 5358.003418,200.547073 
	C5358.003418,185.004532 5358.264160,169.865021 5357.930176,154.738647 
	C5357.596191,139.602463 5357.413086,124.400291 5355.820312,109.369560 
	C5353.558105,88.033493 5335.179199,70.977135 5313.069336,68.202431 
	C5291.672363,65.517227 5270.638672,77.301224 5262.983887,97.420853 
	C5260.085449,105.039841 5258.499023,113.540718 5258.224609,121.703835 
	C5257.405762,146.010590 5257.535156,170.349289 5257.298340,194.675537 
	C5257.280762,196.469086 5257.295898,198.262955 5257.295898,199.966049 
	C5249.867188,200.703262 5242.851074,200.880829 5236.046875,202.173798 
	C5217.049805,205.783737 5204.944824,219.748352 5204.796875,237.533264 
	C5204.640625,256.262451 5216.244629,270.286224 5235.719727,274.106995 
	C5242.653320,275.467255 5249.830566,275.582153 5257.295898,276.304138 
	C5257.295898,278.227753 5257.295898,280.191315 5257.295898,282.154877 
	C5257.295898,335.980804 5257.238281,389.806824 5257.325195,443.632599 
	C5257.358887,464.464111 5258.225586,485.241058 5262.018066,505.817291 
	C5268.470215,540.815857 5289.538574,562.696533 5324.425293,570.058899 
	C5350.356445,575.531189 5376.398438,574.616577 5403.329102,570.917175 
M5029.207031,539.610535 
	C5030.444824,530.578674 5032.596191,521.562317 5032.749023,512.512024 
	C5033.220215,484.692017 5032.403320,456.846283 5033.085449,429.035004 
	C5033.692871,404.250610 5035.087402,379.452911 5037.172363,354.748688 
	C5038.572266,338.159607 5042.526855,321.899567 5050.146973,306.861694 
	C5060.309570,286.805542 5077.560547,277.401733 5099.833008,280.713013 
	C5111.280273,282.414978 5122.441895,285.988586 5133.782227,288.490936 
	C5140.718262,290.021576 5147.846680,292.601685 5154.718750,292.145294 
	C5176.065918,290.727509 5192.612793,272.163300 5192.876953,250.599152 
	C5193.083496,233.740662 5184.871582,221.382904 5171.343750,212.306030 
	C5155.899902,201.943130 5138.744629,195.810074 5120.344238,193.410645 
	C5088.613281,189.272812 5061.150391,196.738968 5040.962891,223.361740 
	C5037.103516,228.451172 5033.165527,233.481140 5028.797852,239.142120 
	C5028.083496,235.662537 5027.614258,232.918747 5026.951172,230.222504 
	C5023.774902,217.303680 5018.734863,205.515854 5006.591797,198.361389 
	C4980.156250,182.785812 4946.552246,195.402771 4936.930664,224.453995 
	C4932.895996,236.635910 4932.136230,249.235168 4932.136230,261.930786 
	C4932.133301,344.747925 4932.116211,427.565063 4932.173828,510.382172 
	C4932.177734,516.034302 4932.404785,521.730164 4933.124512,527.329041 
	C4934.867676,540.895569 4939.752441,552.960999 4950.282227,562.370605 
	C4972.564453,582.282104 5016.870605,577.190002 5029.207031,539.610535 
M1071.540039,320.901154 
	C1090.243896,331.324768 1105.453491,345.415436 1116.087524,363.850189 
	C1120.310303,363.173523 1119.214233,361.055023 1118.320435,358.689087 
	C1109.562256,335.504272 1097.001465,314.673950 1079.768921,296.806427 
	C1049.041138,264.946564 1010.527771,247.978409 967.971741,239.014191 
	C919.317261,228.765381 870.314209,229.673370 821.268982,235.318878 
	C771.384155,241.061035 722.545959,251.978714 674.501160,266.442535 
	C604.706116,287.454285 534.138733,304.565460 461.017426,308.544952 
	C426.291199,310.434875 391.729584,309.091248 357.892365,299.968445 
	C326.937500,291.622711 299.612671,277.304840 279.719513,251.220322 
	C276.017303,246.365891 272.838104,241.112579 269.417511,236.043381 
	C268.901062,236.013443 268.384613,235.983505 267.868164,235.953568 
	C267.670990,237.552765 266.847168,239.404800 267.374481,240.711685 
	C272.162994,252.580048 276.671295,264.602448 282.228973,276.112701 
	C311.712891,337.175537 360.657806,371.488434 427.489929,380.868286 
	C465.782074,386.242584 503.946136,384.019562 542.003357,378.553558 
	C586.890442,372.106659 630.901306,361.602661 674.131042,348.076569 
	C732.115356,329.933990 790.310913,312.811218 850.514771,303.502289 
	C898.913513,296.018768 947.440430,291.914764 996.316711,298.094177 
	C1022.398804,301.391754 1047.630737,307.780212 1071.540039,320.901154 
M914.563477,374.469299 
	C899.777466,375.425690 884.920593,375.766327 870.219238,377.458130 
	C831.635803,381.898315 793.895508,390.713501 756.376831,400.546021 
	C707.970886,413.231750 659.723511,426.590302 611.062439,438.213287 
	C571.809631,447.589020 531.882690,453.260651 491.255096,450.058746 
	C455.119690,447.210876 422.409119,436.611816 397.654999,408.200287 
	C396.936890,407.376038 395.270355,407.378174 394.046021,406.995026 
	C393.976013,408.287292 393.441772,409.788147 393.913147,410.837128 
	C396.502258,416.598572 399.154877,422.346436 402.117859,427.922485 
	C422.892151,467.017792 454.662415,491.703674 498.210297,500.712799 
	C530.949463,507.485870 563.823547,506.025269 596.646118,501.534149 
	C638.793030,495.767181 679.960022,485.526123 720.280945,472.198944 
	C789.472351,449.329407 860.255188,435.744110 933.155945,433.637451 
	C965.033264,432.716309 996.803040,433.775604 1028.010864,441.047455 
	C1048.111084,445.731079 1067.599487,451.937408 1080.579468,469.701294 
	C1083.861816,469.066193 1083.606812,467.540161 1082.286255,465.096344 
	C1064.755127,432.651764 1040.434937,407.296326 1006.501404,391.793304 
	C977.572632,378.576752 946.920288,374.611359 914.563477,374.469299 
z"/>
<path fill="#E69831" opacity="1.000000" stroke="none" 
	d="
M638.416626,649.000000 
	C632.486328,647.974854 626.882263,647.292542 621.474304,645.866577 
	C594.995361,638.884705 574.639893,614.252136 574.010681,588.721741 
	C573.274841,558.865967 592.583740,534.116943 622.060974,527.133606 
	C651.279968,520.211487 681.010681,532.763367 696.194885,558.573120 
	C697.656616,561.057739 698.925903,561.816956 702.017700,561.408203 
	C740.737061,556.289490 778.124084,545.754089 815.575684,534.341064 
	C814.907410,535.961304 814.105347,537.537415 812.829102,538.451355 
	C790.768799,554.249390 768.599243,569.895447 746.589355,585.762939 
	C742.427063,588.763672 738.848083,592.573547 735.000000,596.010071 
	C726.266846,596.917175 717.536133,597.849976 708.798218,598.708313 
	C707.161499,598.869019 705.495422,598.731262 704.766663,598.731262 
	C700.764954,606.887085 697.942810,615.013611 693.212585,621.812500 
	C681.333008,638.887146 664.151794,647.041077 643.304565,648.743347 
	C641.611084,649.000000 640.222229,649.000000 638.416626,649.000000 
M667.916626,591.953064 
	C669.006836,583.615417 666.489990,576.479004 660.609619,570.551575 
	C650.595825,560.457520 634.113770,558.385254 621.896240,565.606689 
	C611.524414,571.737183 607.308228,583.654114 611.685791,594.465759 
	C616.101807,605.372131 628.346497,613.008911 640.871765,612.668396 
	C654.138184,612.307739 663.760132,605.201111 667.916626,591.953064 
z"/>
<path fill="#E87D1E" opacity="1.000000" stroke="none" 
	d="
M1.000001,159.449982 
	C1.993127,155.897751 2.839193,152.738892 4.007347,149.704025 
	C7.321200,141.094559 12.913450,135.479645 22.480404,133.396881 
	C95.613182,117.475449 169.362823,107.407433 244.409225,109.094742 
	C286.798065,110.047798 328.738647,115.209869 370.472290,122.446907 
	C404.737244,128.388794 438.938416,134.862030 473.370728,139.636642 
	C525.120483,146.812622 576.327332,142.688461 626.928101,129.589188 
	C671.586853,118.028198 716.794434,109.035530 762.594177,103.329735 
	C806.182373,97.899452 849.908691,95.648087 893.729187,100.163994 
	C935.713440,104.490662 975.968018,114.711212 1012.278442,137.232101 
	C1046.732422,158.601608 1071.587402,188.291412 1087.359375,226.562256 
	C1086.065430,226.019852 1084.066040,225.836853 1083.579956,224.882843 
	C1068.883057,196.034912 1043.539307,181.174515 1013.986206,172.082184 
	C981.125122,161.972137 947.245605,160.088501 913.147461,160.628860 
	C855.809204,161.537506 799.463867,170.491837 743.347351,181.496780 
	C686.152283,192.713211 630.242920,209.042099 573.837830,223.413483 
	C539.905273,232.059082 505.630859,238.701019 470.384521,238.890869 
	C443.304138,239.036728 418.668976,231.138626 395.437439,217.652176 
	C374.713623,205.621536 353.973633,193.565872 332.746948,182.465591 
	C291.129120,160.701965 246.829163,149.474609 199.632294,151.106750 
	C161.483429,152.425995 124.783989,161.001587 89.256668,174.511703 
	C73.115959,180.649597 57.496452,188.155746 41.614555,194.980804 
	C40.286648,195.551468 38.755989,195.958374 37.326820,195.937668 
	C23.092648,195.731674 5.826775,190.316086 1.329804,168.181976 
	C1.000000,165.299988 1.000000,162.599976 1.000001,159.449982 
M315.664642,118.480255 
	C315.108246,118.335503 314.551819,118.190750 313.106873,118.024139 
	C308.315796,117.666054 303.526550,117.280762 298.733276,116.954674 
	C279.239441,115.628448 259.753632,113.435562 240.247345,113.230888 
	C216.171021,112.978264 192.077271,114.384613 167.156158,115.066422 
	C158.280960,116.033585 149.395081,116.912521 140.532898,117.987038 
	C124.106590,119.978668 107.610336,121.576782 91.296768,124.269203 
	C70.070976,127.772354 48.973694,132.076324 27.871408,136.287689 
	C23.420912,137.175888 18.282749,138.082840 15.025041,140.833176 
	C5.286355,149.055130 3.495569,160.248260 6.663134,172.088043 
	C9.646784,183.240402 17.907454,188.986832 28.864555,190.937592 
	C32.506222,191.585938 36.975513,192.529037 39.973862,191.078690 
	C68.329407,177.362595 97.572395,166.121307 128.770126,157.895035 
	C146.808594,154.602402 164.738266,150.307495 182.919922,148.333954 
	C197.491211,146.752304 212.433029,147.123001 227.091751,148.217056 
	C241.868622,149.319931 256.575470,151.979492 271.165222,154.738464 
	C279.914856,156.393051 288.381378,159.544525 297.434509,162.561218 
	C306.770081,166.446884 316.479706,169.628891 325.368774,174.354462 
	C348.951538,186.891434 372.329895,199.833176 395.507416,213.106537 
	C419.091339,226.612625 443.804535,235.678986 471.393127,234.966690 
	C477.843597,234.800140 484.324188,234.659576 490.724243,233.925598 
	C503.175262,232.497681 515.579102,230.658081 528.835632,228.991714 
	C539.689636,226.775482 550.650696,224.982452 561.379211,222.269836 
	C607.967285,210.490417 654.345581,197.847275 701.084045,186.709503 
	C730.501221,179.699417 760.329651,174.269073 790.145203,169.124786 
	C812.600830,165.250366 835.330750,162.969528 857.933899,159.944092 
	C861.976440,159.403000 865.995911,158.689880 870.953979,158.030746 
	C877.075500,157.691101 883.199707,157.022339 889.318115,157.071411 
	C910.592163,157.242096 931.880005,157.272964 953.130859,158.137894 
	C965.150879,158.627090 977.211365,160.046921 989.073730,162.091629 
	C1014.990845,166.558960 1039.667725,174.448257 1060.738892,191.090271 
	C1061.408447,191.619156 1062.557129,191.541550 1064.636230,192.002396 
	C1050.917725,172.574661 1035.023926,157.298553 1016.472778,144.694992 
	C995.211121,130.249939 971.815979,120.600060 947.094727,114.095467 
	C937.524536,111.577393 927.709045,109.991821 917.447571,107.414040 
	C915.643860,107.217422 913.842346,106.998024 912.036194,106.827736 
	C894.937378,105.215668 877.867065,102.841057 860.731384,102.190010 
	C836.206787,101.258209 811.657288,102.045723 787.225952,104.964180 
	C771.812866,106.805351 756.285828,107.881592 740.972412,110.321129 
	C719.618591,113.722931 698.353516,117.770599 677.169617,122.122169 
	C660.021790,125.644676 643.049927,130.023926 625.198425,134.026703 
	C619.886902,135.280304 614.592529,136.612656 609.260925,137.774139 
	C584.298462,143.212128 559.059631,146.760880 533.503723,146.869629 
	C518.096375,146.935196 502.660461,146.003799 487.280304,144.914490 
	C474.921997,144.039200 462.549164,142.741974 450.322937,140.765274 
	C427.968842,137.151169 405.727661,132.843506 383.421509,128.926727 
	C367.961426,126.212067 352.471436,123.667770 336.124542,121.019905 
	C332.087219,120.664619 328.049866,120.309334 323.585602,119.446838 
	C322.722473,119.312653 321.859375,119.178474 320.165863,119.019051 
	C318.781494,118.997383 317.397095,118.975716 315.664642,118.480255 
M1065.612915,194.508270 
	C1065.612915,194.508270 1065.479248,194.593323 1065.612915,194.508270 
z"/>
<path fill="#E87D1E" opacity="1.000000" stroke="none" 
	d="
M862.531372,0.999998 
	C867.472656,2.018106 871.959106,2.979565 876.415710,4.063695 
	C901.944214,10.273860 917.472412,25.322159 924.253052,51.407967 
	C922.272583,50.957672 920.127258,51.122711 919.510803,50.230888 
	C911.510498,38.658024 899.415833,35.427299 886.571228,34.062527 
	C861.890869,31.440151 837.653625,35.360943 813.740112,40.642231 
	C777.039612,48.747547 740.601501,58.034492 703.942261,66.335182 
	C676.281494,72.598351 648.281982,76.702232 619.788635,75.960236 
	C603.028137,75.523781 586.641663,73.080894 571.190063,66.093048 
	C548.808533,55.971218 535.864929,38.038971 529.046509,15.084761 
	C528.753845,14.099591 529.408264,12.833084 529.621460,11.697631 
	C530.843201,12.046884 532.518860,11.999901 533.220154,12.803399 
	C550.118164,32.165230 572.683899,37.837780 596.946594,38.921665 
	C626.829834,40.256641 655.980652,34.734413 684.988831,28.459036 
	C718.315796,21.249378 751.559265,13.646929 784.933777,6.668136 
	C796.309265,4.289459 807.971741,3.283708 819.751587,1.325319 
	C834.020874,1.000000 848.041809,1.000000 862.531372,0.999998 
M701.794006,62.972931 
	C706.951599,61.779621 712.122498,60.640961 717.264404,59.383438 
	C738.178894,54.268494 759.084412,49.117100 780.712708,43.684151 
	C788.921753,41.792004 797.056335,39.437321 805.354980,38.101833 
	C823.921631,35.113930 842.510925,32.038998 861.208496,30.183052 
	C871.434692,29.167978 882.042725,29.627542 892.211670,31.175453 
	C900.022827,32.364445 907.416809,36.294159 915.108032,39.279308 
	C915.193970,39.327869 915.279968,39.376427 915.365906,39.424999 
	C915.245544,39.282017 915.125183,39.139034 914.990906,38.249237 
	C912.672119,30.599014 907.340027,25.131031 901.417358,20.291828 
	C887.810730,9.174095 871.429260,5.560562 854.539368,5.215570 
	C838.841797,4.894934 823.096069,6.158339 807.396423,7.127095 
	C801.892944,7.466688 796.463318,9.003597 790.147827,9.999606 
	C772.852051,13.465185 755.523804,16.779026 738.274231,20.460943 
	C729.774414,22.275217 721.419800,24.769943 712.155029,26.976303 
	C710.686340,27.182068 709.198303,27.297689 707.752075,27.608116 
	C697.897400,29.723351 688.120728,32.300476 678.188232,33.934032 
	C658.169556,37.226425 638.067627,40.012600 617.062683,43.002682 
	C606.456177,42.667286 595.794128,42.894321 585.257446,41.852898 
	C572.336731,40.575851 559.849487,37.161957 548.590210,30.310745 
	C544.502869,27.823648 540.587036,25.054796 535.868042,21.935307 
	C545.997314,51.882217 572.829895,68.840424 609.768921,71.340317 
	C627.455139,73.215202 645.067505,71.822380 662.577637,69.532410 
	C675.448120,67.849213 688.191284,65.191750 701.794006,62.972931 
z"/>
<path fill="#0109C2" opacity="1.000000" stroke="none" 
	d="
M2661.556152,246.437683 
	C2692.505615,270.277863 2709.634033,302.185333 2716.722412,339.473236 
	C2719.999268,356.709869 2721.504883,374.461456 2721.924561,392.024658 
	C2722.720459,425.335846 2722.029297,458.680450 2722.253174,492.009155 
	C2722.302979,499.459167 2722.884766,507.047974 2724.424805,514.318054 
	C2728.456299,533.349976 2741.448242,544.108337 2759.233643,549.929626 
	C2762.375732,550.958130 2765.574219,551.813171 2769.182617,552.876648 
	C2768.959473,555.679260 2768.741943,558.409302 2768.502930,561.411194 
	C2695.846436,561.411194 2623.622559,561.411194 2551.274902,561.411194 
	C2550.951416,558.581055 2550.652588,555.966858 2550.320312,553.057068 
	C2554.360107,551.774475 2558.315674,550.654297 2562.176758,549.270630 
	C2584.288574,541.347046 2596.619873,525.960815 2596.768799,502.512512 
	C2597.068115,455.369690 2596.989502,408.199066 2595.627930,361.081512 
	C2594.915283,336.426392 2589.624023,312.206818 2578.910156,289.601654 
	C2573.047607,277.233185 2565.329346,266.253845 2553.479736,258.842712 
	C2538.017578,249.171997 2521.339600,248.822983 2504.356934,253.433350 
	C2488.652344,257.696686 2475.322754,266.393921 2462.750000,277.149689 
	C2470.939941,290.465088 2476.671387,304.713776 2480.417480,319.759705 
	C2485.061279,338.411804 2487.718018,357.337921 2487.765381,376.570557 
	C2487.863525,416.566406 2487.732422,456.563110 2487.956543,496.558014 
	C2487.992676,502.994415 2488.734375,509.580750 2490.262939,515.825378 
	C2494.366455,532.587585 2505.658691,542.955994 2521.502930,548.750732 
	C2525.835205,550.335144 2530.282959,551.604126 2534.853271,553.074280 
	C2534.504395,555.880981 2534.178955,558.498413 2533.778564,561.718506 
	C2531.799561,561.718506 2529.864746,561.718567 2527.930176,561.718567 
	C2459.936523,561.718567 2391.942871,561.718445 2323.949219,561.718506 
	C2315.732910,561.718506 2315.732910,561.718384 2316.147949,553.188660 
	C2322.262695,550.957947 2328.478760,549.094543 2334.354492,546.470032 
	C2351.280518,538.910034 2359.808105,525.182190 2361.911133,507.198181 
	C2362.605713,501.258209 2362.801025,495.232117 2362.812744,489.244629 
	C2362.889160,450.248444 2363.118652,411.249573 2362.761230,372.256500 
	C2362.511963,345.080841 2360.671875,317.985596 2352.930664,291.702209 
	C2351.202881,285.836212 2348.795410,280.120178 2346.203857,274.567108 
	C2332.620361,245.461472 2305.549072,242.324554 2284.279541,248.524612 
	C2272.603516,251.928192 2262.444824,258.272583 2253.046143,265.812500 
	C2251.796387,266.815216 2251.010986,269.152649 2251.024170,270.864197 
	C2251.408691,321.357300 2251.920166,371.849426 2252.416504,422.341675 
	C2252.657471,446.837830 2252.768066,471.336639 2253.251709,495.828064 
	C2253.379150,502.278046 2254.090088,508.840149 2255.542725,515.117065 
	C2259.835938,533.666809 2272.678711,544.105347 2290.024658,549.875366 
	C2293.166016,550.920288 2296.380127,551.747192 2300.148193,552.846191 
	C2299.920166,555.676880 2299.690430,558.528442 2299.448975,561.524780 
	C2226.739746,561.524780 2154.630371,561.524780 2082.212158,561.524780 
	C2081.820557,558.686096 2081.442383,555.945740 2081.034180,552.986694 
	C2084.786377,551.863220 2088.306885,550.951050 2091.731201,549.760986 
	C2115.643799,541.450073 2127.442627,525.799805 2127.927979,500.478943 
	C2128.308105,480.657715 2127.937988,460.819061 2127.723633,440.990051 
	C2127.202881,392.831482 2126.661865,344.672699 2125.901367,296.517609 
	C2125.794434,289.741577 2125.043945,282.837372 2123.498047,276.248871 
	C2119.239746,258.097778 2106.543945,247.910309 2089.613037,242.158539 
	C2086.170898,240.989151 2082.660645,240.020721 2078.850342,238.858566 
	C2079.218262,235.944122 2079.568115,233.174164 2079.938965,230.236832 
	C2137.266113,229.520035 2194.513184,230.875931 2250.825195,216.240250 
	C2250.825195,224.344208 2250.825195,231.814011 2250.825195,238.938339 
	C2319.251953,207.161575 2384.584229,207.673828 2446.825439,255.484818 
	C2454.875488,250.846069 2463.762939,245.301544 2473.019043,240.461777 
	C2522.759277,214.453598 2574.471436,209.888138 2627.556396,228.203674 
	C2639.452148,232.307968 2650.072021,240.110397 2661.556152,246.437683 
z"/>
<path fill="#0109C2" opacity="1.000000" stroke="none" 
	d="
M3958.616699,533.622559 
	C3937.915283,552.412231 3913.470947,560.467896 3886.287354,561.369324 
	C3847.509766,562.655151 3810.228516,556.798950 3776.128174,537.171814 
	C3733.360596,512.556152 3708.815674,475.134369 3701.160156,426.772797 
	C3695.560303,391.397491 3697.082275,356.104889 3709.548584,322.295105 
	C3730.125244,266.489990 3770.953613,233.374634 3828.639404,221.140930 
	C3867.178711,212.967667 3904.805664,216.168304 3940.550049,233.989624 
	C3943.510498,235.465454 3946.395752,237.091751 3949.785400,238.898407 
	C3949.922119,237.638046 3950.130859,236.611755 3950.130859,235.585449 
	C3950.137451,200.588974 3950.157959,165.592422 3950.094482,130.596039 
	C3950.073242,118.973335 3948.434814,107.715744 3941.996338,97.619507 
	C3933.817383,84.794708 3921.041992,79.152328 3907.210449,75.108383 
	C3905.941650,74.737366 3904.650391,74.443291 3902.895752,73.991615 
	C3903.193604,71.143539 3903.480469,68.402298 3903.808838,65.264565 
	C3961.063232,64.400909 4018.300537,66.332886 4074.679199,51.546318 
	C4074.679199,222.048401 4074.679199,391.940613 4074.679199,562.606750 
	C4039.999756,548.215942 4005.436523,533.873474 3971.313965,519.713745 
	C3966.903809,524.557251 3962.887939,528.967896 3958.616699,533.622559 
M3932.009766,254.420792 
	C3925.276855,252.076843 3918.685303,249.137695 3911.785156,247.496689 
	C3887.779297,241.787674 3870.272217,248.676620 3856.709229,269.307190 
	C3852.451172,275.783447 3848.947021,282.886353 3846.008789,290.074799 
	C3836.515381,313.301544 3832.957031,337.804108 3831.654297,362.674133 
	C3829.855469,397.016418 3830.107910,431.287415 3837.024414,465.168091 
	C3841.120850,485.235504 3847.485107,504.411316 3861.147949,520.300903 
	C3875.820312,537.364075 3898.246826,542.484070 3920.792236,533.919067 
	C3935.837158,528.203552 3950.621582,515.589417 3950.367432,487.943420 
	C3949.740967,419.802826 3950.162109,351.652588 3950.162354,283.506226 
	C3950.162598,263.951599 3950.162354,263.951599 3932.009766,254.420792 
z"/>
<path fill="#0109C2" opacity="1.000000" stroke="none" 
	d="
M1409.871704,72.914871 
	C1463.757568,67.669411 1515.620117,74.369949 1565.760010,93.644379 
	C1569.979980,95.266594 1572.508911,95.022247 1575.394531,91.286812 
	C1580.270386,84.974602 1585.782837,79.154022 1590.966675,73.196938 
	C1599.125244,74.974319 1599.125244,74.974319 1599.125244,83.048874 
	C1599.125244,124.376152 1599.125244,165.703430 1599.125244,207.030716 
	C1599.125244,208.845535 1599.125244,210.660370 1599.125244,212.806061 
	C1596.193726,213.311356 1593.484253,213.778381 1591.109009,214.187775 
	C1586.257446,203.169464 1582.177246,192.260559 1576.818604,182.020676 
	C1554.770142,139.887222 1521.451416,110.800880 1475.366455,97.789185 
	C1448.802124,90.288979 1421.978394,90.429825 1396.000854,100.940292 
	C1389.318848,103.643761 1382.896484,107.600273 1377.224609,112.082031 
	C1353.371338,130.930237 1350.007690,161.719452 1369.036621,185.552734 
	C1381.663452,201.367447 1397.446167,213.713776 1414.674927,223.994949 
	C1443.233276,241.036911 1472.174683,257.436768 1500.948486,274.117859 
	C1529.810669,290.850220 1557.857178,308.779633 1582.159790,331.871979 
	C1601.832520,350.564880 1618.066772,371.761139 1625.895752,398.224304 
	C1640.184204,446.521301 1625.437500,487.872528 1582.971680,519.050903 
	C1553.346191,540.801880 1519.831543,553.377197 1483.641846,557.830627 
	C1414.215942,566.373840 1346.129150,558.843323 1279.447632,538.061035 
	C1276.319946,537.086304 1274.438232,537.353882 1272.276367,540.010254 
	C1267.338379,546.078064 1261.890137,551.727966 1256.854980,557.720581 
	C1254.724854,560.255920 1252.827759,558.893677 1250.678345,558.154602 
	C1248.580078,557.433167 1246.937744,556.919861 1246.944458,553.907410 
	C1247.057617,503.423584 1247.025269,452.939453 1247.025269,401.931061 
	C1249.824097,401.458038 1252.522095,401.002045 1255.579956,400.485229 
	C1256.162109,401.990662 1256.688110,403.333252 1257.201294,404.680664 
	C1282.173218,470.233002 1327.825073,514.070862 1395.145020,534.211243 
	C1419.051025,541.363342 1443.737061,542.261414 1468.093872,534.985352 
	C1480.221802,531.362366 1491.037598,525.191528 1500.152832,516.339355 
	C1521.313965,495.788391 1523.572510,467.675262 1505.696045,444.161285 
	C1494.896851,429.956207 1481.406982,418.441406 1466.350708,409.070526 
	C1446.308105,396.596344 1425.921509,384.652588 1405.409912,372.959381 
	C1373.892090,354.991699 1342.066650,337.558502 1313.652466,314.708344 
	C1294.807495,299.553558 1278.229370,282.409210 1265.999756,261.354797 
	C1243.646851,222.872452 1238.647339,162.590485 1289.184692,120.504471 
	C1315.381714,98.688385 1345.543335,85.542763 1378.425049,78.117058 
	C1388.625122,75.813576 1399.080200,74.639336 1409.871704,72.914871 
z"/>
<path fill="#0109C2" opacity="1.000000" stroke="none" 
	d="
M4727.608398,272.257019 
	C4719.649902,269.902893 4712.140625,266.744507 4704.355469,265.753723 
	C4686.088379,263.428772 4667.748047,263.897705 4649.769043,268.442108 
	C4632.424316,272.826172 4619.796387,283.834473 4609.789062,298.170715 
	C4603.978027,306.494843 4598.294434,314.911133 4592.705078,323.385437 
	C4588.481445,329.788910 4582.625000,333.316223 4575.104004,334.373810 
	C4564.897461,335.809113 4554.854980,335.788788 4545.215332,331.468964 
	C4526.076660,322.892395 4517.747559,305.188293 4522.483887,282.491852 
	C4528.446289,253.915009 4545.728516,233.717834 4570.154785,218.946548 
	C4593.485840,204.837784 4619.001953,197.212997 4645.896973,194.119904 
	C4679.002441,190.312607 4712.090332,190.840927 4745.032715,196.050491 
	C4761.193359,198.606201 4776.883301,202.894775 4791.600098,210.269058 
	C4820.392578,224.695862 4835.981934,248.902527 4843.039062,279.507385 
	C4847.101562,297.125610 4848.942871,314.989044 4848.954102,333.020813 
	C4848.973145,362.852509 4849.370605,392.705627 4848.394043,422.509949 
	C4847.477539,450.477936 4850.691406,477.590210 4859.396484,504.185669 
	C4862.069824,512.353760 4863.701172,520.937744 4864.976562,529.456116 
	C4865.593750,533.578552 4864.982910,538.205872 4863.732910,542.233887 
	C4856.730957,564.796631 4821.321777,586.416138 4793.712891,565.125549 
	C4781.655273,555.827393 4772.713867,543.832703 4764.178223,531.466125 
	C4762.669434,529.279663 4761.244629,527.035400 4759.550293,524.468323 
	C4753.175781,528.866699 4747.017090,533.288574 4740.688477,537.452698 
	C4717.169922,552.926819 4692.386719,565.570129 4664.303223,570.428040 
	C4631.575684,576.089294 4599.195312,576.116516 4568.315430,561.933899 
	C4534.239746,546.283447 4512.278809,520.261780 4506.272461,482.918488 
	C4498.323242,433.494812 4522.707520,391.136963 4569.026367,371.041962 
	C4587.208496,363.153717 4606.712891,360.396423 4625.809570,355.993347 
	C4665.659180,346.805420 4705.458496,337.399536 4745.274902,328.067413 
	C4746.716309,327.729523 4748.119141,327.224762 4749.926270,326.681763 
	C4748.620605,311.005707 4746.902344,295.455475 4737.914551,281.989807 
	C4735.418457,278.250610 4731.304199,275.592072 4727.608398,272.257019 
M4721.345215,483.875610 
	C4733.604980,474.101685 4741.927246,461.780029 4745.292969,446.363617 
	C4746.604004,440.359741 4747.997559,434.308136 4748.502441,428.207825 
	C4749.495605,416.210663 4749.893066,404.164246 4750.515137,392.550537 
	C4719.326172,399.723969 4689.096191,406.829071 4658.788086,413.582672 
	C4643.883301,416.903809 4629.419434,420.862427 4617.624512,431.334167 
	C4612.213379,436.138153 4608.535156,441.847107 4606.913086,448.902740 
	C4601.267090,473.457336 4616.545410,497.696777 4642.088379,502.852509 
	C4670.913574,508.670715 4697.131348,501.472717 4721.345215,483.875610 
z"/>
<path fill="#0109C2" opacity="1.000000" stroke="none" 
	d="
M3515.000000,561.718628 
	C3496.684814,561.718567 3478.869629,561.718567 3461.167236,561.718567 
	C3458.387451,553.888367 3458.724365,553.158447 3465.835449,551.048218 
	C3492.248291,543.210144 3505.328857,528.098450 3505.961426,500.608551 
	C3507.126221,449.983582 3508.673096,399.284973 3503.788086,348.750885 
	C3501.541748,325.513275 3497.133057,302.615936 3487.040283,281.268646 
	C3479.186523,264.657013 3468.056152,251.391266 3449.008301,247.427597 
	C3433.700195,244.242126 3419.236084,247.440781 3405.555908,254.577927 
	C3388.060547,263.705200 3388.084717,263.751343 3388.084717,283.359222 
	C3388.084717,351.524353 3388.009033,419.689697 3388.182861,487.854401 
	C3388.204346,496.134644 3388.884033,504.543427 3390.447754,512.663574 
	C3394.215820,532.230408 3406.813965,544.017029 3425.394287,549.944214 
	C3428.540283,550.947876 3431.714111,551.864624 3435.206787,552.921936 
	C3434.917236,555.820251 3434.643066,558.565796 3434.351074,561.488342 
	C3361.773193,561.488342 3289.673828,561.488342 3217.269043,561.488342 
	C3216.904053,558.649841 3216.552002,555.912231 3216.174316,552.974976 
	C3219.082275,552.090576 3221.777100,551.320557 3224.440430,550.453552 
	C3249.576904,542.270264 3261.352783,527.008911 3262.902588,500.610748 
	C3263.019775,498.615387 3263.069336,496.613159 3263.069580,494.614136 
	C3263.080566,428.282501 3263.110596,361.950867 3263.028076,295.619324 
	C3263.021729,290.478821 3262.621338,285.265594 3261.705078,280.212982 
	C3258.872803,264.600067 3250.413574,252.993134 3235.858887,246.341309 
	C3229.698242,243.525772 3223.203613,241.440842 3216.322754,238.818726 
	C3216.559326,236.540634 3216.843506,233.805710 3217.170898,230.654892 
	C3274.326904,229.652344 3331.593750,231.387100 3388.029297,216.540756 
	C3388.029297,224.450745 3388.029297,231.831116 3388.029297,239.363251 
	C3397.093262,235.290436 3405.565430,231.117416 3414.309326,227.624298 
	C3438.866943,217.813614 3464.598389,216.469360 3490.513428,218.602646 
	C3567.615234,224.949463 3619.806152,284.557709 3629.066650,354.366394 
	C3630.660889,366.384949 3631.414307,378.586945 3631.541016,390.714813 
	C3631.915039,426.542908 3631.250977,462.387482 3632.006836,498.204224 
	C3632.651611,528.753540 3645.945801,544.317078 3675.632080,552.034729 
	C3676.418457,552.239014 3677.187988,552.507629 3678.427490,552.888184 
	C3678.188232,555.698914 3677.956055,558.427673 3677.676025,561.718628 
	C3623.397461,561.718628 3569.448730,561.718628 3515.000000,561.718628 
z"/>
<path fill="#0109C2" opacity="1.000000" stroke="none" 
	d="
M1888.003906,370.988495 
	C1890.776489,372.484894 1893.200317,373.841461 1896.573120,375.729279 
	C1896.009155,366.970520 1895.670166,359.080414 1894.963867,351.223328 
	C1892.723511,326.305695 1889.180786,301.618164 1879.968262,278.151825 
	C1877.733765,272.460022 1874.943726,266.886749 1871.686401,261.714111 
	C1860.257446,243.565308 1843.558960,236.990936 1822.509644,239.388763 
	C1802.909424,241.621490 1787.629883,251.553543 1773.947144,264.811035 
	C1757.980469,280.281189 1746.644409,299.156769 1735.048828,317.825867 
	C1728.918213,327.696411 1723.048340,337.728912 1716.659058,348.356567 
	C1700.370361,313.034729 1684.409912,278.424744 1668.118652,243.097244 
	C1677.991211,240.685547 1687.538330,238.241592 1697.138794,236.028046 
	C1732.530884,227.867737 1768.194214,221.302811 1804.458740,218.514221 
	C1842.051147,215.623550 1879.434326,216.189468 1915.729492,227.955429 
	C1972.009399,246.199844 2005.346436,285.199799 2016.724731,342.756042 
	C2019.834839,358.488434 2020.759155,374.798523 2021.190796,390.883606 
	C2022.017456,421.694489 2021.318726,452.547455 2022.228394,483.354187 
	C2022.527588,493.488403 2025.075928,503.759491 2027.976929,513.559082 
	C2031.189331,524.410400 2039.213867,530.748291 2050.878418,531.131714 
	C2055.125244,531.271301 2055.312500,534.308472 2055.679688,536.788635 
	C2055.908691,538.336121 2054.761230,540.864502 2053.430908,541.749939 
	C2030.421631,557.066040 2004.877441,562.982422 1977.504883,561.368530 
	C1969.382080,560.889648 1961.191528,560.138794 1953.236938,558.510742 
	C1934.879150,554.753723 1918.891968,546.907043 1908.873535,529.471985 
	C1905.964355,531.451111 1903.258789,533.252869 1900.593018,535.111694 
	C1876.406494,551.976196 1849.463013,560.290649 1820.093628,561.042542 
	C1789.798706,561.818176 1759.789062,559.944702 1730.877319,549.930542 
	C1709.622070,542.568298 1690.809448,531.436646 1676.393555,513.574646 
	C1649.045898,479.689575 1647.955688,414.205841 1698.049438,381.824982 
	C1718.330200,368.715363 1740.537476,361.429657 1764.019897,357.570557 
	C1794.357544,352.584900 1824.799072,352.001556 1854.853271,359.193817 
	C1866.074219,361.879059 1876.737427,366.895294 1888.003906,370.988495 
M1791.832031,477.593872 
	C1793.706665,488.211578 1797.626587,497.958557 1803.745850,506.889008 
	C1828.340088,542.781799 1873.524658,534.464722 1892.045044,511.897827 
	C1895.191895,508.063263 1897.087769,504.147797 1897.043213,498.870514 
	C1896.802490,470.404877 1896.550415,441.927979 1897.165161,413.473572 
	C1897.344482,405.176239 1893.973633,400.053162 1888.131226,395.496857 
	C1886.953857,394.578613 1885.701782,393.747101 1884.434937,392.954102 
	C1857.722656,376.233185 1822.586792,383.391876 1803.671631,409.405731 
	C1788.764404,429.907379 1788.217285,452.973572 1791.832031,477.593872 
z"/>
<path fill="#0109C2" opacity="1.000000" stroke="none" 
	d="
M2862.989746,340.998108 
	C2861.506836,343.421051 2860.184082,345.519196 2858.493408,348.201019 
	C2842.239990,312.958191 2826.221680,278.224701 2809.942383,242.925629 
	C2825.138916,239.394836 2839.977051,235.734161 2854.911133,232.518204 
	C2895.837158,223.705017 2937.092529,217.249985 2979.080566,217.131012 
	C3009.383301,217.045151 3039.297119,220.201080 3067.752197,231.459106 
	C3116.965088,250.929535 3146.275146,287.361816 3157.959961,338.533203 
	C3161.871338,355.661621 3163.242920,373.038422 3163.292969,390.588104 
	C3163.382812,422.074341 3163.277588,453.574066 3164.249756,485.037384 
	C3164.557373,494.985748 3167.218262,505.100861 3170.295898,514.658752 
	C3173.565186,524.811646 3181.458740,530.773193 3192.459961,531.086670 
	C3196.931885,531.214111 3197.253174,534.272461 3197.628418,536.944946 
	C3197.842529,538.470215 3196.540039,540.935486 3195.168945,541.847839 
	C3172.305664,557.061829 3146.912354,562.922424 3119.727539,561.385437 
	C3111.441162,560.916931 3103.089600,560.112854 3094.971436,558.461182 
	C3076.592041,554.722046 3060.673096,546.756165 3050.739746,529.463867 
	C3047.636963,531.592651 3044.787354,533.537781 3041.947754,535.497498 
	C3017.985840,552.033752 2991.346436,560.263428 2962.341064,561.028137 
	C2932.058838,561.826477 2902.070801,559.965332 2873.124023,550.039429 
	C2854.151123,543.533630 2837.086914,533.894165 2823.062988,519.201782 
	C2789.834717,484.389252 2788.617920,414.532837 2840.447754,381.483307 
	C2860.651123,368.600586 2882.699463,361.365997 2906.006104,357.551514 
	C2936.167236,352.615143 2966.382324,352.225006 2996.364502,358.982758 
	C3010.818359,362.240509 3024.627197,367.451721 3038.449463,375.812927 
	C3037.927734,367.406891 3037.602539,359.899506 3036.971191,352.418030 
	C3034.994141,328.989288 3031.751221,305.750305 3023.836182,283.494690 
	C3021.128174,275.881012 3017.617432,268.385651 3013.369385,261.519257 
	C3002.188477,243.446487 2985.463379,237.057693 2964.639404,239.357971 
	C2945.043701,241.522583 2929.736572,251.409363 2916.016357,264.637573 
	C2900.499023,279.598785 2889.432617,297.847626 2878.112793,315.899780 
	C2872.988525,324.071930 2868.129150,332.410339 2862.989746,340.998108 
M2933.581299,437.164001 
	C2933.222900,439.462585 2932.726318,441.749329 2932.527588,444.061615 
	C2930.775879,464.447937 2932.169678,484.309723 2942.831055,502.494354 
	C2966.966309,543.662354 3014.839600,535.342102 3034.104736,511.684509 
	C3037.116943,507.985352 3039.010742,504.224457 3038.971680,499.107666 
	C3038.741455,468.976776 3038.917236,438.842896 3038.745361,408.711243 
	C3038.731934,406.334991 3037.633545,403.563599 3036.153076,401.667847 
	C3030.339844,394.223480 3022.400635,389.689850 3013.532227,386.896118 
	C2977.697510,375.607666 2940.888916,398.477142 2933.581299,437.164001 
z"/>
<path fill="#0109C2" opacity="1.000000" stroke="none" 
	d="
M4210.486328,204.438843 
	C4268.476074,185.532059 4325.145508,186.029480 4379.963867,213.988739 
	C4407.941406,228.258286 4430.356445,248.648651 4443.445312,277.926300 
	C4448.213379,288.591614 4450.701172,299.782104 4448.318848,311.478516 
	C4443.183594,336.695496 4415.854004,352.964325 4391.284668,345.145813 
	C4386.391602,343.588837 4381.405273,340.703888 4377.795898,337.096924 
	C4371.594727,330.900238 4366.485840,323.617615 4360.841797,316.855072 
	C4353.811523,308.432434 4347.148926,299.643921 4339.538086,291.777130 
	C4322.741211,274.416016 4301.335449,269.650024 4278.157227,271.491180 
	C4244.646973,274.153046 4222.645996,293.348053 4210.764648,323.250793 
	C4194.640137,363.831909 4194.431641,405.506470 4211.293457,445.915527 
	C4232.403320,496.504456 4296.628906,512.693909 4338.123047,478.973907 
	C4349.666992,469.593231 4357.918457,457.579559 4365.693359,445.040955 
	C4370.653809,437.041779 4376.076172,428.991791 4382.754395,422.460907 
	C4399.552734,406.033417 4426.525391,408.154633 4441.888184,425.936707 
	C4456.080566,442.363037 4456.444336,460.614563 4449.478027,479.799835 
	C4438.308105,510.564056 4416.603027,532.222717 4388.682617,547.985718 
	C4361.708496,563.214233 4332.362305,570.680237 4301.554199,572.524109 
	C4267.295898,574.574524 4233.575195,571.868591 4201.521973,558.623657 
	C4155.527832,539.618103 4124.519531,505.827454 4109.624512,458.750153 
	C4091.889160,402.698212 4093.948486,346.639374 4117.363281,292.365662 
	C4135.584473,250.132004 4167.102051,221.061890 4210.486328,204.438843 
z"/>
<path fill="#0109C2" opacity="1.000000" stroke="none" 
	d="
M5402.892578,570.960083 
	C5376.398438,574.616577 5350.356445,575.531189 5324.425293,570.058899 
	C5289.538574,562.696533 5268.470215,540.815857 5262.018066,505.817291 
	C5258.225586,485.241058 5257.358887,464.464111 5257.325195,443.632599 
	C5257.238281,389.806824 5257.295898,335.980804 5257.295898,282.154877 
	C5257.295898,280.191315 5257.295898,278.227753 5257.295898,276.304138 
	C5249.830566,275.582153 5242.653320,275.467255 5235.719727,274.106995 
	C5216.244629,270.286224 5204.640625,256.262451 5204.796875,237.533264 
	C5204.944824,219.748352 5217.049805,205.783737 5236.046875,202.173798 
	C5242.851074,200.880829 5249.867188,200.703262 5257.295898,199.966049 
	C5257.295898,198.262955 5257.280762,196.469086 5257.298340,194.675537 
	C5257.535156,170.349289 5257.405762,146.010590 5258.224609,121.703835 
	C5258.499023,113.540718 5260.085449,105.039841 5262.983887,97.420853 
	C5270.638672,77.301224 5291.672363,65.517227 5313.069336,68.202431 
	C5335.179199,70.977135 5353.558105,88.033493 5355.820312,109.369560 
	C5357.413086,124.400291 5357.596191,139.602463 5357.930176,154.738647 
	C5358.264160,169.865021 5358.003418,185.004532 5358.003418,200.547073 
	C5367.227539,200.547073 5376.067383,199.983261 5384.800293,200.707550 
	C5393.323730,201.414490 5402.280273,202.065826 5410.093750,205.153137 
	C5429.391602,212.778290 5437.289062,236.063217 5427.905273,254.568451 
	C5422.035156,266.143188 5411.260742,270.665192 5399.578125,272.744110 
	C5389.470703,274.542786 5379.087891,274.835815 5368.813965,275.635040 
	C5365.379883,275.902222 5361.906738,275.677338 5358.003418,275.677338 
	C5358.003418,277.885071 5358.003418,279.679047 5358.003418,281.472992 
	C5358.002930,335.132263 5357.900391,388.791931 5358.088867,442.450531 
	C5358.125977,453.081360 5358.644531,463.794281 5360.073730,474.315582 
	C5361.921875,487.924194 5369.579590,494.478699 5383.294922,493.797394 
	C5394.035156,493.263885 5404.738281,491.232300 5415.365723,489.346741 
	C5430.378418,486.683075 5443.559570,489.023376 5453.531738,501.638458 
	C5464.616699,515.661377 5463.345215,536.833923 5450.483887,550.115173 
	C5440.237305,560.696228 5426.947754,565.414307 5413.104980,568.914062 
	C5409.883301,569.728638 5406.589844,570.257080 5402.892578,570.960083 
z"/>
<path fill="#0109C2" opacity="1.000000" stroke="none" 
	d="
M5029.103516,539.993896 
	C5016.870605,577.190002 4972.564453,582.282104 4950.282227,562.370605 
	C4939.752441,552.960999 4934.867676,540.895569 4933.124512,527.329041 
	C4932.404785,521.730164 4932.177734,516.034302 4932.173828,510.382172 
	C4932.116211,427.565063 4932.133301,344.747925 4932.136230,261.930786 
	C4932.136230,249.235168 4932.895996,236.635910 4936.930664,224.453995 
	C4946.552246,195.402771 4980.156250,182.785812 5006.591797,198.361389 
	C5018.734863,205.515854 5023.774902,217.303680 5026.951172,230.222504 
	C5027.614258,232.918747 5028.083496,235.662537 5028.797852,239.142120 
	C5033.165527,233.481140 5037.103516,228.451172 5040.962891,223.361740 
	C5061.150391,196.738968 5088.613281,189.272812 5120.344238,193.410645 
	C5138.744629,195.810074 5155.899902,201.943130 5171.343750,212.306030 
	C5184.871582,221.382904 5193.083496,233.740662 5192.876953,250.599152 
	C5192.612793,272.163300 5176.065918,290.727509 5154.718750,292.145294 
	C5147.846680,292.601685 5140.718262,290.021576 5133.782227,288.490936 
	C5122.441895,285.988586 5111.280273,282.414978 5099.833008,280.713013 
	C5077.560547,277.401733 5060.309570,286.805542 5050.146973,306.861694 
	C5042.526855,321.899567 5038.572266,338.159607 5037.172363,354.748688 
	C5035.087402,379.452911 5033.692871,404.250610 5033.085449,429.035004 
	C5032.403320,456.846283 5033.220215,484.692017 5032.749023,512.512024 
	C5032.596191,521.562317 5030.444824,530.578674 5029.103516,539.993896 
z"/>
<path fill="#EE9F24" opacity="1.000000" stroke="none" 
	d="
M4906.000000,65.064568 
	C4919.313477,63.054737 4932.578125,60.600334 4945.950684,59.129906 
	C4971.910645,56.275387 4997.882812,53.090523 5023.938477,51.650158 
	C5062.945801,49.493816 5101.878418,50.157070 5139.289551,63.923615 
	C5173.990234,76.692787 5196.036621,100.626968 5203.772461,137.148346 
	C5203.908203,137.787048 5203.899902,138.456161 5204.045898,140.089569 
	C5201.510254,136.551468 5199.670410,133.589066 5197.447754,130.949371 
	C5185.540527,116.808968 5169.273438,110.755852 5151.919434,107.092934 
	C5125.770996,101.573868 5099.295898,101.985359 5072.828125,103.688278 
	C5009.767090,107.745689 4947.880859,120.014107 4885.761719,130.665863 
	C4831.554688,139.960938 4777.138184,147.055847 4721.543945,144.564941 
	C4722.763184,143.434998 4724.356934,142.697235 4725.974121,142.015274 
	C4749.488281,132.102280 4772.964844,122.098839 4796.531738,112.312737 
	C4830.345703,98.271599 4864.243652,84.434196 4898.044922,70.362885 
	C4900.931641,69.161224 4903.359375,66.856735 4906.000000,65.064568 
z"/>
<path fill="#EC9628" opacity="1.000000" stroke="none" 
	d="
M4905.577148,65.022842 
	C4903.359375,66.856735 4900.931641,69.161224 4898.044922,70.362885 
	C4864.243652,84.434196 4830.345703,98.271599 4796.531738,112.312737 
	C4772.964844,122.098839 4749.488281,132.102280 4725.974121,142.015274 
	C4724.356934,142.697235 4722.763184,143.434998 4721.080566,144.491425 
	C4688.325684,143.746201 4656.394531,138.883820 4626.607422,124.611572 
	C4589.616699,106.887810 4568.381836,76.705513 4559.053711,37.423557 
	C4558.670410,35.808655 4558.334473,34.181732 4558.020996,32.551907 
	C4557.962891,32.249908 4558.119141,31.906815 4558.210449,31.388165 
	C4562.542969,36.297497 4566.569336,41.334469 4571.081055,45.890659 
	C4590.894043,65.900398 4615.691406,76.234039 4642.691895,81.933449 
	C4676.566406,89.083946 4710.853027,89.422447 4745.111816,86.247482 
	C4775.080566,83.470108 4804.973145,79.721489 4834.816406,75.778168 
	C4858.327148,72.671577 4881.712891,68.615440 4905.577148,65.022842 
z"/>
<path fill="#E69931" opacity="1.000000" stroke="none" 
	d="
M881.999207,517.249878 
	C888.295654,505.411163 896.767578,495.710266 908.568604,488.939789 
	C946.535095,467.157593 996.695435,488.748535 1006.306274,531.128418 
	C1013.436523,562.570007 992.453857,594.251099 959.399231,601.951660 
	C925.484070,609.852722 892.981323,592.455078 880.151672,558.891724 
	C879.325439,552.444275 877.822388,546.669189 878.201904,541.020630 
	C878.737671,533.047974 880.666138,525.168945 881.999207,517.249878 
M971.188782,539.411926 
	C969.052612,528.500549 962.065063,521.712769 951.968384,518.380981 
	C941.065613,514.783081 930.485779,515.891907 921.500061,523.761597 
	C911.928894,532.143921 910.696655,544.940125 918.150513,555.247437 
	C928.100464,569.006409 949.481384,572.017639 962.656372,561.327454 
	C969.286255,555.947937 972.581238,548.955994 971.188782,539.411926 
z"/>
<path fill="#E87E1F" opacity="1.000000" stroke="none" 
	d="
M1071.227661,320.707520 
	C1047.630737,307.780212 1022.398804,301.391754 996.316711,298.094177 
	C947.440430,291.914764 898.913513,296.018768 850.514771,303.502289 
	C790.310913,312.811218 732.115356,329.933990 674.131042,348.076569 
	C630.901306,361.602661 586.890442,372.106659 542.003357,378.553558 
	C503.946136,384.019562 465.782074,386.242584 427.489929,380.868286 
	C360.657806,371.488434 311.712891,337.175537 282.228973,276.112701 
	C276.671295,264.602448 272.162994,252.580048 267.374481,240.711685 
	C266.847168,239.404800 267.670990,237.552765 267.868164,235.953568 
	C268.384613,235.983505 268.901062,236.013443 269.417511,236.043381 
	C272.838104,241.112579 276.017303,246.365891 279.719513,251.220322 
	C299.612671,277.304840 326.937500,291.622711 357.892365,299.968445 
	C391.729584,309.091248 426.291199,310.434875 461.017426,308.544952 
	C534.138733,304.565460 604.706116,287.454285 674.501160,266.442535 
	C722.545959,251.978714 771.384155,241.061035 821.268982,235.318878 
	C870.314209,229.673370 919.317261,228.765381 967.971741,239.014191 
	C1010.527771,247.978409 1049.041138,264.946564 1079.768921,296.806427 
	C1097.001465,314.673950 1109.562256,335.504272 1118.320435,358.689087 
	C1119.214233,361.055023 1120.310303,363.173523 1116.087524,363.850189 
	C1105.453491,345.415436 1090.243896,331.324768 1071.227661,320.707520 
M1106.097168,342.305847 
	C1106.190796,342.356110 1106.284546,342.406372 1106.378174,342.456635 
	C1106.255371,342.301544 1106.132568,342.146454 1105.942993,341.270233 
	C1096.171875,320.914734 1082.575317,303.613861 1065.494019,288.787506 
	C1046.097412,271.951752 1023.971497,260.310486 999.930542,251.820038 
	C966.547119,240.030136 931.850830,236.101562 896.803528,235.222809 
	C878.410889,234.761642 859.960571,236.236588 841.548645,237.101089 
	C834.615540,237.426636 827.685669,238.278351 820.809875,239.273727 
	C806.251587,241.381332 791.673279,243.433014 777.209045,246.085236 
	C763.066956,248.678406 749.056458,251.989609 734.163696,254.989899 
	C712.061462,260.846130 689.930115,266.595123 667.865723,272.590759 
	C648.342590,277.895782 629.021423,283.993835 609.383484,288.814789 
	C578.205505,296.468781 546.868652,303.539795 514.896973,307.164917 
	C496.495880,309.251343 478.100372,312.075562 459.635803,312.752808 
	C431.612915,313.780670 403.564758,313.530579 375.771790,308.128357 
	C341.161896,301.401184 309.363678,289.394470 284.527679,263.061798 
	C283.154266,261.605621 281.618439,260.302673 280.158203,258.928406 
	C279.484314,260.422333 279.662201,261.179413 279.968506,261.880402 
	C288.795532,282.082275 299.849365,300.867920 314.110321,317.814026 
	C328.361725,334.748749 345.397339,348.064941 365.038452,357.902191 
	C396.046021,373.432404 429.538727,378.799377 463.757599,379.807709 
	C478.309723,380.236511 492.985657,379.332611 507.488434,377.872986 
	C527.541260,375.854797 547.566162,373.243164 567.455688,369.986237 
	C605.466064,363.762085 642.496155,353.370575 679.351013,342.357758 
	C704.946838,334.709320 730.363892,326.368042 756.204468,319.659943 
	C781.183289,313.175659 806.593933,308.348907 831.832214,302.873962 
	C839.862854,301.131866 847.949036,299.645813 856.881714,298.020203 
	C866.416565,296.978302 875.938232,295.790192 885.489258,294.927673 
	C901.144897,293.513763 916.799683,291.828918 932.492981,291.178162 
	C944.247498,290.690735 956.110962,291.084442 967.838379,292.098572 
	C985.119446,293.593018 1002.492493,295.068695 1019.518982,298.215698 
	C1045.056885,302.936005 1069.052979,312.105713 1089.824707,328.296509 
	C1095.393188,332.636932 1100.611328,337.427032 1106.097168,342.305847 
z"/>
<path fill="#E87D1F" opacity="1.000000" stroke="none" 
	d="
M915.042664,374.467407 
	C946.920288,374.611359 977.572632,378.576752 1006.501404,391.793304 
	C1040.434937,407.296326 1064.755127,432.651764 1082.286255,465.096344 
	C1083.606812,467.540161 1083.861816,469.066193 1080.579468,469.701294 
	C1067.599487,451.937408 1048.111084,445.731079 1028.010864,441.047455 
	C996.803040,433.775604 965.033264,432.716309 933.155945,433.637451 
	C860.255188,435.744110 789.472351,449.329407 720.280945,472.198944 
	C679.960022,485.526123 638.793030,495.767181 596.646118,501.534149 
	C563.823547,506.025269 530.949463,507.485870 498.210297,500.712799 
	C454.662415,491.703674 422.892151,467.017792 402.117859,427.922485 
	C399.154877,422.346436 396.502258,416.598572 393.913147,410.837128 
	C393.441772,409.788147 393.976013,408.287292 394.046021,406.995026 
	C395.270355,407.378174 396.936890,407.376038 397.654999,408.200287 
	C422.409119,436.611816 455.119690,447.210876 491.255096,450.058746 
	C531.882690,453.260651 571.809631,447.589020 611.062439,438.213287 
	C659.723511,426.590302 707.970886,413.231750 756.376831,400.546021 
	C793.895508,390.713501 831.635803,381.898315 870.219238,377.458130 
	C884.920593,375.766327 899.777466,375.425690 915.042664,374.467407 
M404.021149,421.455200 
	C403.881104,421.186188 403.741089,420.917145 403.601044,420.648132 
	C403.716797,421.111481 403.832550,421.574860 404.043182,422.749969 
	C418.999390,452.769287 441.064301,475.504150 472.301788,488.535309 
	C486.559021,494.482880 501.493896,498.072754 517.573120,499.609772 
	C521.674377,500.068634 525.788757,501.013489 529.874634,500.903229 
	C548.778503,500.392944 567.764099,500.492737 586.547119,498.627991 
	C604.092590,496.886078 621.522888,493.440521 638.812988,489.830353 
	C654.673706,486.518646 670.279541,481.986450 686.785889,477.980164 
	C692.675720,476.322388 698.568665,474.675873 704.454773,473.004974 
	C735.960510,464.061462 767.288391,454.411926 799.034912,446.426208 
	C818.181396,441.609924 837.969543,439.328339 857.486572,436.009277 
	C864.296143,434.851227 871.157471,433.997223 878.895508,433.004456 
	C880.727356,432.975189 882.564636,433.026245 884.390259,432.904327 
	C903.557373,431.624634 922.714233,429.452301 941.890747,429.267426 
	C960.086365,429.091980 978.312500,430.828461 996.505615,432.022675 
	C1013.447327,433.134735 1030.006836,436.549713 1045.993530,442.226440 
	C1054.007324,445.072083 1061.655762,448.946930 1070.666138,452.878540 
	C1038.585815,405.518677 994.302856,382.820984 938.405823,379.381409 
	C932.591858,379.249023 926.762939,378.783630 920.966736,379.045319 
	C901.918213,379.905334 882.766235,380.064056 863.872498,382.321045 
	C844.699707,384.611359 825.746094,388.872589 806.775452,392.665619 
	C796.760498,394.668030 786.913818,397.512024 776.168518,399.988281 
	C775.505798,400.034729 774.813782,399.972809 774.184631,400.143127 
	C743.674072,408.403320 713.239075,416.954437 682.641724,424.878723 
	C656.551941,431.635559 630.308105,437.809967 604.066833,443.962433 
	C593.803284,446.368774 583.360901,448.012573 572.139038,450.004333 
	C571.143921,450.053467 570.144287,450.057587 569.154419,450.158447 
	C553.403564,451.763336 537.673218,454.413757 521.898682,454.708038 
	C505.746643,455.009338 489.436615,453.887512 473.403351,451.796448 
	C451.460510,448.934631 430.952972,441.524902 413.132385,427.786774 
	C410.293762,425.598480 407.096985,423.874756 404.021149,421.455200 
z"/>
<path fill="#EA9C2A" opacity="1.000000" stroke="none" 
	d="
M881.591919,517.240479 
	C880.666138,525.168945 878.737671,533.047974 878.201904,541.020630 
	C877.822388,546.669189 879.325439,552.444275 879.999512,558.565674 
	C865.091492,562.802979 849.970825,565.997192 835.295959,570.609863 
	C807.634766,579.304443 779.986023,587.935120 751.484741,593.494690 
	C746.297852,594.506409 741.055359,595.233459 735.419312,596.051025 
	C738.848083,592.573547 742.427063,588.763672 746.589355,585.762939 
	C768.599243,569.895447 790.768799,554.249390 812.829102,538.451355 
	C814.105347,537.537415 814.907410,535.961304 815.964844,534.345764 
	C837.068481,525.845459 858.537598,519.248596 881.591919,517.240479 
z"/>
<path fill="#FFFDFC" opacity="1.000000" stroke="none" 
	d="
M667.846680,592.375000 
	C663.760132,605.201111 654.138184,612.307739 640.871765,612.668396 
	C628.346497,613.008911 616.101807,605.372131 611.685791,594.465759 
	C607.308228,583.654114 611.524414,571.737183 621.896240,565.606689 
	C634.113770,558.385254 650.595825,560.457520 660.609619,570.551575 
	C666.489990,576.479004 669.006836,583.615417 667.846680,592.375000 
z"/>
<path fill="#F79B2C" opacity="1.000000" stroke="none" 
	d="
M626.000000,134.023148 
	C643.049927,130.023926 660.021790,125.644676 677.169617,122.122169 
	C698.353516,117.770599 719.618591,113.722931 740.972412,110.321129 
	C756.285828,107.881592 771.812866,106.805351 787.225952,104.964180 
	C811.657288,102.045723 836.206787,101.258209 860.731384,102.190010 
	C877.867065,102.841057 894.937378,105.215668 912.036194,106.827736 
	C913.842346,106.998024 915.643860,107.217422 917.691406,108.044464 
	C914.436523,112.372025 911.109619,116.251976 907.407288,119.732666 
	C895.258911,131.153702 882.937866,142.391342 870.820435,153.844727 
	C869.979797,154.639359 870.264648,156.624634 870.026062,158.056198 
	C865.995911,158.689880 861.976440,159.403000 857.933899,159.944092 
	C835.330750,162.969528 812.600830,165.250366 790.145203,169.124786 
	C760.329651,174.269073 730.501221,179.699417 701.084045,186.709503 
	C654.345581,197.847275 607.967285,210.490417 561.379211,222.269836 
	C550.650696,224.982452 539.689636,226.775482 528.422607,228.622742 
	C528.584473,227.115662 528.896057,225.691360 529.774475,224.883087 
	C540.368530,215.134857 551.135071,205.573074 561.679260,195.771866 
	C574.060181,184.263321 586.214844,172.511688 598.572449,160.977768 
	C604.131287,155.789459 610.113037,151.048569 615.583923,145.773773 
	C619.340393,142.151932 622.547424,137.960159 626.000000,134.023148 
z"/>
<path fill="#F3A124" opacity="1.000000" stroke="none" 
	d="
M625.599243,134.024933 
	C622.547424,137.960159 619.340393,142.151932 615.583923,145.773773 
	C610.113037,151.048569 604.131287,155.789459 598.572449,160.977768 
	C586.214844,172.511688 574.060181,184.263321 561.679260,195.771866 
	C551.135071,205.573074 540.368530,215.134857 529.774475,224.883087 
	C528.896057,225.691360 528.584473,227.115662 528.005981,228.621368 
	C515.579102,230.658081 503.175262,232.497681 490.724243,233.925598 
	C484.324188,234.659576 477.843597,234.800140 471.393127,234.966690 
	C443.804535,235.678986 419.091339,226.612625 395.507416,213.106537 
	C372.329895,199.833176 348.951538,186.891434 325.368774,174.354462 
	C316.479706,169.628891 306.770081,166.446884 297.516754,162.152145 
	C298.323456,161.346786 299.170593,161.081512 299.754303,160.534912 
	C311.909332,149.152985 324.089874,137.796448 336.066711,126.229210 
	C337.089905,125.241005 336.718414,122.808769 336.994812,121.047348 
	C352.471436,123.667770 367.961426,126.212067 383.421509,128.926727 
	C405.727661,132.843506 427.968842,137.151169 450.322937,140.765274 
	C462.549164,142.741974 474.921997,144.039200 487.280304,144.914490 
	C502.660461,146.003799 518.096375,146.935196 533.503723,146.869629 
	C559.059631,146.760880 584.298462,143.212128 609.260925,137.774139 
	C614.592529,136.612656 619.886902,135.280304 625.599243,134.024933 
z"/>
<path fill="#F2B413" opacity="1.000000" stroke="none" 
	d="
M127.992874,157.946442 
	C97.572395,166.121307 68.329407,177.362595 39.973862,191.078690 
	C36.975513,192.529037 32.506222,191.585938 28.864555,190.937592 
	C17.907454,188.986832 9.646784,183.240402 6.663134,172.088043 
	C3.495569,160.248260 5.286355,149.055130 15.025041,140.833176 
	C18.282749,138.082840 23.420912,137.175888 27.871408,136.287689 
	C48.973694,132.076324 70.070976,127.772354 91.296768,124.269203 
	C107.610336,121.576782 124.106590,119.978668 140.532898,117.987038 
	C149.395081,116.912521 158.280960,116.033585 167.617767,115.423325 
	C170.254700,119.382736 167.220993,120.533661 165.176819,122.408714 
	C155.153259,131.602936 145.215164,140.891220 135.320068,150.223923 
	C132.742615,152.654907 130.428131,155.364700 127.992874,157.946442 
z"/>
<path fill="#F0AC1A" opacity="1.000000" stroke="none" 
	d="
M128.381500,157.920746 
	C130.428131,155.364700 132.742615,152.654907 135.320068,150.223923 
	C145.215164,140.891220 155.153259,131.602936 165.176819,122.408714 
	C167.220993,120.533661 170.254700,119.382736 168.035217,115.427170 
	C192.077271,114.384613 216.171021,112.978264 240.247345,113.230888 
	C259.753632,113.435562 279.239441,115.628448 298.733276,116.954674 
	C303.526550,117.280762 308.315796,117.666054 313.586121,118.324570 
	C314.714508,118.734688 315.363617,118.844368 316.012726,118.954041 
	C317.397095,118.975716 318.781494,118.997383 320.630005,119.352699 
	C322.066956,119.775581 323.039734,119.864815 324.012543,119.954048 
	C328.049866,120.309334 332.087219,120.664619 336.559692,121.033630 
	C336.718414,122.808769 337.089905,125.241005 336.066711,126.229210 
	C324.089874,137.796448 311.909332,149.152985 299.754303,160.534912 
	C299.170593,161.081512 298.323456,161.346786 297.287079,161.883148 
	C288.381378,159.544525 279.914856,156.393051 271.165222,154.738464 
	C256.575470,151.979492 241.868622,149.319931 227.091751,148.217056 
	C212.433029,147.123001 197.491211,146.752304 182.919922,148.333954 
	C164.738266,150.307495 146.808594,154.602402 128.381500,157.920746 
z"/>
<path fill="#FA9A38" opacity="1.000000" stroke="none" 
	d="
M870.489990,158.043472 
	C870.264648,156.624634 869.979797,154.639359 870.820435,153.844727 
	C882.937866,142.391342 895.258911,131.153702 907.407288,119.732666 
	C911.109619,116.251976 914.436523,112.372025 917.970337,108.328171 
	C927.709045,109.991821 937.524536,111.577393 947.094727,114.095467 
	C971.815979,120.600060 995.211121,130.249939 1016.472778,144.694992 
	C1035.023926,157.298553 1050.917725,172.574661 1064.636230,192.002396 
	C1062.557129,191.541550 1061.408447,191.619156 1060.738892,191.090271 
	C1039.667725,174.448257 1014.990845,166.558960 989.073730,162.091629 
	C977.211365,160.046921 965.150879,158.627090 953.130859,158.137894 
	C931.880005,157.272964 910.592163,157.242096 889.318115,157.071411 
	C883.199707,157.022339 877.075500,157.691101 870.489990,158.043472 
z"/>
<path fill="#F3A124" opacity="1.000000" stroke="none" 
	d="
M323.799072,119.700439 
	C323.039734,119.864815 322.066956,119.775581 321.045197,119.365318 
	C321.859375,119.178474 322.722473,119.312653 323.799072,119.700439 
z"/>
<path fill="#F3A124" opacity="1.000000" stroke="none" 
	d="
M315.838684,118.717148 
	C315.363617,118.844368 314.714508,118.734688 314.030396,118.335503 
	C314.551819,118.190750 315.108246,118.335503 315.838684,118.717148 
z"/>
<path fill="#FA9A38" opacity="1.000000" stroke="none" 
	d="
M1065.546143,194.550797 
	C1065.479248,194.593323 1065.612915,194.508270 1065.546143,194.550797 
z"/>
<path fill="#EA8D29" opacity="1.000000" stroke="none" 
	d="
M791.000000,9.993769 
	C796.463318,9.003597 801.892944,7.466688 807.396423,7.127095 
	C823.096069,6.158339 838.841797,4.894934 854.539368,5.215570 
	C871.429260,5.560562 887.810730,9.174095 901.417358,20.291828 
	C907.340027,25.131031 912.672119,30.599014 914.995483,38.624619 
	C915.000000,39.000000 914.996277,39.005024 914.996277,39.005035 
	C907.416809,36.294159 900.022827,32.364445 892.211670,31.175453 
	C882.042725,29.627542 871.434692,29.167978 861.208496,30.183052 
	C842.510925,32.038998 823.921631,35.113930 805.354980,38.101833 
	C797.056335,39.437321 788.921753,41.792004 780.361938,43.446327 
	C781.403870,39.332203 782.890686,35.486641 784.168762,31.572887 
	C786.510864,24.401087 788.729736,17.189039 791.000000,9.993769 
z"/>
<path fill="#EEA220" opacity="1.000000" stroke="none" 
	d="
M618.000000,43.007610 
	C638.067627,40.012600 658.169556,37.226425 678.188232,33.934032 
	C688.120728,32.300476 697.897400,29.723351 707.752075,27.608116 
	C709.198303,27.297689 710.686340,27.182068 712.576538,27.369143 
	C710.345337,35.144192 707.627014,42.503712 705.065247,49.917320 
	C703.577393,54.222832 702.340820,58.615177 700.991150,62.968452 
	C688.191284,65.191750 675.448120,67.849213 662.577637,69.532410 
	C645.067505,71.822380 627.455139,73.215202 609.391479,70.780945 
	C610.038452,67.081406 611.052246,63.937714 612.089600,60.801838 
	C614.052612,54.868053 616.029114,48.938766 618.000000,43.007610 
z"/>
<path fill="#EC9726" opacity="1.000000" stroke="none" 
	d="
M701.392578,62.970695 
	C702.340820,58.615177 703.577393,54.222832 705.065247,49.917320 
	C707.627014,42.503712 710.345337,35.144192 712.998779,27.359367 
	C721.419800,24.769943 729.774414,22.275217 738.274231,20.460943 
	C755.523804,16.779026 772.852051,13.465185 790.573914,9.996689 
	C788.729736,17.189039 786.510864,24.401087 784.168762,31.572887 
	C782.890686,35.486641 781.403870,39.332203 780.002197,43.593830 
	C759.084412,49.117100 738.178894,54.268494 717.264404,59.383438 
	C712.122498,60.640961 706.951599,61.779621 701.392578,62.970695 
z"/>
<path fill="#F2B313" opacity="1.000000" stroke="none" 
	d="
M617.531372,43.005150 
	C616.029114,48.938766 614.052612,54.868053 612.089600,60.801838 
	C611.052246,63.937714 610.038452,67.081406 609.009460,70.612206 
	C572.829895,68.840424 545.997314,51.882217 535.868042,21.935307 
	C540.587036,25.054796 544.502869,27.823648 548.590210,30.310745 
	C559.849487,37.161957 572.336731,40.575851 585.257446,41.852898 
	C595.794128,42.894321 606.456177,42.667286 617.531372,43.005150 
z"/>
<path fill="#EA8D29" opacity="1.000000" stroke="none" 
	d="
M915.002441,38.998028 
	C915.125183,39.139034 915.245544,39.282017 915.365906,39.424995 
	C915.279968,39.376427 915.193970,39.327869 915.052124,39.142166 
	C914.996277,39.005024 915.000000,39.000000 915.002441,38.998028 
z"/>
<path fill="#FFFFFF" opacity="1.000000" stroke="none" 
	d="
M3932.328125,254.617691 
	C3950.162354,263.951599 3950.162598,263.951599 3950.162354,283.506226 
	C3950.162109,351.652588 3949.740967,419.802826 3950.367432,487.943420 
	C3950.621582,515.589417 3935.837158,528.203552 3920.792236,533.919067 
	C3898.246826,542.484070 3875.820312,537.364075 3861.147949,520.300903 
	C3847.485107,504.411316 3841.120850,485.235504 3837.024414,465.168091 
	C3830.107910,431.287415 3829.855469,397.016418 3831.654297,362.674133 
	C3832.957031,337.804108 3836.515381,313.301544 3846.008789,290.074799 
	C3848.947021,282.886353 3852.451172,275.783447 3856.709229,269.307190 
	C3870.272217,248.676620 3887.779297,241.787674 3911.785156,247.496689 
	C3918.685303,249.137695 3925.276855,252.076843 3932.328125,254.617691 
z"/>
<path fill="#FEFEFF" opacity="1.000000" stroke="none" 
	d="
M4721.054688,484.082581 
	C4697.131348,501.472717 4670.913574,508.670715 4642.088379,502.852509 
	C4616.545410,497.696777 4601.267090,473.457336 4606.913086,448.902740 
	C4608.535156,441.847107 4612.213379,436.138153 4617.624512,431.334167 
	C4629.419434,420.862427 4643.883301,416.903809 4658.788086,413.582672 
	C4689.096191,406.829071 4719.326172,399.723969 4750.515137,392.550537 
	C4749.893066,404.164246 4749.495605,416.210663 4748.502441,428.207825 
	C4747.997559,434.308136 4746.604004,440.359741 4745.292969,446.363617 
	C4741.927246,461.780029 4733.604980,474.101685 4721.054688,484.082581 
z"/>
<path fill="#FEFEFF" opacity="1.000000" stroke="none" 
	d="
M1791.748535,477.171906 
	C1788.217285,452.973572 1788.764404,429.907379 1803.671631,409.405731 
	C1822.586792,383.391876 1857.722656,376.233185 1884.434937,392.954102 
	C1885.701782,393.747101 1886.953857,394.578613 1888.131226,395.496857 
	C1893.973633,400.053162 1897.344482,405.176239 1897.165161,413.473572 
	C1896.550415,441.927979 1896.802490,470.404877 1897.043213,498.870514 
	C1897.087769,504.147797 1895.191895,508.063263 1892.045044,511.897827 
	C1873.524658,534.464722 1828.340088,542.781799 1803.745850,506.889008 
	C1797.626587,497.958557 1793.706665,488.211578 1791.748535,477.171906 
z"/>
<path fill="#FEFEFF" opacity="1.000000" stroke="none" 
	d="
M2933.683838,436.750183 
	C2940.888916,398.477142 2977.697510,375.607666 3013.532227,386.896118 
	C3022.400635,389.689850 3030.339844,394.223480 3036.153076,401.667847 
	C3037.633545,403.563599 3038.731934,406.334991 3038.745361,408.711243 
	C3038.917236,438.842896 3038.741455,468.976776 3038.971680,499.107666 
	C3039.010742,504.224457 3037.116943,507.985352 3034.104736,511.684509 
	C3014.839600,535.342102 2966.966309,543.662354 2942.831055,502.494354 
	C2932.169678,484.309723 2930.775879,464.447937 2932.527588,444.061615 
	C2932.726318,441.749329 2933.222900,439.462585 2933.683838,436.750183 
z"/>
<path fill="#FFFEFD" opacity="1.000000" stroke="none" 
	d="
M971.260620,539.815063 
	C972.581238,548.955994 969.286255,555.947937 962.656372,561.327454 
	C949.481384,572.017639 928.100464,569.006409 918.150513,555.247437 
	C910.696655,544.940125 911.928894,532.143921 921.500061,523.761597 
	C930.485779,515.891907 941.065613,514.783081 951.968384,518.380981 
	C962.065063,521.712769 969.052612,528.500549 971.260620,539.815063 
z"/>
<path fill="#EDA02D" opacity="1.000000" stroke="none" 
	d="
M856.009766,298.042572 
	C847.949036,299.645813 839.862854,301.131866 831.832214,302.873962 
	C806.593933,308.348907 781.183289,313.175659 756.204468,319.659943 
	C730.363892,326.368042 704.946838,334.709320 679.351013,342.357758 
	C642.496155,353.370575 605.466064,363.762085 567.455688,369.986237 
	C547.566162,373.243164 527.541260,375.854797 507.488434,377.872986 
	C492.985657,379.332611 478.309723,380.236511 463.757599,379.807709 
	C429.538727,378.799377 396.046021,373.432404 365.038452,357.902191 
	C345.397339,348.064941 328.361725,334.748749 314.110321,317.814026 
	C299.849365,300.867920 288.795532,282.082275 279.968506,261.880402 
	C279.662201,261.179413 279.484314,260.422333 280.158203,258.928406 
	C281.618439,260.302673 283.154266,261.605621 284.527679,263.061798 
	C309.363678,289.394470 341.161896,301.401184 375.771790,308.128357 
	C403.564758,313.530579 431.612915,313.780670 459.635803,312.752808 
	C478.100372,312.075562 496.495880,309.251343 514.896973,307.164917 
	C546.868652,303.539795 578.205505,296.468781 609.383484,288.814789 
	C629.021423,283.993835 648.342590,277.895782 667.865723,272.590759 
	C689.930115,266.595123 712.061462,260.846130 734.634521,255.341995 
	C738.003784,257.069611 740.793335,258.776184 743.817139,259.770172 
	C779.834534,271.609680 815.892578,283.325500 851.909790,295.165802 
	C853.427612,295.664795 854.649841,297.063202 856.009766,298.042572 
z"/>
<path fill="#F0AE1F" opacity="1.000000" stroke="none" 
	d="
M856.445740,298.031372 
	C854.649841,297.063202 853.427612,295.664795 851.909790,295.165802 
	C815.892578,283.325500 779.834534,271.609680 743.817139,259.770172 
	C740.793335,258.776184 738.003784,257.069611 735.046814,255.339859 
	C749.056458,251.989609 763.066956,248.678406 777.209045,246.085236 
	C791.673279,243.433014 806.251587,241.381332 820.809875,239.273727 
	C827.685669,238.278351 834.615540,237.426636 841.548645,237.101089 
	C859.960571,236.236588 878.410889,234.761642 896.803528,235.222809 
	C931.850830,236.101562 966.547119,240.030136 999.930542,251.820038 
	C1023.971497,260.310486 1046.097412,271.951752 1065.494019,288.787506 
	C1082.575317,303.613861 1096.171875,320.914734 1105.971436,341.635284 
	C1106.000000,342.000336 1105.990234,342.010742 1105.990234,342.010742 
	C1100.611328,337.427032 1095.393188,332.636932 1089.824707,328.296509 
	C1069.052979,312.105713 1045.056885,302.936005 1019.518982,298.215698 
	C1002.492493,295.068695 985.119446,293.593018 967.838379,292.098572 
	C956.110962,291.084442 944.247498,290.690735 932.492981,291.178162 
	C916.799683,291.828918 901.144897,293.513763 885.489258,294.927673 
	C875.938232,295.790192 866.416565,296.978302 856.445740,298.031372 
z"/>
<path fill="#F0AE1F" opacity="1.000000" stroke="none" 
	d="
M1106.004883,341.995850 
	C1106.132568,342.146454 1106.255371,342.301544 1106.378174,342.456635 
	C1106.284546,342.406372 1106.190796,342.356110 1106.043701,342.158295 
	C1105.990234,342.010742 1106.000000,342.000336 1106.004883,341.995850 
z"/>
<path fill="#E79531" opacity="1.000000" stroke="none" 
	d="
M685.997681,477.992004 
	C670.279541,481.986450 654.673706,486.518646 638.812988,489.830353 
	C621.522888,493.440521 604.092590,496.886078 586.547119,498.627991 
	C567.764099,500.492737 548.778503,500.392944 529.874634,500.903229 
	C525.788757,501.013489 521.674377,500.068634 517.424744,499.017273 
	C520.720276,495.351166 524.067322,492.160156 527.625183,489.224640 
	C541.738892,477.579620 555.944641,466.045868 570.030334,454.367310 
	C571.331665,453.288391 572.024597,451.475677 573.000000,450.003662 
	C583.360901,448.012573 593.803284,446.368774 604.066833,443.962433 
	C630.308105,437.809967 656.551941,431.635559 682.641724,424.878723 
	C713.239075,416.954437 743.674072,408.403320 774.184631,400.143127 
	C774.813782,399.972809 775.505798,400.034729 776.547485,400.331085 
	C776.816833,400.984436 776.801636,401.408417 776.584167,401.589386 
	C762.879883,412.993866 749.200684,424.429138 735.428772,435.751587 
	C719.741943,448.648376 703.953247,461.421295 688.276550,474.330261 
	C687.224915,475.196228 686.744080,476.755310 685.997681,477.992004 
z"/>
<path fill="#EB9D28" opacity="1.000000" stroke="none" 
	d="
M686.391785,477.986084 
	C686.744080,476.755310 687.224915,475.196228 688.276550,474.330261 
	C703.953247,461.421295 719.741943,448.648376 735.428772,435.751587 
	C749.200684,424.429138 762.879883,412.993866 776.584167,401.589386 
	C776.801636,401.408417 776.816833,400.984436 776.958801,400.324951 
	C786.913818,397.512024 796.760498,394.668030 806.775452,392.665619 
	C825.746094,388.872589 844.699707,384.611359 863.872498,382.321045 
	C882.766235,380.064056 901.918213,379.905334 920.966736,379.045319 
	C926.762939,378.783630 932.591858,379.249023 938.659058,380.010986 
	C938.765137,380.932404 938.691589,381.313965 938.460510,381.503235 
	C921.337646,395.529236 904.149292,409.476166 887.113281,423.606781 
	C883.773499,426.377045 881.019348,429.853516 877.995117,433.004333 
	C871.157471,433.997223 864.296143,434.851227 857.486572,436.009277 
	C837.969543,439.328339 818.181396,441.609924 799.034912,446.426208 
	C767.288391,454.411926 735.960510,464.061462 704.454773,473.004974 
	C698.568665,474.675873 692.675720,476.322388 686.391785,477.986084 
z"/>
<path fill="#EFA61E" opacity="1.000000" stroke="none" 
	d="
M878.445312,433.004395 
	C881.019348,429.853516 883.773499,426.377045 887.113281,423.606781 
	C904.149292,409.476166 921.337646,395.529236 938.460510,381.503235 
	C938.691589,381.313965 938.765137,380.932404 938.962219,380.298187 
	C994.302856,382.820984 1038.585815,405.518677 1070.666138,452.878540 
	C1061.655762,448.946930 1054.007324,445.072083 1045.993530,442.226440 
	C1030.006836,436.549713 1013.447327,433.134735 996.505615,432.022675 
	C978.312500,430.828461 960.086365,429.091980 941.890747,429.267426 
	C922.714233,429.452301 903.557373,431.624634 884.390259,432.904327 
	C882.564636,433.026245 880.727356,432.975189 878.445312,433.004395 
z"/>
<path fill="#EC923F" opacity="1.000000" stroke="none" 
	d="
M572.569519,450.004028 
	C572.024597,451.475677 571.331665,453.288391 570.030334,454.367310 
	C555.944641,466.045868 541.738892,477.579620 527.625183,489.224640 
	C524.067322,492.160156 520.720276,495.351166 517.130066,498.731842 
	C501.493896,498.072754 486.559021,494.482880 472.301788,488.535309 
	C441.064301,475.504150 418.999390,452.769287 404.026001,422.369629 
	C404.008789,421.989258 404.065765,421.936249 404.065765,421.936249 
	C407.096985,423.874756 410.293762,425.598480 413.132385,427.786774 
	C430.952972,441.524902 451.460510,448.934631 473.403351,451.796448 
	C489.436615,453.887512 505.746643,455.009338 521.898682,454.708038 
	C537.673218,454.413757 553.403564,451.763336 569.154419,450.158447 
	C570.144287,450.057587 571.143921,450.053467 572.569519,450.004028 
z"/>
<path fill="#EC923F" opacity="1.000000" stroke="none" 
	d="
M403.978577,422.013733 
	C403.832550,421.574860 403.716797,421.111481 403.601044,420.648132 
	C403.741089,420.917145 403.881104,421.186188 404.043457,421.695740 
	C404.065765,421.936249 404.008789,421.989258 403.978577,422.013733 
z"/>
</svg>